<?xml version="1.0" standalone="no"?>
<!DOCTYPE svg PUBLIC "-//W3C//DTD SVG 1.1//EN" "http://www.w3.org/Graphics/SVG/1.1/DTD/svg11.dtd" >
<svg xmlns="http://www.w3.org/2000/svg" xmlns:xlink="http://www.w3.org/1999/xlink" version="1.1">
<metadata></metadata>
<defs>
<font id="mrgvlovani_capsregular" horiz-adv-x="1267" >
<font-face units-per-em="2048" ascent="1470" descent="-578" />
<missing-glyph horiz-adv-x="569" />
<glyph unicode=" "  horiz-adv-x="569" />
<glyph unicode="&#x09;" horiz-adv-x="569" />
<glyph unicode="&#xa0;" horiz-adv-x="569" />
<glyph unicode="&#x10d0;" horiz-adv-x="1202" d="M82 659q0 205 72 314l180 -72q-55 -129 -55 -270q0 -225 94 -364q95 -140 243 -140q122 0 215 131q93 130 93 328q0 286 -230 489q-231 199 -231 527l207 -3q-27 -226 211 -442q239 -218 239 -545q0 -142 -39 -264q-41 -122 -108 -204q-66 -81 -160 -127 q-92 -46 -197 -46q-242 0 -388 188t-146 500z" />
<glyph unicode="&#x10d1;" horiz-adv-x="1232" d="M82 559q0 261 129 407t362 167q27 144 -92 215q-121 70 -121 254h213q0 -86 95 -175q93 -87 65 -297q76 -12 149 -53q72 -42 134 -110q60 -67 98 -175q37 -105 37 -233q0 -276 -142 -431q-142 -157 -393 -157q-250 0 -392 157q-142 155 -142 431zM276 559q0 -201 91 -316 q90 -116 249 -116q157 0 249 116q91 115 91 316q0 185 -94 303q-95 119 -225 119q-175 0 -268 -113q-93 -114 -93 -309z" />
<glyph unicode="&#x10d2;" horiz-adv-x="1320" d="M82 549q0 234 146 377q147 144 429 166q82 3 138 -11q45 91 45 205q0 64 -61 112t-165 48q-106 0 -161 -36q-57 -38 -58 -95q0 -37 21 -98l-176 -23q-21 76 -21 127q0 124 112 203q113 78 283 78t283 -88q113 -89 113 -232q0 -135 -74 -248q304 -181 301 -485 q0 -168 -65 -298q-64 -130 -195 -205t-309 -75q-273 0 -429 161q-157 160 -157 417zM276 553q0 -428 392 -428q84 0 150 20t117 65q53 46 81 132q28 84 28 207q-2 81 -22 147q-20 64 -65 121q-43 55 -120 87q-74 30 -180 32q-203 -6 -292 -105q-89 -101 -89 -278z" />
<glyph unicode="&#x10d3;" horiz-adv-x="1931" d="M102 926q0 178 34 307q33 130 94 206t140 112q78 36 177 36q234 0 377 -143q113 158 393 158q242 0 377 -153t135 -443q0 -279 -137 -439q-136 -159 -375 -159q-246 0 -383 158t-137 440q0 128 57 280q-140 146 -307 146q-97 0 -170 -109q-76 -109 -76 -397 q0 -169 44 -303q44 -132 121 -220q78 -88 194 -144q117 -56 254 -80q134 -25 307 -25h176v-185h-164q-281 0 -497 69q-217 67 -355 195q-138 126 -208 301q-71 175 -71 392zM991 1006q0 -205 87 -325q86 -120 239 -120q145 0 228 120q83 121 83 325q0 216 -81 329 q-81 111 -230 111q-160 0 -242 -115q-84 -115 -84 -325z" />
<glyph unicode="&#x10d4;" horiz-adv-x="1245" d="M92 504q0 90 84 246l170 -70q-59 -83 -59 -174q0 -172 93 -276q93 -103 222 -103q144 0 228 94q83 95 83 248v678q0 145 -79 221t-216 76q-115 0 -182 -64t-67 -166q-3 -86 37 -159l-185 -56q-48 122 -51 215q2 74 29 139q27 67 81 123q52 55 142 90q88 33 199 33 q227 0 354 -123q127 -124 127 -333v-674q0 -224 -134 -360q-133 -136 -366 -136q-236 0 -372 144q-138 143 -138 387z" />
<glyph unicode="&#x10d5;" horiz-adv-x="1245" d="M92 438q0 157 64 275l174 -60q-37 -73 -37 -211q0 -148 97 -233q97 -86 231 -86q61 0 112 19q51 18 96 53q41 33 68 94q25 57 25 131v94q0 226 -222 266h-122v166h122q188 0 209 266q-1 103 -80 168q-77 64 -215 64q-143 0 -213 -61q-71 -62 -71 -154q0 -78 26 -150 l-184 -57q-20 51 -30 90q-11 40 -14 87q-4 48 9 90q11 40 44 91q32 50 83 97q131 122 350 122q210 0 352 -117q143 -119 144 -272q-3 -243 -242 -374q254 -95 254 -314v-94q0 -114 -40 -201q-41 -90 -110 -144q-68 -53 -160 -84q-90 -28 -196 -28q-244 0 -383 124 q-141 125 -141 343z" />
<glyph unicode="&#x10d6;" horiz-adv-x="1228" d="M10 1231q0 161 119 265q118 103 287 103q153 0 262 -77q108 -79 151 -209q18 -125 -8 -219q44 -19 91 -46q37 -24 83 -68q45 -44 74 -98q30 -59 49 -141q19 -83 19 -192q0 -263 -143 -421q-142 -157 -382 -157q-239 0 -381 157q-143 158 -143 421q0 209 90 340 q-85 66 -127 148q-41 80 -41 194zM190 1229q0 -136 97 -221q109 139 352 118q18 40 18 84q0 113 -70 177q-71 65 -169 65q-101 0 -165 -59q-63 -60 -63 -164zM283 549q0 -191 90 -306q90 -116 239 -116q147 0 239 116q91 115 91 306q0 196 -94 309q-95 113 -246 113 q-140 0 -229 -113q-90 -112 -90 -309z" />
<glyph unicode="&#x10d7;" horiz-adv-x="2025" d="M92 784q0 815 535 815q282 0 420 -319q141 322 383 322q140 0 237 -49t156 -148q58 -99 84 -233q26 -138 26 -318q0 -574 -325 -856h-244q375 273 375 842q0 116 -8 215q-7 89 -29 175q-20 79 -56 133q-34 51 -89 82q-54 30 -127 30q-154 0 -310 -361q39 -182 39 -330 q0 -813 -532 -813q-141 0 -241 56q-102 55 -167 162t-96 254q-31 146 -31 341zM289 784q0 -156 18 -275q18 -121 58 -206q39 -88 105 -131q66 -45 157 -45t158 46q65 45 106 132q38 85 58 206q18 119 18 273q0 319 -80 490q-81 170 -260 170t-258 -169q-80 -171 -80 -491z " />
<glyph unicode="&#x10d8;" horiz-adv-x="1193" d="M82 852q0 216 62 387q62 169 178 264q117 96 274 96q156 0 275 -96q118 -97 179 -264q62 -171 62 -387q0 -449 -170 -854h-221q192 488 192 891q0 151 -38 279q-37 124 -111 201q-73 75 -170 75q-96 0 -168 -74q-72 -72 -110 -199q-37 -124 -37 -282q0 -402 196 -891 h-223q-170 405 -170 854z" />
<glyph unicode="&#x10d9;" horiz-adv-x="1193" d="M41 428q0 170 59 299l179 -61q-39 -62 -39 -228q0 -121 91 -216q91 -97 216 -97q139 0 230 84q91 82 91 207v127q0 166 -68 240q-69 73 -210 73h-123v176h123q123 0 187 64q63 65 69 170q0 152 -264 327h311q136 -157 145 -323q0 -227 -211 -344q244 -124 244 -375v-139 q0 -75 -35 -153q-37 -79 -100 -142q-64 -64 -167 -105q-101 -41 -224 -41q-93 0 -175 27q-85 28 -142 73q-58 44 -102 104q-42 57 -64 124q-21 65 -21 129z" />
<glyph unicode="&#x10da;" horiz-adv-x="2471" d="M92 965q0 159 37 279q38 122 101 193q64 72 144 108t173 36q231 0 356 -248q68 269 332 269q239 0 334 -269q125 248 356 248q93 0 173 -34q80 -35 144 -100q63 -66 101 -177q37 -110 37 -254q0 -256 -213 -524h-264q280 283 280 524q0 102 -24 185q-24 82 -62 129 q-39 47 -83 71t-89 24q-127 0 -192 -87q-66 -88 -70 -251v-331h-193v331q-2 161 -66 260t-169 99q-117 0 -176 -98q-58 -98 -58 -275v-325h-194v325q0 167 -73 259q-74 93 -187 93q-87 0 -170 -98q-84 -101 -84 -356q0 -813 1163 -813h334v-185h-381q-406 0 -704 119 q-296 118 -455 343q-158 224 -158 530z" />
<glyph unicode="&#x10db;" horiz-adv-x="1296" d="M92 569q0 266 143 423q143 155 392 155q196 0 346 -156v201q0 125 -83 194q-83 68 -208 68q-160 0 -236 -43q-77 -47 -77 -106h-207q0 78 37 136q35 57 102 92q66 35 150 51t188 18q255 -2 389 -115q135 -114 135 -295v-623q0 -598 -516 -598q-269 0 -411 156 q-144 156 -144 442zM293 575q0 -218 88 -333t266 -115q326 0 326 442q0 422 -346 422q-158 0 -246 -109t-88 -307z" />
<glyph unicode="&#x10dc;" horiz-adv-x="1296" d="M133 532v730q0 329 342 329h608v-170h-608q-151 0 -151 -164l-5 -286q156 176 349 176q249 0 393 -155q143 -157 143 -423q0 -283 -143 -441q-144 -157 -404 -157q-251 0 -387 147q-137 146 -137 414zM324 532q0 -192 88 -298q87 -107 245 -107q170 0 257 112 q87 111 87 326q0 204 -87 315t-246 111q-161 0 -253 -116q-91 -115 -91 -343z" />
<glyph unicode="&#x10dd;" horiz-adv-x="1906" d="M92 821q0 495 133 637q132 141 332 141q262 0 395 -288q136 288 400 288q199 0 331 -141t132 -637q0 -516 -365 -839h-279q449 360 449 839q0 416 -80 520q-82 103 -188 103q-126 0 -214 -112q-90 -114 -91 -259l-3 -455h-184v453q0 143 -89 259q-90 114 -214 114 q-108 0 -188 -101q-82 -100 -82 -522q0 -493 448 -839h-278q-365 323 -365 839z" />
<glyph unicode="&#x10de;" horiz-adv-x="1214" d="M61 420q0 108 48 239l180 -51q-79 -228 45 -387q70 -94 250 -94q75 0 136 26q60 25 96 69q35 42 55 98q18 53 18 112q0 80 -39 157q-40 78 -100 125q-62 48 -123 48h-174v156h174q196 0 196 196q0 118 -207 195q-206 77 -206 282h221q0 -117 194 -209q193 -91 193 -254 q0 -111 -45 -176q-45 -63 -150 -116q269 -143 269 -404q0 -88 -33 -169q-33 -83 -94 -147q-61 -65 -160 -105q-98 -40 -221 -40q-132 0 -233 37q-103 37 -164 100q-64 65 -94 142q-32 81 -32 170z" />
<glyph unicode="&#x10df;" horiz-adv-x="1247" d="M74 401q0 74 43 179l184 -54q-23 -34 -30 -90q-7 -54 16 -124q23 -71 80 -113q97 -72 243 -72q56 0 107 18q50 18 96 56q45 37 72 107q26 69 26 159v981q-245 12 -450 -18q209 -86 209 -261q0 -355 -531 -352v174q192 0 288 93q70 67 55 149q-15 83 -109 126 q-96 45 -242 30v155q522 3 971 49v-1126q1 -126 -38 -225q-41 -99 -109 -155q-68 -57 -156 -86q-85 -28 -189 -28q-250 0 -393 114q-143 113 -143 314z" />
<glyph unicode="&#x10e0;" horiz-adv-x="1906" d="M92 590q0 153 62 325q48 124 110 226q61 99 149 187q86 86 201 146q107 57 266 92q155 33 343 33v-155q-167 0 -313 -34q-148 -34 -284 -115q-138 -82 -229 -203q106 55 181 55q239 0 374 -289q138 289 379 289q218 0 351 -154t133 -403q0 -366 -355 -598h-280 q440 299 440 598q0 170 -81 286q-82 115 -208 115q-113 0 -198 -106q-84 -105 -86 -273l-3 -241l-184 -2v229q0 174 -85 283q-86 110 -197 110q-95 0 -162 -53t-97 -141q-30 -84 -32 -201q0 -320 438 -604h-289q-344 231 -344 598z" />
<glyph unicode="&#x10e1;" horiz-adv-x="1232" d="M133 559v1022h184v-1022q0 -190 86 -311q85 -121 224 -121q149 0 234 96q85 95 85 266q3 196 -149 336q-151 136 -154 240q-6 97 6 180h189q-14 -74 -17 -145q15 -62 166 -213q151 -154 154 -398q0 -245 -136 -381q-137 -137 -378 -137q-226 0 -360 161t-134 427z" />
<glyph unicode="&#x10e2;" horiz-adv-x="1566" d="M92 752q0 171 47 314q47 142 129 236q84 96 195 151q113 55 246 69l-25 75h186l-16 -75q137 -12 248 -67q112 -55 197 -151q84 -98 130 -237t46 -315q0 -358 -188 -570q-187 -213 -503 -213t-504 212t-188 571zM293 754q0 -284 136 -456q135 -173 355 -173q221 0 355 170 q133 169 133 457q0 272 -118 435t-300 189l31 -651h-207l31 649q-182 -29 -298 -188q-118 -160 -118 -432z" />
<glyph unicode="&#x10e3;" horiz-adv-x="1239" d="M66 463q0 121 81 248l185 -70q-68 -83 -68 -178q0 -79 30 -145q30 -67 78 -107q48 -41 106 -63q58 -23 114 -23q45 0 87 12t84 42q41 30 72 75q29 42 49 115q19 69 19 157v697q0 221 -184 221q-146 0 -146 -242v-211l-170 -2v213q0 242 -337 242v155q319 0 378 -215 q74 215 275 215q377 0 377 -376v-697q0 -141 -41 -250q-42 -110 -114 -174q-74 -66 -161 -97q-91 -32 -194 -32q-225 0 -373 134q-147 133 -147 356z" />
<glyph unicode="&#x10e4;" horiz-adv-x="1847" d="M72 1016q0 280 135 433q134 153 364 153q254 0 392 -185q108 170 317 170q108 0 193 -33q86 -33 140 -89t83 -127q28 -71 28 -152q0 -238 -213 -381q193 -102 193 -318q-6 -254 -182 -385q-178 -131 -492 -131q-385 0 -649 258l121 125q198 -204 528 -204q94 0 176 18 q82 17 149 54q69 37 109 100q41 65 45 149q0 241 -209 262v162q231 0 228 285q3 252 -248 252q-146 0 -227 -152q49 -147 49 -264q0 -161 -60 -286q-62 -125 -182 -198q-121 -73 -289 -73q-223 0 -361 158q-138 157 -138 399zM272 1014q0 -166 85 -284q84 -118 214 -118 q153 0 242 117q88 115 88 287q0 216 -80 323t-250 107q-137 0 -218 -111q-81 -113 -81 -321z" />
<glyph unicode="&#x10e5;" horiz-adv-x="1265" d="M92 397q0 101 90 254l183 -61q-72 -81 -72 -191q0 -106 94 -191t219 -85q72 0 131 21q57 20 103 65q44 44 69 118q23 72 25 175v499q0 53 -27 109q-30 58 -76 103q-50 47 -124 78q-77 30 -164 30q-93 0 -130 -45q-38 -47 -38 -164q3 -77 43 -160l-182 -47 q-60 135 -60 209q0 164 92 264q92 99 240 99q224 0 426 -172v286h188v-1089q0 -116 -32 -212q-31 -94 -83 -153t-120 -98q-67 -38 -138 -55q-71 -15 -143 -15q-100 0 -193 29q-94 30 -164 84q-72 52 -114 135q-43 82 -43 180z" />
<glyph unicode="&#x10e6;" horiz-adv-x="1867" d="M92 922q0 176 36 310q36 131 102 211q64 79 150 118q85 38 187 38q250 0 367 -266q126 266 366 266q224 0 350 -147q126 -148 126 -422q0 -265 -193 -518h-242q240 279 240 518q0 200 -75 307t-206 107q-62 0 -125 -54q-64 -55 -103 -137q-40 -81 -40 -161l-2 -269h-192 v269q0 85 -31 163q-31 77 -95 134q-64 55 -145 55q-107 0 -192 -117q-86 -119 -86 -405q0 -176 65 -318q64 -139 196 -244q130 -104 342 -159q212 -56 488 -56v-176q-270 0 -484 49q-216 49 -365 135t-248 207q-100 119 -145 261q-46 138 -46 301z" />
<glyph unicode="&#x10e7;" d="M92 367h205q0 -91 100 -167q100 -77 224 -77q313 0 313 442v168q-141 -141 -342 -141q-221 0 -360 154q-140 154 -140 389q0 242 232 456h276q-307 -237 -307 -481q0 -86 36 -165q36 -81 110 -137t167 -56q158 0 243 108q85 107 85 324v395h190l-2 -1014 q0 -275 -143 -436q-144 -160 -369 -160q-96 0 -183 26q-88 28 -146 70q-58 40 -103 95q-44 53 -65 107q-21 53 -21 100z" />
<glyph unicode="&#x10e8;" d="M20 1288v92q0 219 246 219q200 0 289 -153q77 153 242 153q327 0 327 -352v-708q-3 -568 -506 -568q-250 0 -387 156q-137 157 -137 440q0 249 140 404t374 155q189 0 326 -155v385q0 108 -150 129q-120 -21 -120 -109l10 -141l-228 2l11 139q0 88 -113 109 q-119 -21 -119 -121v-76h-205zM295 575q0 -448 323 -448q317 0 314 405q1 219 -85 330q-85 109 -239 109q-146 0 -229 -107q-84 -108 -84 -289z" />
<glyph unicode="&#x10e9;" horiz-adv-x="1255" d="M143 0v1196q0 190 106 296q107 107 271 107q202 0 323 -102q122 -102 122 -248h-193q0 201 -248 201q-98 0 -144 -63q-48 -64 -46 -183v-231q138 153 340 153q72 0 137 -16q67 -16 134 -55q66 -39 117 -96q50 -59 81 -148t31 -201q0 -356 -222 -618h-225q246 338 246 604 q0 187 -91 281t-245 94q-133 0 -219 -108q-86 -109 -86 -265v-598h-189z" />
<glyph unicode="&#x10ea;" horiz-adv-x="1413" d="M92 831q0 364 187 760h215q-201 -349 -201 -735q0 -327 125 -529q124 -202 334 -202q173 0 272 108q98 107 98 308q0 228 -211 243h-153v158h145q31 2 54 11q25 9 51 30q25 20 40 63q15 40 15 99q0 101 -148 162q-149 59 -149 284h170q3 -106 164 -190q162 -89 162 -230 q0 -29 -2 -59q-2 -23 -12 -59q-11 -38 -29 -63q-17 -24 -58 -58q-37 -31 -92 -60q98 -36 159 -109q62 -74 80 -162q18 -87 7 -181q-10 -90 -55 -175q-46 -84 -113 -136q-175 -138 -383 -138q-306 0 -489 228q-183 227 -183 632z" />
<glyph unicode="&#x10eb;" horiz-adv-x="1243" d="M72 559q0 275 137 432q137 156 377 156q198 0 340 -180v614h174v-1022q0 -276 -136 -431q-136 -157 -378 -157q-241 0 -377 157q-137 157 -137 431zM268 559q0 -200 86 -316t232 -116q150 0 240 116q89 116 89 316q-2 206 -89 319q-89 113 -240 113q-146 0 -232 -117 q-86 -118 -86 -315z" />
<glyph unicode="&#x10ec;" d="M143 539v708q0 352 328 352q165 0 242 -153q89 153 291 153q243 0 243 -219v-92h-205v76q0 100 -118 121q-113 -21 -113 -109l10 -139l-227 -2l10 141q0 88 -121 109q-149 -21 -149 -129v-385q137 155 325 155q235 0 375 -155t140 -404q0 -283 -137 -440 q-137 -156 -388 -156q-503 0 -506 568zM336 532q-3 -405 313 -405q324 0 324 448q0 180 -84 288t-230 108q-153 0 -238 -109q-86 -111 -85 -330z" />
<glyph unicode="&#x10ed;" horiz-adv-x="1214" d="M92 430q3 134 51 219l189 -55q-39 -76 -39 -164q0 -149 91 -227q92 -78 247 -78q130 0 211 83q80 83 80 247q0 169 -144 264q-143 95 -143 158h-166q-156 -1 -250 75q-94 75 -94 189q0 157 89 232q88 75 253 75h133v143h170v-143h295v-158h-295v-211q0 -142 176 -286 t176 -342q0 -222 -136 -351t-355 -129q-237 0 -388 128q-151 127 -151 331zM293 1147q0 -72 49 -100q49 -29 141 -29h119v272h-121q-55 0 -82 -4q-30 -4 -57 -18t-38 -43q-11 -31 -11 -78z" />
<glyph unicode="&#x10ee;" horiz-adv-x="1243" d="M143 559v1022h176l-2 -614q143 180 340 180q240 0 377 -156q137 -157 137 -432q0 -274 -137 -431q-136 -157 -377 -157t-377 157q-137 157 -137 431zM328 559q0 -201 90 -316q89 -116 239 -116q148 0 234 116t86 316q0 197 -86 315q-87 117 -234 117q-151 0 -240 -110 q-89 -112 -89 -322z" />
<glyph unicode="&#x10ef;" horiz-adv-x="1212" d="M92 424q0 107 53 254l179 -72q-37 -92 -37 -198t95 -195q94 -88 226 -88q138 0 229 83q89 83 89 228q0 115 -82 201q-84 87 -191 115q-102 24 -202 24l61 387l-317 39v174l340 -69l34 282h185l-58 -307l303 -39v-174l-329 70l-35 -219q139 -19 252 -92q110 -71 172 -177 q61 -104 61 -223q0 -200 -141 -328q-143 -129 -371 -129q-149 0 -266 62q-120 62 -184 165q-66 104 -66 226z" />
<glyph unicode="&#x10f0;" horiz-adv-x="1212" d="M92 383v133h199v-100q0 -80 29 -140q28 -58 80 -90q50 -32 108 -45q61 -14 127 -14q285 0 285 256q0 195 -111 195h-295v149h285q113 0 110 123q3 115 -110 115h-295v151h293q102 0 102 113q0 105 -205 114q-379 30 -379 259h187q0 -97 350 -127q248 -21 248 -232 q0 -137 -144 -196q154 -64 154 -201q0 -124 -147 -195q157 -106 157 -278q0 -188 -128 -295q-130 -107 -371 -107q-243 0 -386 110t-143 302z" />
<glyph unicode="&#x1c90;" horiz-adv-x="1202" d="M82 659q0 205 72 314l180 -72q-55 -129 -55 -270q0 -225 94 -364q95 -140 243 -140q122 0 215 131q93 130 93 328q0 286 -230 489q-231 199 -231 527l207 -3q-27 -226 211 -442q239 -218 239 -545q0 -142 -39 -264q-41 -122 -108 -204q-66 -81 -160 -127 q-92 -46 -197 -46q-242 0 -388 188t-146 500z" />
<glyph unicode="&#x1c91;" horiz-adv-x="1232" d="M82 559q0 261 129 407t362 167q27 144 -92 215q-121 70 -121 254h213q0 -86 95 -175q93 -87 65 -297q76 -12 149 -53q72 -42 134 -110q60 -67 98 -175q37 -105 37 -233q0 -276 -142 -431q-142 -157 -393 -157q-250 0 -392 157q-142 155 -142 431zM276 559q0 -201 91 -316 q90 -116 249 -116q157 0 249 116q91 115 91 316q0 185 -94 303q-95 119 -225 119q-175 0 -268 -113q-93 -114 -93 -309z" />
<glyph unicode="&#x1c92;" horiz-adv-x="1320" d="M82 549q0 234 146 377q147 144 429 166q82 3 138 -11q45 91 45 205q0 64 -61 112t-165 48q-106 0 -161 -36q-57 -38 -58 -95q0 -37 21 -98l-176 -23q-21 76 -21 127q0 124 112 203q113 78 283 78t283 -88q113 -89 113 -232q0 -135 -74 -248q304 -181 301 -485 q0 -168 -65 -298q-64 -130 -195 -205t-309 -75q-273 0 -429 161q-157 160 -157 417zM276 553q0 -428 392 -428q84 0 150 20t117 65q53 46 81 132q28 84 28 207q-2 81 -22 147q-20 64 -65 121q-43 55 -120 87q-74 30 -180 32q-203 -6 -292 -105q-89 -101 -89 -278z" />
<glyph unicode="&#x1c93;" horiz-adv-x="1931" d="M102 926q0 178 34 307q33 130 94 206t140 112q78 36 177 36q234 0 377 -143q113 158 393 158q242 0 377 -153t135 -443q0 -279 -137 -439q-136 -159 -375 -159q-246 0 -383 158t-137 440q0 128 57 280q-140 146 -307 146q-97 0 -170 -109q-76 -109 -76 -397 q0 -169 44 -303q44 -132 121 -220q78 -88 194 -144q117 -56 254 -80q134 -25 307 -25h176v-185h-164q-281 0 -497 69q-217 67 -355 195q-138 126 -208 301q-71 175 -71 392zM991 1006q0 -205 87 -325q86 -120 239 -120q145 0 228 120q83 121 83 325q0 216 -81 329 q-81 111 -230 111q-160 0 -242 -115q-84 -115 -84 -325z" />
<glyph unicode="&#x1c94;" horiz-adv-x="1245" d="M92 504q0 90 84 246l170 -70q-59 -83 -59 -174q0 -172 93 -276q93 -103 222 -103q144 0 228 94q83 95 83 248v678q0 145 -79 221t-216 76q-115 0 -182 -64t-67 -166q-3 -86 37 -159l-185 -56q-48 122 -51 215q2 74 29 139q27 67 81 123q52 55 142 90q88 33 199 33 q227 0 354 -123q127 -124 127 -333v-674q0 -224 -134 -360q-133 -136 -366 -136q-236 0 -372 144q-138 143 -138 387z" />
<glyph unicode="&#x1c95;" horiz-adv-x="1245" d="M92 438q0 157 64 275l174 -60q-37 -73 -37 -211q0 -148 97 -233q97 -86 231 -86q61 0 112 19q51 18 96 53q41 33 68 94q25 57 25 131v94q0 226 -222 266h-122v166h122q188 0 209 266q-1 103 -80 168q-77 64 -215 64q-143 0 -213 -61q-71 -62 -71 -154q0 -78 26 -150 l-184 -57q-20 51 -30 90q-11 40 -14 87q-4 48 9 90q11 40 44 91q32 50 83 97q131 122 350 122q210 0 352 -117q143 -119 144 -272q-3 -243 -242 -374q254 -95 254 -314v-94q0 -114 -40 -201q-41 -90 -110 -144q-68 -53 -160 -84q-90 -28 -196 -28q-244 0 -383 124 q-141 125 -141 343z" />
<glyph unicode="&#x1c96;" horiz-adv-x="1228" d="M10 1231q0 161 119 265q118 103 287 103q153 0 262 -77q108 -79 151 -209q18 -125 -8 -219q44 -19 91 -46q37 -24 83 -68q45 -44 74 -98q30 -59 49 -141q19 -83 19 -192q0 -263 -143 -421q-142 -157 -382 -157q-239 0 -381 157q-143 158 -143 421q0 209 90 340 q-85 66 -127 148q-41 80 -41 194zM190 1229q0 -136 97 -221q109 139 352 118q18 40 18 84q0 113 -70 177q-71 65 -169 65q-101 0 -165 -59q-63 -60 -63 -164zM283 549q0 -191 90 -306q90 -116 239 -116q147 0 239 116q91 115 91 306q0 196 -94 309q-95 113 -246 113 q-140 0 -229 -113q-90 -112 -90 -309z" />
<glyph unicode="&#x1c97;" horiz-adv-x="2025" d="M92 784q0 815 535 815q282 0 420 -319q141 322 383 322q140 0 237 -49t156 -148q58 -99 84 -233q26 -138 26 -318q0 -574 -325 -856h-244q375 273 375 842q0 116 -8 215q-7 89 -29 175q-20 79 -56 133q-34 51 -89 82q-54 30 -127 30q-154 0 -310 -361q39 -182 39 -330 q0 -813 -532 -813q-141 0 -241 56q-102 55 -167 162t-96 254q-31 146 -31 341zM289 784q0 -156 18 -275q18 -121 58 -206q39 -88 105 -131q66 -45 157 -45t158 46q65 45 106 132q38 85 58 206q18 119 18 273q0 319 -80 490q-81 170 -260 170t-258 -169q-80 -171 -80 -491z " />
<glyph unicode="&#x1c98;" horiz-adv-x="1193" d="M82 852q0 216 62 387q62 169 178 264q117 96 274 96q156 0 275 -96q118 -97 179 -264q62 -171 62 -387q0 -449 -170 -854h-221q192 488 192 891q0 151 -38 279q-37 124 -111 201q-73 75 -170 75q-96 0 -168 -74q-72 -72 -110 -199q-37 -124 -37 -282q0 -402 196 -891 h-223q-170 405 -170 854z" />
<glyph unicode="&#x1c99;" horiz-adv-x="1193" d="M41 428q0 170 59 299l179 -61q-39 -62 -39 -228q0 -121 91 -216q91 -97 216 -97q139 0 230 84q91 82 91 207v127q0 166 -68 240q-69 73 -210 73h-123v176h123q123 0 187 64q63 65 69 170q0 152 -264 327h311q136 -157 145 -323q0 -227 -211 -344q244 -124 244 -375v-139 q0 -75 -35 -153q-37 -79 -100 -142q-64 -64 -167 -105q-101 -41 -224 -41q-93 0 -175 27q-85 28 -142 73q-58 44 -102 104q-42 57 -64 124q-21 65 -21 129z" />
<glyph unicode="&#x1c9a;" horiz-adv-x="2471" d="M92 965q0 159 37 279q38 122 101 193q64 72 144 108t173 36q231 0 356 -248q68 269 332 269q239 0 334 -269q125 248 356 248q93 0 173 -34q80 -35 144 -100q63 -66 101 -177q37 -110 37 -254q0 -256 -213 -524h-264q280 283 280 524q0 102 -24 185q-24 82 -62 129 q-39 47 -83 71t-89 24q-127 0 -192 -87q-66 -88 -70 -251v-331h-193v331q-2 161 -66 260t-169 99q-117 0 -176 -98q-58 -98 -58 -275v-325h-194v325q0 167 -73 259q-74 93 -187 93q-87 0 -170 -98q-84 -101 -84 -356q0 -813 1163 -813h334v-185h-381q-406 0 -704 119 q-296 118 -455 343q-158 224 -158 530z" />
<glyph unicode="&#x1c9b;" horiz-adv-x="1296" d="M92 569q0 266 143 423q143 155 392 155q196 0 346 -156v201q0 125 -83 194q-83 68 -208 68q-160 0 -236 -43q-77 -47 -77 -106h-207q0 78 37 136q35 57 102 92q66 35 150 51t188 18q255 -2 389 -115q135 -114 135 -295v-623q0 -598 -516 -598q-269 0 -411 156 q-144 156 -144 442zM293 575q0 -218 88 -333t266 -115q326 0 326 442q0 422 -346 422q-158 0 -246 -109t-88 -307z" />
<glyph unicode="&#x1c9c;" horiz-adv-x="1296" d="M133 532v730q0 329 342 329h608v-170h-608q-151 0 -151 -164l-5 -286q156 176 349 176q249 0 393 -155q143 -157 143 -423q0 -283 -143 -441q-144 -157 -404 -157q-251 0 -387 147q-137 146 -137 414zM324 532q0 -192 88 -298q87 -107 245 -107q170 0 257 112 q87 111 87 326q0 204 -87 315t-246 111q-161 0 -253 -116q-91 -115 -91 -343z" />
<glyph unicode="&#x1c9d;" horiz-adv-x="1906" d="M92 821q0 495 133 637q132 141 332 141q262 0 395 -288q136 288 400 288q199 0 331 -141t132 -637q0 -516 -365 -839h-279q449 360 449 839q0 416 -80 520q-82 103 -188 103q-126 0 -214 -112q-90 -114 -91 -259l-3 -455h-184v453q0 143 -89 259q-90 114 -214 114 q-108 0 -188 -101q-82 -100 -82 -522q0 -493 448 -839h-278q-365 323 -365 839z" />
<glyph unicode="&#x1c9e;" horiz-adv-x="1214" d="M61 420q0 108 48 239l180 -51q-79 -228 45 -387q70 -94 250 -94q75 0 136 26q60 25 96 69q35 42 55 98q18 53 18 112q0 80 -39 157q-40 78 -100 125q-62 48 -123 48h-174v156h174q196 0 196 196q0 118 -207 195q-206 77 -206 282h221q0 -117 194 -209q193 -91 193 -254 q0 -111 -45 -176q-45 -63 -150 -116q269 -143 269 -404q0 -88 -33 -169q-33 -83 -94 -147q-61 -65 -160 -105q-98 -40 -221 -40q-132 0 -233 37q-103 37 -164 100q-64 65 -94 142q-32 81 -32 170z" />
<glyph unicode="&#x1c9f;" horiz-adv-x="1247" d="M74 401q0 74 43 179l184 -54q-23 -34 -30 -90q-7 -54 16 -124q23 -71 80 -113q97 -72 243 -72q56 0 107 18q50 18 96 56q45 37 72 107q26 69 26 159v981q-245 12 -450 -18q209 -86 209 -261q0 -355 -531 -352v174q192 0 288 93q70 67 55 149q-15 83 -109 126 q-96 45 -242 30v155q522 3 971 49v-1126q1 -126 -38 -225q-41 -99 -109 -155q-68 -57 -156 -86q-85 -28 -189 -28q-250 0 -393 114q-143 113 -143 314z" />
<glyph unicode="&#x1ca0;" horiz-adv-x="1906" d="M92 590q0 153 62 325q48 124 110 226q61 99 149 187q86 86 201 146q107 57 266 92q155 33 343 33v-155q-167 0 -313 -34q-148 -34 -284 -115q-138 -82 -229 -203q106 55 181 55q239 0 374 -289q138 289 379 289q218 0 351 -154t133 -403q0 -366 -355 -598h-280 q440 299 440 598q0 170 -81 286q-82 115 -208 115q-113 0 -198 -106q-84 -105 -86 -273l-3 -241l-184 -2v229q0 174 -85 283q-86 110 -197 110q-95 0 -162 -53t-97 -141q-30 -84 -32 -201q0 -320 438 -604h-289q-344 231 -344 598z" />
<glyph unicode="&#x1ca1;" horiz-adv-x="1232" d="M133 559v1022h184v-1022q0 -190 86 -311q85 -121 224 -121q149 0 234 96q85 95 85 266q3 196 -149 336q-151 136 -154 240q-6 97 6 180h189q-14 -74 -17 -145q15 -62 166 -213q151 -154 154 -398q0 -245 -136 -381q-137 -137 -378 -137q-226 0 -360 161t-134 427z" />
<glyph unicode="&#x1ca2;" horiz-adv-x="1566" d="M92 752q0 171 47 314q47 142 129 236q84 96 195 151q113 55 246 69l-25 75h186l-16 -75q137 -12 248 -67q112 -55 197 -151q84 -98 130 -237t46 -315q0 -358 -188 -570q-187 -213 -503 -213t-504 212t-188 571zM293 754q0 -284 136 -456q135 -173 355 -173q221 0 355 170 q133 169 133 457q0 272 -118 435t-300 189l31 -651h-207l31 649q-182 -29 -298 -188q-118 -160 -118 -432z" />
<glyph unicode="&#x1ca3;" horiz-adv-x="1239" d="M66 463q0 121 81 248l185 -70q-68 -83 -68 -178q0 -79 30 -145q30 -67 78 -107q48 -41 106 -63q58 -23 114 -23q45 0 87 12t84 42q41 30 72 75q29 42 49 115q19 69 19 157v697q0 221 -184 221q-146 0 -146 -242v-211l-170 -2v213q0 242 -337 242v155q319 0 378 -215 q74 215 275 215q377 0 377 -376v-697q0 -141 -41 -250q-42 -110 -114 -174q-74 -66 -161 -97q-91 -32 -194 -32q-225 0 -373 134q-147 133 -147 356z" />
<glyph unicode="&#x1ca4;" horiz-adv-x="1847" d="M72 1016q0 280 135 433q134 153 364 153q254 0 392 -185q108 170 317 170q108 0 193 -33q86 -33 140 -89t83 -127q28 -71 28 -152q0 -238 -213 -381q193 -102 193 -318q-6 -254 -182 -385q-178 -131 -492 -131q-385 0 -649 258l121 125q198 -204 528 -204q94 0 176 18 q82 17 149 54q69 37 109 100q41 65 45 149q0 241 -209 262v162q231 0 228 285q3 252 -248 252q-146 0 -227 -152q49 -147 49 -264q0 -161 -60 -286q-62 -125 -182 -198q-121 -73 -289 -73q-223 0 -361 158q-138 157 -138 399zM272 1014q0 -166 85 -284q84 -118 214 -118 q153 0 242 117q88 115 88 287q0 216 -80 323t-250 107q-137 0 -218 -111q-81 -113 -81 -321z" />
<glyph unicode="&#x1ca5;" horiz-adv-x="1265" d="M92 397q0 101 90 254l183 -61q-72 -81 -72 -191q0 -106 94 -191t219 -85q72 0 131 21q57 20 103 65q44 44 69 118q23 72 25 175v499q0 53 -27 109q-30 58 -76 103q-50 47 -124 78q-77 30 -164 30q-93 0 -130 -45q-38 -47 -38 -164q3 -77 43 -160l-182 -47 q-60 135 -60 209q0 164 92 264q92 99 240 99q224 0 426 -172v286h188v-1089q0 -116 -32 -212q-31 -94 -83 -153t-120 -98q-67 -38 -138 -55q-71 -15 -143 -15q-100 0 -193 29q-94 30 -164 84q-72 52 -114 135q-43 82 -43 180z" />
<glyph unicode="&#x1ca6;" horiz-adv-x="1867" d="M92 922q0 176 36 310q36 131 102 211q64 79 150 118q85 38 187 38q250 0 367 -266q126 266 366 266q224 0 350 -147q126 -148 126 -422q0 -265 -193 -518h-242q240 279 240 518q0 200 -75 307t-206 107q-62 0 -125 -54q-64 -55 -103 -137q-40 -81 -40 -161l-2 -269h-192 v269q0 85 -31 163q-31 77 -95 134q-64 55 -145 55q-107 0 -192 -117q-86 -119 -86 -405q0 -176 65 -318q64 -139 196 -244q130 -104 342 -159q212 -56 488 -56v-176q-270 0 -484 49q-216 49 -365 135t-248 207q-100 119 -145 261q-46 138 -46 301z" />
<glyph unicode="&#x1ca7;" d="M92 367h205q0 -91 100 -167q100 -77 224 -77q313 0 313 442v168q-141 -141 -342 -141q-221 0 -360 154q-140 154 -140 389q0 242 232 456h276q-307 -237 -307 -481q0 -86 36 -165q36 -81 110 -137t167 -56q158 0 243 108q85 107 85 324v395h190l-2 -1014 q0 -275 -143 -436q-144 -160 -369 -160q-96 0 -183 26q-88 28 -146 70q-58 40 -103 95q-44 53 -65 107q-21 53 -21 100z" />
<glyph unicode="&#x1ca8;" d="M20 1288v92q0 219 246 219q200 0 289 -153q77 153 242 153q327 0 327 -352v-708q-3 -568 -506 -568q-250 0 -387 156q-137 157 -137 440q0 249 140 404t374 155q189 0 326 -155v385q0 108 -150 129q-120 -21 -120 -109l10 -141l-228 2l11 139q0 88 -113 109 q-119 -21 -119 -121v-76h-205zM295 575q0 -448 323 -448q317 0 314 405q1 219 -85 330q-85 109 -239 109q-146 0 -229 -107q-84 -108 -84 -289z" />
<glyph unicode="&#x1ca9;" horiz-adv-x="1255" d="M143 0v1196q0 190 106 296q107 107 271 107q202 0 323 -102q122 -102 122 -248h-193q0 201 -248 201q-98 0 -144 -63q-48 -64 -46 -183v-231q138 153 340 153q72 0 137 -16q67 -16 134 -55q66 -39 117 -96q50 -59 81 -148t31 -201q0 -356 -222 -618h-225q246 338 246 604 q0 187 -91 281t-245 94q-133 0 -219 -108q-86 -109 -86 -265v-598h-189z" />
<glyph unicode="&#x1caa;" horiz-adv-x="1413" d="M92 831q0 364 187 760h215q-201 -349 -201 -735q0 -327 125 -529q124 -202 334 -202q173 0 272 108q98 107 98 308q0 228 -211 243h-153v158h145q31 2 54 11q25 9 51 30q25 20 40 63q15 40 15 99q0 101 -148 162q-149 59 -149 284h170q3 -106 164 -190q162 -89 162 -230 q0 -29 -2 -59q-2 -23 -12 -59q-11 -38 -29 -63q-17 -24 -58 -58q-37 -31 -92 -60q98 -36 159 -109q62 -74 80 -162q18 -87 7 -181q-10 -90 -55 -175q-46 -84 -113 -136q-175 -138 -383 -138q-306 0 -489 228q-183 227 -183 632z" />
<glyph unicode="&#x1cab;" horiz-adv-x="1243" d="M72 559q0 275 137 432q137 156 377 156q198 0 340 -180v614h174v-1022q0 -276 -136 -431q-136 -157 -378 -157q-241 0 -377 157q-137 157 -137 431zM268 559q0 -200 86 -316t232 -116q150 0 240 116q89 116 89 316q-2 206 -89 319q-89 113 -240 113q-146 0 -232 -117 q-86 -118 -86 -315z" />
<glyph unicode="&#x1cac;" d="M143 539v708q0 352 328 352q165 0 242 -153q89 153 291 153q243 0 243 -219v-92h-205v76q0 100 -118 121q-113 -21 -113 -109l10 -139l-227 -2l10 141q0 88 -121 109q-149 -21 -149 -129v-385q137 155 325 155q235 0 375 -155t140 -404q0 -283 -137 -440 q-137 -156 -388 -156q-503 0 -506 568zM336 532q-3 -405 313 -405q324 0 324 448q0 180 -84 288t-230 108q-153 0 -238 -109q-86 -111 -85 -330z" />
<glyph unicode="&#x1cad;" horiz-adv-x="1214" d="M92 430q3 134 51 219l189 -55q-39 -76 -39 -164q0 -149 91 -227q92 -78 247 -78q130 0 211 83q80 83 80 247q0 169 -144 264q-143 95 -143 158h-166q-156 -1 -250 75q-94 75 -94 189q0 157 89 232q88 75 253 75h133v143h170v-143h295v-158h-295v-211q0 -142 176 -286 t176 -342q0 -222 -136 -351t-355 -129q-237 0 -388 128q-151 127 -151 331zM293 1147q0 -72 49 -100q49 -29 141 -29h119v272h-121q-55 0 -82 -4q-30 -4 -57 -18t-38 -43q-11 -31 -11 -78z" />
<glyph unicode="&#x1cae;" horiz-adv-x="1243" d="M143 559v1022h176l-2 -614q143 180 340 180q240 0 377 -156q137 -157 137 -432q0 -274 -137 -431q-136 -157 -377 -157t-377 157q-137 157 -137 431zM328 559q0 -201 90 -316q89 -116 239 -116q148 0 234 116t86 316q0 197 -86 315q-87 117 -234 117q-151 0 -240 -110 q-89 -112 -89 -322z" />
<glyph unicode="&#x1caf;" horiz-adv-x="1212" d="M92 424q0 107 53 254l179 -72q-37 -92 -37 -198t95 -195q94 -88 226 -88q138 0 229 83q89 83 89 228q0 115 -82 201q-84 87 -191 115q-102 24 -202 24l61 387l-317 39v174l340 -69l34 282h185l-58 -307l303 -39v-174l-329 70l-35 -219q139 -19 252 -92q110 -71 172 -177 q61 -104 61 -223q0 -200 -141 -328q-143 -129 -371 -129q-149 0 -266 62q-120 62 -184 165q-66 104 -66 226z" />
<glyph unicode="&#x1cb0;" horiz-adv-x="1212" d="M92 383v133h199v-100q0 -80 29 -140q28 -58 80 -90q50 -32 108 -45q61 -14 127 -14q285 0 285 256q0 195 -111 195h-295v149h285q113 0 110 123q3 115 -110 115h-295v151h293q102 0 102 113q0 105 -205 114q-379 30 -379 259h187q0 -97 350 -127q248 -21 248 -232 q0 -137 -144 -196q154 -64 154 -201q0 -124 -147 -195q157 -106 157 -278q0 -188 -128 -295q-130 -107 -371 -107q-243 0 -386 110t-143 302z" />
<glyph unicode="&#x2000;" horiz-adv-x="908" />
<glyph unicode="&#x2001;" horiz-adv-x="1817" />
<glyph unicode="&#x2002;" horiz-adv-x="908" />
<glyph unicode="&#x2003;" horiz-adv-x="1817" />
<glyph unicode="&#x2004;" horiz-adv-x="605" />
<glyph unicode="&#x2005;" horiz-adv-x="454" />
<glyph unicode="&#x2006;" horiz-adv-x="302" />
<glyph unicode="&#x2007;" horiz-adv-x="302" />
<glyph unicode="&#x2008;" horiz-adv-x="227" />
<glyph unicode="&#x2009;" horiz-adv-x="363" />
<glyph unicode="&#x200a;" horiz-adv-x="100" />
<glyph unicode="&#x202f;" horiz-adv-x="363" />
<glyph unicode="&#x205f;" horiz-adv-x="454" />
<glyph unicode="&#x20be;" horiz-adv-x="1679" d="M90 801q0 267 113 467q133 232 393 303v246h156v-220q21 0 39 2h38q34 0 78 -4v222h158v-246q183 -59 297 -182q102 -113 160 -281q47 -147 47 -307h-193q0 214 -82 368q-84 160 -229 224v-590h-158v633q-75 6 -78 6q-2 0 -77 -6v-633h-156v590q-143 -61 -229 -219 q-84 -158 -84 -373q0 -289 145 -467q142 -174 393 -174v-2h652v-156h-1334v150h285q-170 91 -256 276q-78 166 -78 373z" />
<glyph unicode="&#x25fc;" horiz-adv-x="500" d="M0 0z" />
<glyph horiz-adv-x="682" />
<glyph horiz-adv-x="0" />
</font>
</defs>
</svg>
