<?xml version="1.0" standalone="no"?>
<!DOCTYPE svg PUBLIC "-//W3C//DTD SVG 1.1//EN" "http://www.w3.org/Graphics/SVG/1.1/DTD/svg11.dtd" >
<svg xmlns="http://www.w3.org/2000/svg" xmlns:xlink="http://www.w3.org/1999/xlink" version="1.1">
<metadata></metadata>
<defs>
<font id="bpg_le_studio_02_capsregular" horiz-adv-x="1478" >
<font-face units-per-em="2048" ascent="1516" descent="-532" />
<missing-glyph horiz-adv-x="686" />
<glyph unicode="&#xd;" horiz-adv-x="569" />
<glyph unicode=" "  horiz-adv-x="686" />
<glyph unicode="&#x09;" horiz-adv-x="686" />
<glyph unicode="&#xa0;" horiz-adv-x="686" />
<glyph unicode="!" horiz-adv-x="606" d="M221 1462h164v-1083h-127v696zM215 0v225h176v-225h-176z" />
<glyph unicode="&#x22;" horiz-adv-x="833" d="M207 950v512h115v-512h-115zM512 950v512h115v-512h-115z" />
<glyph unicode="#" horiz-adv-x="1368" d="M168 463v90h246l45 315h-234v90h246l66 463h102l-66 -463h291l66 463h102l-65 -463h233v-90h-246l-45 -315h234v-90h-246l-66 -463h-102l66 463h-291l-66 -463h-102l65 463h-233zM516 553h291l45 315h-291z" />
<glyph unicode="$" horiz-adv-x="1368" d="M47 469h152q0 -99 34 -164q32 -66 92 -109t136 -62q75 -20 168 -28v560q-115 19 -199 38q-97 21 -173 62q-74 40 -121 108q-46 65 -46 170q0 112 46 188q48 79 121 124q78 48 172 70q98 23 200 24v125h114v-125q102 -6 196 -31t169 -76q74 -51 120 -132q45 -79 50 -197 h-152q-6 79 -38 134q-32 53 -84 88q-52 34 -118 52q-71 17 -143 23v-523q157 -20 266 -51q108 -31 179 -78q69 -46 101 -109q32 -64 32 -142q0 -127 -51 -211t-134 -134q-81 -50 -185 -73q-106 -22 -208 -23v-198h-114v198q-122 6 -231 35q-106 28 -185 89q-78 59 -122 151 q-44 93 -44 227zM254 1059q0 -61 30 -102q28 -41 81 -70q54 -30 119 -46q68 -18 145 -30v500q-174 -6 -274 -67q-101 -62 -101 -185zM743 106q78 0 153 15q71 13 133 46q59 31 93 84q35 53 35 130q0 53 -21 95q-23 42 -71 76q-49 34 -128 58q-81 23 -194 39v-543z" />
<glyph unicode="%" horiz-adv-x="1972" d="M127 1053q0 99 28 173q27 74 74 124q46 49 113 75q65 25 143 25q77 0 143 -25q67 -26 113 -75t75 -124q28 -74 28 -173t-28 -173t-75 -124q-46 -49 -113 -75q-69 -26 -143 -26q-77 0 -143 26q-67 26 -113 75q-48 51 -74 124q-28 72 -28 173zM254 1053q0 -141 60 -218 t171 -77q110 0 172 77q60 77 60 218t-60 218q-62 77 -172 77q-111 0 -171 -77t-60 -218zM1128 365q0 99 28 173q29 75 75 124t113 75q63 25 143 25q77 0 143 -25q67 -26 113 -75t75 -124q27 -75 27 -173t-27 -173q-28 -74 -75 -124q-45 -48 -113 -76q-66 -25 -143 -25 q-80 0 -143 25q-68 28 -113 76q-47 50 -75 124q-28 72 -28 173zM1255 365q0 -142 61 -218q60 -77 171 -77t171 77q60 76 60 218q0 141 -60 218q-61 76 -171 76q-111 0 -171 -76q-61 -76 -61 -218zM436 -33l975 1483h121l-975 -1483h-121z" />
<glyph unicode="&#x26;" horiz-adv-x="1593" d="M145 403q0 77 24 138t73 113q50 51 126 96q74 43 183 88q-81 72 -133 147q-51 72 -51 174q0 66 26 123q25 55 71 95q47 41 113 63q65 22 146 22q101 0 168 -27q68 -29 109 -71q42 -43 61 -95q18 -52 18 -104q0 -71 -26 -126q-27 -54 -70 -97q-42 -42 -97 -74 q-57 -33 -112 -57l449 -424q16 22 30 56q9 21 23 67q9 30 16 68q7 35 8 55h140q0 -33 -7 -71t-21 -86q-14 -49 -35 -92t-54 -89l313 -295h-206l-191 182q-78 -97 -221 -156q-142 -59 -320 -59q-138 0 -242 33q-103 33 -173 92q-69 57 -104 138q-34 78 -34 173zM297 395 q0 -57 24 -111q22 -53 73 -97q48 -41 127 -67q78 -26 186 -26q130 0 232 37q104 38 204 139l-506 480q-174 -66 -257 -149t-83 -206zM506 1165q0 -20 5 -45q4 -20 23 -53q15 -29 53 -73q36 -42 97 -103q134 57 196 123q60 64 60 143q0 72 -53 125t-176 53q-39 0 -76 -12 q-36 -11 -65 -33q-30 -24 -46 -54q-18 -32 -18 -71z" />
<glyph unicode="'" horiz-adv-x="569" d="M227 950v512h115v-512h-115z" />
<glyph unicode="(" horiz-adv-x="720" d="M168 537q0 133 27 252q25 114 65 220q38 98 86 183q42 75 88 141q31 45 70 92q25 29 33 37h114q-34 -48 -107 -157q-59 -89 -108 -202q-47 -108 -83 -254q-34 -137 -34 -312t34 -312q36 -146 83 -255q50 -112 108 -201q63 -96 107 -158h-114q-9 9 -33 38q-39 47 -70 92 q-49 71 -88 140q-49 86 -86 184q-40 102 -65 220q-27 119 -27 252z" />
<glyph unicode=")" horiz-adv-x="720" d="M70 -389q61 87 108 158q56 84 107 201q47 109 83 255q33 139 33 312t-33 312q-36 146 -83 254q-51 117 -107 202q-54 82 -108 157h114q8 -8 33 -37q39 -47 70 -92q46 -66 88 -141q48 -85 86 -183q39 -103 66 -220q26 -121 26 -252t-26 -252q-28 -121 -66 -220 q-37 -98 -86 -184q-39 -69 -88 -140q-31 -45 -70 -92q-24 -29 -33 -38h-114z" />
<glyph unicode="*" horiz-adv-x="872" d="M78 1186l41 100l260 -98v274h115v-274l260 98l41 -100l-271 -103l189 -211l-78 -73l-199 223l-198 -223l-78 73l188 211z" />
<glyph unicode="+" horiz-adv-x="1228" d="M96 467v102h467v467h103v-467h467v-102h-467v-467h-103v467h-467z" />
<glyph unicode="," horiz-adv-x="569" d="M178 -209q60 28 77 80q15 51 15 129h-73v225h176v-229q0 -127 -55 -194q-56 -66 -140 -89v78z" />
<glyph unicode="-" horiz-adv-x="909" d="M143 485v152h623v-152h-623z" />
<glyph unicode="." horiz-adv-x="569" d="M197 0v225h176v-225h-176z" />
<glyph unicode="/" horiz-adv-x="833" d="M8 -37l703 1536h114l-702 -1536h-115z" />
<glyph unicode="0" horiz-adv-x="1368" d="M86 707q0 194 44 335q44 140 123 231q78 90 189 134q108 43 242 43q132 0 242 -43q111 -44 189 -134q79 -91 123 -231q44 -143 44 -335q0 -191 -44 -332q-43 -138 -123 -230q-79 -91 -189 -135q-110 -43 -242 -43q-134 0 -242 43q-110 44 -189 135q-80 92 -123 230 q-44 141 -44 332zM238 707q0 -132 23 -247q23 -113 74 -194q53 -83 137 -127q86 -45 212 -45t211 45q86 45 138 127q53 83 75 194q22 109 22 247t-22 249q-22 112 -75 195q-52 82 -138 127t-211 45q-126 0 -212 -45q-84 -44 -137 -127q-51 -80 -74 -195q-23 -117 -23 -249z " />
<glyph unicode="1" horiz-adv-x="909" d="M41 1065v115h100q84 0 151 8q60 7 105 37q44 29 69 82q25 52 42 143h127v-1450h-152v1065h-442z" />
<glyph unicode="2" horiz-adv-x="1368" d="M106 0q6 63 25 127q20 67 71 136q54 71 148 146q95 76 260 162q118 61 205 114q83 49 137 100q53 50 75 103t22 126q0 160 -94 235q-95 74 -269 74q-122 0 -196 -34q-77 -35 -120 -88q-45 -56 -61 -123q-19 -73 -20 -142h-152q0 136 39 233t111 160q71 62 173 92 q102 29 228 29q145 0 244 -39q98 -39 158 -102q60 -66 85 -141q25 -76 25 -156q0 -92 -27 -161q-28 -68 -75 -121q-43 -48 -112 -95q-63 -42 -140 -84q-165 -91 -251 -141q-100 -59 -160 -103q-64 -47 -94 -84q-33 -41 -46 -84h922v-139h-1111z" />
<glyph unicode="3" horiz-adv-x="1368" d="M102 461h152q8 -201 122 -284q113 -83 320 -83q114 0 191 27q75 25 122 69q46 43 65 98q18 54 18 109q0 91 -31 147q-32 57 -85 89q-55 34 -125 44q-74 11 -151 11h-122v127h98q84 0 151 12q67 11 113 39q47 27 72 73q24 47 24 118q0 135 -95 201q-95 65 -249 65 q-110 0 -185 -25q-77 -26 -125 -72q-48 -47 -69 -110q-22 -63 -22 -143h-152q1 95 35 183q33 86 101 153q69 66 171 103q105 38 246 38q92 0 182 -21q91 -23 159 -68q69 -47 112 -122q43 -76 43 -182q0 -50 -16 -98q-16 -49 -51 -90q-34 -40 -84 -67q-49 -28 -115 -36v-4 q68 -6 126 -33t101 -73q44 -47 69 -110t25 -145q0 -121 -45 -203q-45 -83 -123 -134q-75 -50 -181 -75q-101 -22 -220 -22q-284 0 -427 126q-144 127 -145 368z" />
<glyph unicode="4" horiz-adv-x="1368" d="M86 356v140l776 954h133v-967h271v-127h-271v-356h-139v356h-770zM238 483h618v754h-4z" />
<glyph unicode="5" horiz-adv-x="1368" d="M100 408h152q27 -155 125 -235q97 -79 291 -79q89 0 164 22q76 21 132 67q57 48 88 115q31 68 31 165q0 174 -110 270q-111 96 -316 96q-78 0 -141 -17q-60 -16 -105 -44q-46 -29 -74 -55q-30 -29 -48 -51l-142 6l144 749h854v-127h-739l-101 -469l4 -4q50 48 146 94 q95 45 225 45q132 0 237 -35q104 -36 174 -100q69 -63 107 -156q37 -90 37 -202q0 -80 -25 -165q-26 -88 -90 -161q-65 -74 -174 -122q-110 -48 -278 -48q-268 0 -405 119q-137 118 -163 322z" />
<glyph unicode="6" horiz-adv-x="1368" d="M113 659q0 181 34 324q33 145 105 249q71 102 184 161q111 57 264 57q131 0 229 -32q94 -31 158 -83q63 -52 94 -117q30 -65 38 -137h-152q-11 112 -98 177q-89 65 -269 65q-105 0 -186 -34q-82 -34 -139 -109q-58 -76 -88 -196q-30 -116 -35 -294l4 -4q15 30 55 83 q32 43 89 86q49 38 128 68q74 27 172 27q123 0 228 -32q100 -32 175 -95q72 -61 113 -155q39 -93 39 -211q0 -121 -44 -214q-42 -88 -118 -152q-75 -61 -176 -93q-100 -31 -217 -31q-130 0 -236 36q-108 36 -186 117q-78 79 -122 213q-43 130 -43 326zM289 463 q0 -65 23 -131q23 -67 72 -119q50 -53 128 -86t188 -33q86 0 158 25q74 24 128 72q54 47 86 115q32 69 32 153q0 75 -27 143q-28 66 -79 115q-53 50 -127 78q-75 28 -171 28q-124 0 -204 -36q-80 -38 -126 -91q-47 -56 -63 -118q-18 -64 -18 -115z" />
<glyph unicode="7" horiz-adv-x="1214" d="M55 1278v139h1075v-139q-64 -57 -159 -172q-95 -114 -194 -283q-96 -163 -179 -374q-82 -208 -117 -449h-164q19 175 91 366q69 185 167 360q95 172 204 318q107 143 206 234h-930z" />
<glyph unicode="8" horiz-adv-x="1368" d="M98 395q0 103 38 173q37 68 92 111q51 41 111 64q56 20 101 31v4q-18 5 -75 25q-49 17 -90 50q-44 35 -75 88q-32 55 -32 138q0 58 22 123q21 65 80 121q58 55 157 91t257 36q155 0 256 -36t159 -91q57 -54 80 -120q21 -66 21 -124q0 -85 -31 -138q-30 -52 -76 -88 q-41 -33 -90 -50q-57 -20 -75 -25v-4q45 -11 101 -31q59 -23 112 -64q54 -43 91 -110q38 -70 38 -174q0 -73 -26 -149q-27 -76 -95 -138q-67 -63 -180 -102t-285 -39t-284 39t-180 102q-68 62 -95 138q-27 75 -27 149zM250 395q0 -81 33 -136q31 -54 91 -93q58 -38 138 -54 q80 -18 172 -18t172 18q81 17 139 54t91 93q32 56 32 136q0 83 -33 141q-34 58 -93 97q-59 38 -139 58q-79 18 -169 18t-169 -18q-81 -20 -138 -58q-60 -39 -93 -97q-34 -58 -34 -141zM319 1071q0 -105 90 -169q88 -66 275 -66q186 0 276 66q89 65 89 169q0 75 -32 124 t-84 77q-51 28 -117 40q-69 11 -132 11t-131 -11q-67 -12 -118 -40q-52 -28 -84 -77t-32 -124z" />
<glyph unicode="9" horiz-adv-x="1368" d="M113 961q0 121 44 214q43 91 119 153q71 60 176 92q100 30 216 30q129 0 237 -36q106 -36 186 -116q77 -80 121 -214q43 -132 43 -326q0 -178 -33 -323q-35 -147 -106 -249q-73 -104 -183 -161q-112 -58 -265 -58q-132 0 -228 32q-96 31 -158 83q-63 51 -94 118 q-32 67 -38 136h151q11 -112 98 -176q89 -66 269 -66q107 0 188 34q82 34 139 109q55 73 87 195q29 119 34 295l-4 4q-15 -30 -55 -83q-31 -42 -88 -86q-52 -39 -128 -67q-74 -28 -173 -28q-125 0 -227 33q-102 31 -175 95q-72 60 -113 155q-40 90 -40 211zM264 958 q0 -79 28 -144q27 -66 79 -115q52 -50 126 -77q72 -28 171 -28q127 0 205 37q79 37 125 91q46 53 64 117q17 63 17 115q0 67 -22 132q-22 64 -73 118q-50 53 -128 86t-188 33q-84 0 -158 -24q-74 -26 -128 -72q-54 -47 -86 -115q-32 -69 -32 -154z" />
<glyph unicode=":" horiz-adv-x="569" d="M197 811v225h176v-225h-176zM197 0v225h176v-225h-176z" />
<glyph unicode=";" horiz-adv-x="569" d="M178 -209q60 28 77 80q15 51 15 129h-73v225h176v-229q0 -127 -55 -194q-56 -66 -140 -89v78zM197 811v225h176v-225h-176z" />
<glyph unicode="&#x3c;" horiz-adv-x="1228" d="M96 461v114l1037 478v-115l-910 -420l910 -420v-114z" />
<glyph unicode="=" horiz-adv-x="1228" d="M96 666v102h1037v-102h-1037zM96 268v103h1037v-103h-1037z" />
<glyph unicode="&#x3e;" horiz-adv-x="1228" d="M96 -16v114l910 420l-910 420v115l1037 -478v-114z" />
<glyph unicode="?" horiz-adv-x="1327" d="M111 1006q0 100 33 190q31 90 98 158q63 66 166 106q101 39 233 39q99 0 197 -24q99 -26 170 -77q74 -53 118 -131q45 -79 45 -190q0 -70 -17 -124q-16 -51 -53 -97q-38 -47 -91 -89q-63 -50 -131 -97q-65 -45 -105 -80q-37 -32 -54 -62q-17 -29 -22 -65q-4 -31 -4 -84 h-139q0 80 6 128q6 47 33 88q25 37 80 83q41 34 149 115q23 17 75 58q36 29 63 60q28 34 43 72q16 39 16 94q0 66 -28 118q-27 50 -80 89q-53 38 -121 57q-69 19 -150 19q-99 0 -171 -26q-70 -27 -117 -74q-46 -47 -67 -113q-22 -66 -24 -141h-151zM537 0v225h176v-225h-176 z" />
<glyph unicode="@" horiz-adv-x="1638" d="M90 731q0 162 61 300q61 141 165 244q102 102 243 164q140 60 299 60q143 0 269 -48t220 -133q94 -86 147 -203q54 -119 54 -255q0 -122 -43 -227q-43 -107 -111 -186q-71 -81 -153 -127q-84 -48 -164 -48q-55 0 -95 34t-40 108h-4q-20 -23 -47 -47q-26 -25 -61 -46 q-31 -20 -77 -35q-44 -14 -91 -14q-65 0 -118 24q-51 22 -88 65q-35 41 -55 98t-20 119q0 106 36 215q36 108 103 196q64 86 158 143q92 54 205 54q72 0 131 -38t94 -136l49 137h115l-203 -610q-25 -71 -25 -123t54 -54q64 0 126 49q62 48 111 123q47 69 80 163 q31 87 31 169q0 125 -49 224q-50 101 -130 171t-187 109q-106 39 -222 39q-145 0 -265 -55q-122 -56 -211 -149q-90 -95 -139 -216q-50 -124 -50 -258q0 -140 52 -263q53 -125 142 -216q92 -94 211 -145q122 -54 260 -54q81 0 160 21q77 19 152 58q67 36 132 91 q60 53 101 119h115q-49 -88 -121 -157q-69 -67 -158 -119q-87 -50 -183 -77q-99 -26 -198 -26q-166 0 -305 62q-142 62 -243 166q-102 102 -161 243t-59 297zM508 588q0 -98 39 -155q39 -58 131 -58q80 0 147 52q67 53 114 130q47 76 76 165q27 87 27 159q0 104 -37 153 t-131 49q-80 0 -147 -49q-67 -50 -117 -123q-50 -75 -75 -162q-27 -87 -27 -161z" />
<glyph unicode="A" d="M-12 0l663 1462h176l664 -1462h-176l-195 444h-770l-198 -444h-164zM412 584h647l-322 727z" />
<glyph unicode="B" horiz-adv-x="1517" d="M135 0v1462h832q107 0 184 -28t127 -78q49 -49 73 -117q23 -69 23 -145q0 -106 -60 -194q-62 -88 -192 -120v-4q146 -22 229 -120q81 -98 81 -238q0 -115 -44 -195q-45 -79 -114 -129q-68 -48 -156 -71q-87 -23 -170 -23h-813zM287 139h637q76 0 136 16q63 15 108 49 q47 35 73 86q27 52 27 128q0 78 -23 132q-23 50 -65 83q-39 31 -97 43q-57 12 -122 12h-674v-549zM287 827h600q154 0 245 58q91 57 91 202q0 132 -80 185q-79 51 -205 51h-651v-496z" />
<glyph unicode="C" horiz-adv-x="1669" d="M84 731q0 85 18 173q16 88 56 175t100 162t148 134q84 56 200 91q112 33 256 33q121 0 239 -28q119 -28 219 -92q99 -65 168 -165q69 -104 85 -245h-152q-17 107 -68 178q-53 74 -128 122q-76 48 -170 70q-95 21 -193 21q-134 0 -248 -38t-195 -117q-81 -80 -126 -196 q-45 -119 -45 -278q0 -124 34 -235q33 -112 107 -201q72 -87 191 -140q117 -53 282 -53q129 0 230 32q97 31 168 92q68 57 112 143q42 81 62 188h151q-12 -124 -67 -231q-55 -109 -149 -189q-95 -81 -221 -127q-129 -47 -286 -47q-179 0 -322 55q-146 54 -246 153 q-101 99 -155 242q-55 141 -55 318z" />
<glyph unicode="D" horiz-adv-x="1593" d="M135 0v1462h711q320 0 483 -193q164 -194 164 -538q0 -156 -40 -288q-42 -137 -119 -232q-81 -99 -195 -154q-117 -57 -271 -57h-733zM287 139h553q99 0 187 30q89 30 156 99q65 66 106 182q40 111 40 281q0 291 -117 442q-118 150 -372 150h-553v-1184z" />
<glyph unicode="E" horiz-adv-x="1402" d="M160 0v1462h1163v-139h-1012v-496h975v-139h-975v-549h1028v-139h-1179z" />
<glyph unicode="F" horiz-adv-x="1251" d="M135 0v1462h1096v-139h-944v-496h897v-139h-897v-688h-152z" />
<glyph unicode="G" horiz-adv-x="1744" d="M94 731q0 167 55 307q54 140 156 243q99 102 245 161q144 57 327 57q155 0 278 -40q123 -41 213 -108q92 -70 146 -160q56 -91 69 -192h-164q-22 91 -74 161q-51 69 -122 113q-72 44 -160 66q-89 21 -186 21q-148 0 -265 -44q-116 -44 -194 -126q-79 -84 -119 -199 q-41 -118 -41 -260q0 -295 149 -462t441 -167q165 0 276 43q112 44 183 115q72 73 109 164t54 190h-536v140h676v-754h-117l-20 276h-5q-58 -82 -117 -139q-65 -60 -136 -98q-72 -38 -161 -58q-87 -18 -194 -18q-188 0 -328 56q-142 55 -240 156t-147 243q-51 141 -51 313z " />
<glyph unicode="H" horiz-adv-x="1630" d="M135 0v1462h152v-618h1056v618h152v-1462h-152v705h-1056v-705h-152z" />
<glyph unicode="I" horiz-adv-x="454" d="M152 0v1462h151v-1462h-151z" />
<glyph unicode="J" horiz-adv-x="1138" d="M51 479h152v-53q0 -160 75 -248q73 -88 248 -88q74 0 137 17q61 17 102 56q43 42 65 110q22 67 22 178v1011h152v-1052q0 -96 -29 -180q-29 -83 -89 -142q-63 -60 -152 -92q-92 -33 -216 -33q-115 0 -191 25q-80 27 -131 68q-53 42 -81 97q-30 58 -43 112q-15 57 -18 113 t-3 101z" />
<glyph unicode="K" horiz-adv-x="1517" d="M160 0v1462h151v-790l944 790h220l-725 -604l774 -858h-215l-678 756l-320 -262v-494h-151z" />
<glyph unicode="L" horiz-adv-x="1214" d="M135 0v1462h152v-1323h927v-139h-1079z" />
<glyph unicode="M" horiz-adv-x="2009" d="M135 0v1462h221l652 -1272l651 1272h215v-1462h-152v1264h-4l-645 -1264h-139l-643 1266h-4v-1266h-152z" />
<glyph unicode="N" horiz-adv-x="1630" d="M135 0v1462h182l1022 -1249h4v1249h152v-1462h-176l-1028 1249h-4v-1249h-152z" />
<glyph unicode="O" horiz-adv-x="1744" d="M78 731q0 193 66 337q64 142 176 241q110 97 254 143q144 47 298 47t300 -47q142 -46 254 -143q111 -99 176 -241q65 -145 65 -337q0 -194 -65 -338q-66 -143 -176 -239q-111 -97 -254 -144q-146 -47 -300 -47q-155 0 -299 47t-253 144q-111 96 -176 239q-66 143 -66 338 zM242 731q0 -164 53 -284t141 -196q90 -78 202 -113q114 -36 234 -36q121 0 235 36q112 35 202 113q88 76 141 196t53 284q0 165 -53 285t-141 196t-202 112t-235 36q-122 0 -234 -36q-114 -36 -202 -112t-141 -196t-53 -285z" />
<glyph unicode="P" horiz-adv-x="1441" d="M160 0v1462h788q86 0 164 -22q79 -22 142 -73q59 -48 98 -130q37 -78 37 -197q0 -212 -130 -318q-131 -108 -378 -108h-570v-614h-151zM311 754h586q93 0 158 21q62 19 101 58q38 37 54 90q15 53 15 117q0 82 -21 137q-23 55 -62 87q-43 33 -94 46q-53 13 -120 13h-617 v-569z" />
<glyph unicode="Q" horiz-adv-x="1744" d="M78 731q0 193 66 337q64 142 176 241q110 97 254 143q144 47 298 47t300 -47q142 -46 254 -143q111 -99 176 -241q65 -145 65 -337q0 -207 -70 -351q-70 -147 -190 -239l219 -170l-80 -100l-252 195q-95 -53 -199 -78t-223 -25q-155 0 -299 47t-253 144q-112 97 -176 240 q-66 142 -66 337zM242 731q0 -164 53 -284t141 -196q90 -78 202 -113q114 -36 234 -36q78 0 152 15q72 13 141 47l-190 147l80 101l229 -176q98 74 159 195q60 120 60 300q0 165 -53 285t-141 196t-202 112t-235 36q-122 0 -234 -36q-114 -36 -202 -112t-141 -196t-53 -285z " />
<glyph unicode="R" horiz-adv-x="1517" d="M160 0v1462h796q92 0 179 -18q87 -20 153 -64q66 -45 105 -121q39 -77 39 -192q0 -59 -18 -115q-20 -59 -55 -104q-37 -48 -90 -83q-55 -35 -124 -52v-4q76 -12 125 -43q50 -32 78 -82q27 -50 41 -121q11 -67 16 -160q1 -14 5 -82q3 -47 9 -92q6 -48 16 -81q9 -36 21 -48 h-164q-21 24 -28 100q-10 81 -11 199q-1 92 -22 163q-21 66 -64 106t-108 58q-68 17 -160 17h-588v-643h-151zM311 782h641q58 0 119 14q57 14 102 45q45 33 70 87t25 139q0 81 -28 130q-29 51 -71 78t-97 38q-51 10 -105 10h-656v-541z" />
<glyph unicode="S" horiz-adv-x="1368" d="M47 483h152q10 -115 52 -188q42 -74 109 -117q64 -42 156 -59q93 -17 195 -17q80 0 162 14q79 13 143 46q62 33 102 89q39 55 39 142q0 85 -46 135q-48 51 -121 80q-79 30 -170 46q-28 5 -60 10t-72 11.5t-63 10.5q-259 40 -398 127q-137 86 -137 262q0 118 50 201 q49 81 132 131q80 48 186 71q104 21 210 21q116 0 220 -22q108 -23 193 -75q87 -53 140 -139q53 -87 57 -219h-152q-7 93 -48 155t-101 97q-63 35 -141 50q-82 14 -168 14q-85 0 -164 -17q-73 -17 -131 -50q-55 -33 -87 -81q-32 -50 -32 -110q0 -73 34 -119q36 -49 101 -79 q66 -32 166 -54q115 -26 233 -43q105 -17 196 -40q95 -24 170 -66t121 -109t46 -172q0 -135 -55 -223q-55 -87 -144 -140q-90 -53 -196 -74q-112 -20 -215 -20q-141 0 -257 25q-118 27 -206 88t-140 161q-54 101 -61 246z" />
<glyph unicode="T" horiz-adv-x="1290" d="M-4 1323v139h1298v-139h-573v-1323h-152v1323h-573z" />
<glyph unicode="U" horiz-adv-x="1593" d="M143 565v897h152v-897q0 -144 43 -233q44 -91 113 -141q68 -52 159 -70q88 -19 187 -19q96 0 185 19q91 18 161 70q68 50 112 141q43 89 43 233v897h152v-897q0 -97 -20 -206q-21 -106 -89 -195q-69 -88 -198 -144q-129 -57 -346 -57t-346 57q-129 56 -198 144 q-70 89 -89 195q-21 107 -21 206z" />
<glyph unicode="V" horiz-adv-x="1402" d="M-31 1462h176l566 -1290l559 1290h164l-648 -1462h-163z" />
<glyph unicode="W" horiz-adv-x="2162" d="M-23 1462h170l406 -1261h4l432 1261h187l432 -1261h4l409 1261h164l-491 -1462h-176l-441 1249h-4l-434 -1249h-176z" />
<glyph unicode="X" horiz-adv-x="1366" d="M-16 0l594 741l-570 721h203l475 -602l490 602h188l-573 -712l591 -750h-200l-500 629l-504 -629h-194z" />
<glyph unicode="Y" horiz-adv-x="1404" d="M-31 1462h197l536 -696l537 696h197l-658 -848v-614h-151v614z" />
<glyph unicode="Z" horiz-adv-x="1327" d="M10 0v139l1086 1184h-1016v139h1220v-139l-1091 -1184h1108v-139h-1307z" />
<glyph unicode="[" horiz-adv-x="720" d="M221 -389v1851h402v-114h-263v-1622h263v-115h-402z" />
<glyph unicode="\" horiz-adv-x="833" d="M6 1499h115l706 -1536h-114z" />
<glyph unicode="]" horiz-adv-x="720" d="M98 -274h262v1622h-262v114h402v-1851h-402v115z" />
<glyph unicode="^" horiz-adv-x="1228" d="M90 489l473 928h103l473 -928h-115l-410 801l-409 -801h-115z" />
<glyph unicode="_" horiz-adv-x="1024" d="M0 -154h1024v-102h-1024v102z" />
<glyph unicode="`" horiz-adv-x="376" d="M-102 1516h186l235 -291h-124z" />
<glyph unicode="a" horiz-adv-x="1251" d="M61 287q0 107 51 171q49 64 128 99q78 35 171 47q100 13 181 17q117 6 199 14q73 7 112 24q39 15 51 40q11 25 11 63q0 117 -82 163t-271 46q-180 0 -268 -52t-96 -182h-139q7 82 38 151q28 65 88 114q59 47 151 72q93 24 230 24q130 0 227 -20q95 -21 152 -61 q59 -41 84 -99q25 -59 25 -136v-557q0 -66 20 -92q20 -27 64 -27q14 0 40 2t40 3v-103l-58 -10q-34 -6 -69 -6q-57 0 -90 18q-32 16 -49 45q-17 27 -21 61q-4 31 -4 64h-4q-21 -31 -49 -62q-31 -35 -87 -70q-55 -34 -144 -58q-89 -23 -218 -23q-70 0 -141 16q-74 17 -134 54 q-61 37 -100 99t-39 151zM213 297q0 -62 25 -103q24 -42 67 -67q41 -24 99 -35q53 -10 116 -10q76 0 156 21q78 19 144 62q63 42 104 104t41 143v161q-35 -23 -98 -38q-62 -14 -185 -25l-190 -16q-136 -12 -207 -55q-72 -43 -72 -142z" />
<glyph unicode="b" horiz-adv-x="1366" d="M117 0v1475h151v-623h4q28 52 69 95q42 43 99 78q55 34 124 54q66 19 143 19q151 0 258 -46q109 -47 180 -125q73 -81 107 -181q34 -102 34 -214q0 -96 -29 -198q-31 -103 -97 -181q-67 -80 -180 -133q-110 -53 -273 -53q-97 0 -171 25q-77 28 -128 64q-53 37 -87 80 q-33 40 -49 77h-4v-213h-151zM260 532q0 -102 35 -186q34 -80 95 -137q58 -55 141 -85q81 -30 176 -30q117 0 198 39q80 39 131 101t75 140q24 79 24 158q0 100 -33 183t-91 138t-136 87q-77 31 -168 31q-116 0 -201 -38q-84 -37 -138 -99q-56 -62 -81 -141 q-27 -79 -27 -161z" />
<glyph unicode="c" horiz-adv-x="1251" d="M61 532q0 121 37 223q38 104 112 180q75 76 188 120q111 43 264 43q136 0 233 -38q95 -37 159 -95q63 -60 95 -124q32 -66 43 -124h-152q-35 137 -136 196q-100 58 -242 58q-116 0 -199 -34t-139 -93q-57 -61 -83 -139q-28 -78 -28 -173q0 -199 116 -318 q115 -120 333 -120q168 0 263 81q96 82 124 206h151q-12 -58 -41 -124q-31 -71 -93 -135q-62 -65 -161 -110q-101 -45 -243 -45q-143 0 -257 41q-110 40 -188 116q-75 73 -116 179q-40 102 -40 229z" />
<glyph unicode="d" horiz-adv-x="1366" d="M80 532q0 109 35 214q34 100 107 181q69 78 180 125q107 46 257 46q78 0 144 -19q67 -19 124 -54t98 -78t69 -95h4v623h151v-1475h-151v213h-4q-18 -37 -49 -77q-33 -42 -86 -80q-53 -37 -127 -64q-72 -25 -173 -25q-167 0 -274 53q-111 52 -178 133q-69 81 -97 181 q-30 100 -30 198zM231 532q0 -80 24 -158t75 -140q52 -62 132 -101q81 -39 197 -39q95 0 177 30q83 30 141 85q61 58 94 137q35 84 35 186q0 80 -26 161q-27 79 -81 141q-56 62 -139 99q-85 38 -201 38q-92 0 -167 -31q-77 -31 -136 -87t-92 -138q-33 -83 -33 -183z" />
<glyph unicode="e" horiz-adv-x="1327" d="M80 532q0 109 35 214q34 100 107 181q69 78 180 125q107 46 257 46q103 0 209 -27q108 -27 194 -94q87 -68 143 -184q55 -116 55 -297h-1029q0 -82 29 -157q28 -73 84 -127q57 -56 134 -86q81 -32 181 -32q189 0 286 62q96 62 136 184h152q-23 -72 -66 -138 q-42 -65 -111 -119q-69 -52 -167 -84q-99 -32 -230 -32q-167 0 -274 53q-111 52 -178 133q-69 81 -97 181q-30 100 -30 198zM231 610h877q-17 99 -58 167q-41 67 -101 112q-60 43 -132 63q-70 19 -147 19q-76 0 -146 -19q-73 -19 -133 -63q-60 -42 -104 -111 q-42 -67 -56 -168z" />
<glyph unicode="f" horiz-adv-x="645" d="M-12 950v115h231v141q0 152 75 211q74 58 224 58q27 0 89 -2q54 -3 81 -7v-127q-21 3 -70 7q-48 2 -71 2q-101 0 -139 -33q-37 -33 -37 -125v-125h301v-115h-301v-950h-152v950h-231z" />
<glyph unicode="g" horiz-adv-x="1366" d="M61 555q0 105 35 204q33 94 106 173q70 76 180 121t261 45q155 0 279 -59q122 -60 176 -181h4v207h151v-1024q0 -147 -54 -243q-55 -96 -140 -151q-83 -54 -192 -77q-107 -21 -212 -21q-180 0 -288 38q-106 37 -162 92q-55 55 -72 114q-17 58 -22 103h139q7 -43 24 -85 q15 -42 56 -74t119 -53q78 -20 213 -20q211 0 326 97q114 98 114 290v191h-4q-21 -37 -61 -84q-36 -42 -94 -78q-55 -34 -134 -57q-80 -23 -182 -23q-100 0 -202 29q-101 29 -182 93q-82 65 -131 171q-51 107 -51 262zM213 555q0 -115 35 -199q34 -82 95 -132 q62 -51 142 -73q83 -24 179 -24q93 0 175 29t140 84q59 56 93 134t34 181q0 85 -28 160q-28 76 -86 132q-59 56 -143 90t-198 34q-205 0 -321 -108q-117 -109 -117 -308z" />
<glyph unicode="h" horiz-adv-x="1290" d="M117 0v1475h151v-619h4q16 43 55 86q36 42 94 78q55 34 130 57q73 21 162 21q131 0 220 -33q91 -34 142 -91q54 -60 76 -139q23 -83 23 -176v-659h-152v686q0 79 -23 134q-24 53 -66 88q-41 34 -101 49q-62 14 -132 14q-224 0 -327 -103q-105 -104 -105 -290v-578h-151z " />
<glyph unicode="i" horiz-adv-x="376" d="M113 1249v226h151v-226h-151zM113 0v1065h151v-1065h-151z" />
<glyph unicode="j" horiz-adv-x="376" d="M-156 -317q26 -5 47 -6q15 -1 56 -1q103 0 134 40q32 41 32 122v1227h151v-1227q0 -63 -13 -115q-14 -54 -46 -92q-33 -39 -85 -61q-52 -21 -132 -21q-22 0 -72 2q-51 4 -72 5v127zM113 1249v226h151v-226h-151z" />
<glyph unicode="k" horiz-adv-x="1175" d="M117 0v1475h151v-928l650 518h225l-522 -403l561 -662h-201l-473 563l-240 -182v-381h-151z" />
<glyph unicode="l" horiz-adv-x="376" d="M113 0v1475h151v-1475h-151z" />
<glyph unicode="m" horiz-adv-x="2048" d="M117 0v1065h151v-197h4q28 47 59 84q37 43 85 73q52 32 119 53q69 20 159 20q89 0 157 -21q68 -23 113 -56q46 -34 73 -76q27 -44 38 -81q17 38 56 81q36 41 93 76q50 32 122 56q68 21 147 21q225 0 332 -102q106 -103 106 -269v-727h-151v676q0 148 -76 221 q-77 74 -242 74q-180 0 -271 -93q-91 -94 -91 -249v-629h-152v721q0 51 -18 96q-19 45 -55 79q-37 34 -94 55q-60 20 -136 20q-81 0 -150 -23q-71 -25 -119 -70q-51 -48 -79 -116q-29 -72 -29 -162v-600h-151z" />
<glyph unicode="n" horiz-adv-x="1290" d="M117 0v1065h151v-209h4q16 43 55 86q36 42 94 78q55 34 130 57q73 21 162 21q131 0 220 -33q91 -34 142 -91q54 -60 76 -139q23 -83 23 -176v-659h-152v686q0 79 -23 134q-24 53 -66 88q-41 34 -101 49q-62 14 -132 14q-224 0 -327 -103q-105 -104 -105 -290v-578h-151z " />
<glyph unicode="o" horiz-adv-x="1368" d="M80 532q0 112 37 214q38 102 112 181q72 78 188 125q111 46 267 46q155 0 268 -46q115 -47 188 -125q74 -80 111 -181q37 -102 37 -214t-37 -213t-111 -181q-73 -78 -188 -125q-113 -46 -268 -46q-156 0 -267 46q-116 47 -188 125q-74 79 -112 181q-37 101 -37 213z M231 532q0 -98 31 -176q32 -81 89 -138q56 -58 141 -91q82 -33 192 -33q106 0 192 33q85 33 142 91q56 58 88 138q31 78 31 176q0 95 -31 175q-32 83 -88 140q-57 58 -142 91q-86 33 -192 33q-110 0 -192 -33q-85 -33 -141 -91q-57 -57 -89 -140q-31 -80 -31 -175z" />
<glyph unicode="p" horiz-adv-x="1366" d="M117 -414v1479h151v-213h4q11 28 43 76q28 42 79 81q52 39 126 64q75 25 187 25q163 0 274 -52q111 -53 179 -134q67 -80 97 -181q29 -102 29 -199q0 -112 -34 -213q-34 -100 -107 -181q-71 -78 -180 -125q-108 -46 -258 -46q-77 0 -143 19q-68 20 -123 54t-99 78 q-42 42 -70 95h-4v-627h-151zM260 532q0 -82 27 -160q25 -78 81 -140q55 -63 138 -100q85 -38 201 -38q91 0 168 31q78 32 136 87q57 54 91 137q33 81 33 183q0 80 -24 159t-75 141q-50 61 -132 100q-81 39 -197 39q-93 0 -176 -30t-141 -85q-61 -57 -95 -137 q-35 -84 -35 -187z" />
<glyph unicode="q" horiz-adv-x="1366" d="M80 532q0 98 33 199q31 100 102 181q72 82 178 134q105 52 254 52q99 0 175 -24q81 -27 133 -62q57 -39 90 -80q34 -43 49 -80h4v213h151v-1479h-151v627h-4q-28 -53 -70 -95q-45 -45 -98 -78q-56 -34 -123 -54q-66 -19 -144 -19q-151 0 -258 46q-110 47 -179 125 q-73 81 -107 182q-35 103 -35 212zM231 532q0 -102 33 -183t92 -137t136 -87q75 -31 167 -31q116 0 201 38q82 36 139 100q55 62 81 140q26 80 26 160q0 103 -35 187q-33 79 -94 137q-58 55 -141 85q-82 30 -177 30q-117 0 -197 -39q-82 -39 -132 -100q-51 -62 -75 -141 t-24 -159z" />
<glyph unicode="r" horiz-adv-x="757" d="M117 0v1065h151v-244h4q21 49 51 97q31 49 80 89q48 40 116 66q66 25 161 25q61 0 90 -8v-156q-72 12 -139 12q-60 0 -126 -20q-64 -21 -117 -68q-50 -45 -86 -125q-34 -77 -34 -190v-543h-151z" />
<glyph unicode="s" horiz-adv-x="1138" d="M47 334h139q11 -68 36 -113q25 -44 72 -73q48 -29 118 -41q68 -13 174 -13q84 0 145 10q63 9 111 32q49 24 73 62q25 40 25 99q0 38 -17 69q-18 28 -63 51q-47 22 -124 38q-75 16 -204 28q-128 12 -209 34q-87 23 -138 58q-54 35 -77 86q-24 49 -24 121q0 68 29 128 q29 58 85 99q55 42 142 66q87 23 203 23q257 0 376 -90q116 -90 130 -258h-140q-28 128 -114 175q-85 46 -252 46q-55 0 -114 -8q-57 -9 -99 -28q-41 -18 -68 -55q-26 -37 -26 -92q0 -42 16 -67q16 -27 60 -45q43 -19 121 -33q101 -18 198 -31q123 -16 210 -36 q85 -20 142 -56q54 -34 82 -86q27 -51 27 -129q0 -160 -125 -249t-381 -89q-254 0 -396 87q-143 87 -143 280z" />
<glyph unicode="t" horiz-adv-x="720" d="M-12 950v115h231v336h152v-336h301v-115h-301v-704q0 -70 30 -102q28 -33 121 -33q59 0 91 4q51 6 59 8v-127q-44 -6 -86 -9q-44 -3 -80 -3q-88 0 -145 17q-55 16 -87 50q-33 34 -43 82q-12 50 -12 115v702h-231z" />
<glyph unicode="u" horiz-adv-x="1290" d="M117 406v659h151v-686q0 -161 87 -222q87 -63 235 -63q222 0 328 104q104 104 104 289v578h152v-1065h-152v209h-4q-16 -42 -54 -86q-36 -42 -94 -78q-58 -35 -130 -57q-74 -21 -162 -21q-132 0 -221 33t-142 92q-53 58 -75 138q-23 81 -23 176z" />
<glyph unicode="v" horiz-adv-x="1138" d="M-12 1065h164l417 -891l418 891h164l-500 -1065h-164z" />
<glyph unicode="w" horiz-adv-x="1820" d="M0 1065h164l338 -872l321 872h164l328 -866l342 866h164l-432 -1065h-164l-322 852l-317 -852h-164z" />
<glyph unicode="x" horiz-adv-x="1175" d="M-6 0l489 553l-454 512h196l361 -406l358 406h199l-461 -512l500 -553h-201l-395 442l-393 -442h-199z" />
<glyph unicode="y" horiz-adv-x="1138" d="M-12 1065h164l434 -887l401 887h164l-578 -1264q-33 -73 -64 -115q-32 -42 -74 -65q-39 -21 -96 -29q-54 -6 -134 -6h-45q-14 0 -21 1q-8 1 -22 3v127q34 -2 52 -3q17 -1 56 -1q83 0 127 25t84 106l70 148z" />
<glyph unicode="z" horiz-adv-x="1138" d="M41 0v127l809 811h-762v127h979v-127l-825 -811h856v-127h-1057z" />
<glyph unicode="{" horiz-adv-x="720" d="M98 498v77q36 0 59 13q23 12 38 44q14 33 20 86q6 54 6 138v358q0 118 52 183q51 65 167 65h119v-78h-100q-48 0 -73 -33q-26 -35 -26 -137v-358q0 -78 -14 -137q-13 -55 -37 -95q-25 -39 -53 -58q-28 -21 -55 -27v-4q28 -6 56 -27t52 -58q24 -40 37 -95q14 -61 14 -138 v-358q0 -101 26 -136q25 -34 73 -34h100v-78h-119q-117 0 -168 65q-51 66 -51 183v358q0 83 -6 139q-6 53 -20 86q-14 30 -38 44q-24 12 -59 12z" />
<glyph unicode="|" horiz-adv-x="454" d="M176 -37v1536h103v-1536h-103z" />
<glyph unicode="}" horiz-adv-x="720" d="M162 -311h100q45 0 72 33q26 35 26 137v358q0 79 15 138q13 57 38 95q22 37 51 58q29 20 56 27v4q-29 6 -56 27q-27 19 -51 58q-25 38 -38 95q-15 57 -15 137v358q0 101 -26 136q-27 34 -72 34h-100v78h119q117 0 168 -65q51 -66 51 -183v-358q0 -84 6 -138q6 -55 21 -86 q14 -32 38 -44q22 -13 58 -13v-77q-35 0 -58 -12q-25 -14 -38 -44q-15 -31 -21 -86t-6 -139v-358q0 -117 -51 -183q-53 -65 -168 -65h-119v78z" />
<glyph unicode="~" horiz-adv-x="1228" d="M141 463q17 35 39 65q21 29 54 56q28 23 71 40q40 15 92 15q53 0 113 -21q67 -26 118 -48q61 -28 112 -48q51 -22 94 -22q46 0 81 28q36 28 62 66l37 53l73 -74q-15 -22 -47 -64q-26 -34 -55 -56q-31 -25 -68 -40q-36 -16 -86 -16q-61 0 -109 22q-54 23 -100 48 q-45 24 -107 49q-55 21 -128 21q-35 0 -60 -13q-24 -13 -47 -34q-21 -19 -37 -47q-15 -24 -28 -54z" />
<glyph unicode="&#xa1;" horiz-adv-x="606" d="M215 872v226h170v-226h-170zM221 -365v1084h127v-696l37 -388h-164z" />
<glyph unicode="&#xa6;" horiz-adv-x="454" d="M176 936v563h103v-563h-103zM176 -37v563h103v-563h-103z" />
<glyph unicode="&#xa7;" horiz-adv-x="1366" d="M100 662q0 91 34 147q35 58 77 90q44 34 83 48q36 12 50 18q-10 6 -31 24q-21 16 -40 41q-22 27 -35 60q-15 34 -15 81q0 65 22 122q21 59 73 105q49 45 134 74q83 27 203 27q96 0 185 -20q86 -21 150 -66q62 -44 100 -114q36 -71 36 -171h-151q0 31 -12 73 q-14 44 -46 80q-36 39 -97 65q-66 26 -165 26q-135 0 -207 -45q-73 -45 -73 -131q0 -48 25 -83q24 -36 67 -64q48 -31 102 -55q59 -27 123 -54l269 -113q62 -26 124 -58q54 -29 96 -68q40 -39 63 -89q22 -50 22 -120q0 -74 -26 -124q-26 -52 -63 -83q-37 -33 -80 -51 q-37 -17 -75 -31q14 -11 36 -27q22 -19 41 -45q20 -27 33 -64q13 -36 13 -92q0 -62 -25 -122q-25 -59 -80 -106q-56 -47 -138 -75q-81 -28 -197 -28q-146 0 -239 31q-94 31 -152 85q-57 52 -83 125q-26 74 -32 150h151q5 -76 35 -125q31 -51 79 -82q46 -30 111 -44 q59 -13 130 -13q52 0 107 11q48 10 92 34q38 23 65 59q24 35 24 84q0 45 -22 82q-20 34 -64 68q-42 31 -98 59q-67 33 -127 59l-262 113q-75 33 -131 63q-63 33 -102 68q-42 37 -64 83q-23 48 -23 108zM240 698q0 -72 39 -113q38 -42 121 -83q78 -38 214 -93 q125 -50 316 -145q14 0 47 12q32 10 67 36q32 23 58 63q24 39 24 94q0 67 -44 116q-43 48 -131 93q-82 43 -216 97q-157 64 -299 128q-13 -1 -49 -16q-36 -16 -65 -40q-33 -25 -57 -63q-25 -37 -25 -86z" />
<glyph unicode="&#xa9;" horiz-adv-x="1638" d="M51 731q0 161 61 299q60 139 165 244q103 104 243 165q140 60 299 60t299 -60q139 -61 244 -165q104 -105 165 -244q60 -140 60 -299t-60 -299q-61 -140 -165 -243q-105 -105 -244 -165q-138 -61 -299 -61t-299 61q-140 60 -243 165q-105 103 -165 243q-61 138 -61 299z M154 731q0 -141 51 -265q50 -123 141 -215q90 -92 211 -144q121 -54 262 -54t263 54q122 53 211 145t141 216q51 124 51 265q0 139 -51 262q-52 123 -141 216q-90 93 -210 145q-123 53 -264 53q-139 0 -262 -53q-119 -51 -211 -145q-90 -93 -141 -216t-51 -264zM379 731 q0 105 31 194q31 90 90 154q57 63 144 101q84 37 194 37q76 0 143 -21q67 -23 118 -62q53 -41 87 -100q35 -63 47 -137h-115q-18 93 -91 155q-74 62 -189 62q-82 0 -148 -29q-64 -30 -108 -81q-42 -51 -65 -121q-23 -72 -23 -152q0 -76 24 -145q22 -70 68 -123 q46 -54 110 -85q66 -32 148 -32q112 0 186 65q71 64 88 162h115q-34 -146 -138 -238q-103 -91 -251 -91q-105 0 -192 38q-88 38 -147 103q-61 66 -93 155q-33 88 -33 191z" />
<glyph unicode="&#xab;" horiz-adv-x="1024" d="M150 487v148l321 276v-157l-231 -193l231 -192v-158zM528 487v148l322 276v-157l-232 -193l232 -192v-158z" />
<glyph unicode="&#xac;" horiz-adv-x="1228" d="M96 666v102h1037v-547h-103v445h-934z" />
<glyph unicode="&#xad;" horiz-adv-x="909" d="M143 485v152h623v-152h-623z" />
<glyph unicode="&#xae;" horiz-adv-x="1638" d="M51 731q0 161 61 299q60 139 165 244q103 104 243 165q140 60 299 60t299 -60q139 -61 244 -165q104 -105 165 -244q60 -140 60 -299t-60 -299q-61 -140 -165 -243q-105 -105 -244 -165q-138 -61 -299 -61t-299 61q-140 60 -243 165q-105 103 -165 243q-61 138 -61 299z M154 731q0 -141 51 -265q50 -123 141 -215q90 -92 211 -144q121 -54 262 -54t263 54q122 53 211 145t141 216q51 124 51 265q0 139 -51 262q-52 123 -141 216q-90 93 -210 145q-123 53 -264 53q-139 0 -262 -53q-119 -51 -211 -145q-90 -93 -141 -216t-51 -264zM532 274v914 h351q156 0 227 -65q70 -66 70 -189q0 -62 -18 -105q-20 -46 -51 -74q-31 -30 -74 -48q-42 -19 -87 -27l275 -406h-127l-269 406h-194v-406h-103zM635 770h227q48 0 84 7q41 8 69 26q30 19 46 51t16 82q0 48 -18 80q-19 31 -48 49q-31 19 -69 26q-36 7 -80 7h-227v-328z" />
<glyph unicode="&#xaf;" horiz-adv-x="376" d="M-207 1313v114h791v-114h-791z" />
<glyph unicode="&#xb0;" horiz-adv-x="819" d="M117 1157q0 60 23 115q23 54 62 93q40 41 93 63q51 22 115 22q62 0 115 -22t93 -63t62 -93q22 -51 22 -115q0 -63 -22 -114q-22 -52 -62 -94q-39 -39 -93 -62q-55 -23 -115 -23t-114 23q-55 23 -94 62t-62 94q-23 54 -23 114zM207 1157q0 -85 59 -144t144 -59t144 59 q58 58 58 144q0 87 -58 145t-144 58t-144 -58q-59 -59 -59 -145z" />
<glyph unicode="&#xb1;" horiz-adv-x="1228" d="M96 561v103h467v372h103v-372h467v-103h-467v-373h-103v373h-467zM96 0v102h1037v-102h-1037z" />
<glyph unicode="&#xb4;" horiz-adv-x="376" d="M57 1225l236 291h186l-297 -291h-125z" />
<glyph unicode="&#xb6;" horiz-adv-x="1228" d="M86 1061q0 199 120 300q121 101 337 101h444v-1781h-115v1691h-247v-1691h-115v991q-91 0 -168 31q-79 30 -134 84q-56 53 -89 124t-33 150z" />
<glyph unicode="&#xb7;" horiz-adv-x="569" d="M150 639q0 55 40 95q39 40 95 40q55 0 95 -40t40 -95t-40 -95t-95 -40t-95 40t-40 95z" />
<glyph unicode="&#xba;" horiz-adv-x="888" d="M51 1114q0 66 24 126q22 58 73 108q50 46 123 75q74 27 173 27q100 0 174 -27q75 -29 124 -75q49 -47 73 -108q23 -61 23 -126q0 -66 -23 -129q-24 -62 -73 -108q-50 -48 -123 -75q-72 -28 -175 -28q-101 0 -173 28q-73 27 -123 75q-51 48 -73 108q-24 61 -24 129z M166 1114q0 -117 75 -183q73 -67 203 -67t204 67q75 66 75 183q0 112 -75 180q-75 66 -204 66q-130 0 -203 -66q-75 -68 -75 -180z" />
<glyph unicode="&#xbb;" horiz-adv-x="1024" d="M174 211v158l232 192l-232 193v157l322 -276v-148zM553 211v158l231 192l-231 193v157l321 -276v-148z" />
<glyph unicode="&#x10a0;" horiz-adv-x="1372" d="M123 510v149h151v-147q0 -88 28 -163q29 -78 81 -133q53 -56 134 -89t190 -33t184 27q73 25 120 74q45 45 67 115q20 69 20 149q0 105 -44 172q-43 64 -109 110q-68 46 -144 80q-75 33 -143 79q-67 44 -110 108q-44 64 -44 168h170q0 -87 43 -137q43 -52 107 -89 q60 -36 138 -70q75 -35 138 -85q62 -52 106 -132q43 -80 43 -212q0 -96 -27 -183q-28 -88 -90 -154q-61 -66 -167 -107q-104 -40 -258 -40q-156 0 -264 43q-112 44 -182 117q-71 74 -104 173q-34 98 -34 210z" />
<glyph unicode="&#x10a1;" horiz-adv-x="1421" d="M123 510q0 145 48 250q49 105 132 172q84 67 197 99q114 32 243 32q2 14 2 27v24q0 68 -23 109q-24 41 -59 68q-35 25 -77 45q-45 20 -77 40q-37 21 -59 54q-24 32 -24 86h172q0 -39 22 -61q23 -25 52 -40q21 -12 68 -37q35 -18 69 -52q29 -29 53 -82q21 -50 21 -132 q0 -21 -1 -32q-2 -16 -3 -36q69 -14 142 -48q71 -33 136 -97q61 -63 102 -158q39 -96 39 -231q0 -108 -34 -204q-34 -99 -108 -174t-183 -120t-260 -45q-153 0 -262 45q-111 45 -183 120q-72 74 -109 173q-36 98 -36 205zM274 510q0 -199 117 -307q116 -109 322 -109 q205 0 320 109q114 108 114 307q0 115 -32 199q-31 82 -89 132t-137 74q-81 23 -176 23t-176 -23q-79 -24 -138 -74t-92 -132q-33 -83 -33 -199z" />
<glyph unicode="&#x10a2;" horiz-adv-x="1454" d="M123 94q0 112 37 210q38 100 112 174q72 74 188 118q111 43 267 43q74 0 160 -16q25 113 24 186q0 63 -60 96t-159 33q-104 0 -162 -34q-59 -35 -59 -103h-158q0 69 31 118q33 52 82 82q48 30 117 47q65 15 135 15q171 0 275 -69q102 -70 102 -181q0 -110 -31 -233 q156 -72 232 -199q75 -128 75 -287q0 -112 -37 -210q-38 -99 -111 -174q-74 -74 -188 -118q-113 -43 -268 -43q-156 0 -267 43q-116 44 -188 118q-74 74 -112 174q-37 98 -37 210zM274 94q0 -193 118 -305q118 -111 335 -111t335 112t118 304q0 194 -118 306t-335 112 t-335 -112t-118 -306z" />
<glyph unicode="&#x10a3;" horiz-adv-x="2105" d="M145 694q0 81 26 150q25 67 80 117q53 49 136 76q84 26 197 26q123 0 213 -44q89 -43 153 -120q88 90 209 127q120 37 238 37q100 0 205 -27q106 -29 189 -92q85 -64 138 -171q53 -108 53 -263q0 -108 -34 -204q-34 -99 -108 -174t-183 -120q-110 -45 -260 -45 q-153 0 -262 45q-111 45 -183 120q-72 74 -109 173q-36 98 -36 205q0 83 17 153q18 70 44 123q-38 57 -105 105q-70 47 -155 47q-163 0 -236 -73q-75 -73 -75 -222l55 -768q5 -42 14 -67q9 -28 31 -45q23 -18 56 -25q37 -8 90 -8l1044 -21v-129l-1038 21q-100 0 -166 15 q-67 15 -105 49q-39 33 -59 87t-26 131zM958 510q0 -199 117 -307q116 -109 322 -109q205 0 320 109q114 108 114 307q0 115 -32 199q-31 82 -89 132t-137 74q-81 23 -176 23t-176 -23q-79 -24 -138 -74t-92 -132q-33 -83 -33 -199z" />
<glyph unicode="&#x10a4;" horiz-adv-x="1355" d="M123 94h151q0 -199 106 -308q105 -108 292 -108q105 0 182 34q79 35 128 90q50 57 75 132q24 76 24 160v469q0 193 -100 284t-299 91q-126 0 -197 -30q-72 -32 -107 -77q-37 -47 -47 -99q-15 -64 -20 -95h-139q1 23 8 72q6 43 24 90q16 45 49 94q33 48 87 85 q58 39 137 62q84 23 199 23q98 0 198 -21q101 -23 179 -76q81 -57 130 -150q50 -95 50 -243v-497q0 -161 -59 -264q-61 -103 -148 -160q-86 -57 -186 -80q-99 -21 -176 -21q-142 0 -246 45q-104 46 -168 120q-66 75 -96 173q-31 97 -31 205z" />
<glyph unicode="&#x10a5;" horiz-adv-x="1437" d="M123 94h151q0 -198 117 -308q117 -108 322 -108q227 0 339 103q111 104 111 272q0 59 -25 108q-25 47 -68 81q-43 32 -95 50q-54 17 -109 17h-260v152h260q50 0 99 20q50 21 82 50q34 29 55 69q20 40 20 78q0 141 -107 200q-107 58 -313 58q-135 0 -210 -27 q-76 -28 -115 -69q-40 -41 -50 -90q-11 -46 -16 -93h-139q0 25 5 70q5 41 24 86q19 46 52 90q36 47 92 80q62 36 144 58q84 22 207 22q93 0 201 -11q102 -12 186 -51q85 -41 138 -116q53 -77 53 -205q0 -67 -22 -115q-21 -46 -56 -86q-32 -36 -69 -61q-37 -26 -66 -39 q36 -18 77 -42q45 -26 83 -66q38 -39 67 -96q27 -55 27 -132q0 -156 -63 -252q-65 -97 -158 -150q-94 -52 -200 -72q-106 -18 -189 -18q-151 0 -261 45q-110 46 -180 120q-72 76 -106 173q-35 100 -35 205z" />
<glyph unicode="&#x10a6;" horiz-adv-x="1585" d="M61 1112q0 114 40 191q41 77 102 125q63 47 138 68q78 20 151 20q72 0 150 -20q75 -21 137 -68q60 -47 100 -125q39 -78 39 -191v-25q0 -17 -3 -24q99 -5 196 -36q95 -31 175 -97q78 -66 127 -169q49 -102 49 -251q0 -108 -34 -204q-34 -99 -108 -174t-183 -120 q-111 -45 -260 -45q-153 0 -262 45q-110 45 -184 120q-73 75 -108 173q-36 98 -36 205q0 123 41 231q-68 20 -118 59q-51 38 -83 87q-33 49 -49 107q-17 59 -17 118zM211 1106q0 -137 73 -200q71 -64 201 -64q131 0 207 64q76 63 76 200q0 79 -20 134q-21 55 -58 87 q-38 33 -89 48q-54 14 -116 14q-60 0 -111 -14q-50 -15 -87 -48q-36 -32 -56 -87t-20 -134zM438 510q0 -199 117 -307q116 -109 322 -109q205 0 320 109q114 108 114 307q0 116 -32 198q-31 78 -88 132q-55 51 -136 75q-81 23 -174 23q-46 -99 -142 -158q-97 -61 -264 -61 q-37 -84 -37 -209z" />
<glyph unicode="&#x10a7;" horiz-adv-x="2123" d="M123 510q0 156 54 263t139 171q84 63 190 92q104 27 207 27q117 0 233 -36q113 -35 203 -122q33 31 78 60q39 25 98 50q55 22 114 35q58 13 122 13q112 0 196 -29q82 -30 137 -82q54 -53 80 -124q25 -71 25 -154l-62 -686h-151l61 651q0 140 -77 220q-78 79 -240 79 q-117 0 -188 -38q-71 -37 -115 -95q32 -56 52 -131q19 -70 19 -164q0 -108 -34 -204q-34 -99 -108 -174t-183 -120t-260 -45q-153 0 -262 45q-111 45 -183 120q-72 74 -109 173q-36 98 -36 205zM274 510q0 -199 117 -307q116 -109 322 -109q205 0 320 109q114 108 114 307 q0 115 -32 199q-31 82 -89 132t-137 74q-81 23 -176 23t-176 -23q-79 -24 -138 -74t-92 -132q-33 -83 -33 -199z" />
<glyph unicode="&#x10a8;" horiz-adv-x="1339" d="M123 430v80q0 156 48 263q48 106 125 171q74 63 175 92q97 27 201 27q100 0 199 -27q101 -29 175 -92q76 -64 124 -171q47 -108 47 -263q0 -51 -1 -80q-1 -42 -6 -101q-5 -65 -12 -142q-4 -48 -22 -199h-152q23 199 23 202q9 95 11 141q1 23 4 99q1 27 1 78 q0 233 -99 332q-101 98 -292 98q-102 0 -177 -24q-75 -25 -124 -79q-49 -55 -73 -141t-24 -211q0 -48 1 -75q2 -41 6 -98q4 -53 12 -137q4 -45 22 -185h-151q-15 109 -20 157q-8 57 -13 120q-5 53 -6 92q-2 54 -2 73z" />
<glyph unicode="&#x10a9;" horiz-adv-x="1437" d="M123 94h151q0 -198 117 -308q117 -108 322 -108q227 0 339 103q111 104 111 272q0 59 -25 108q-25 47 -68 81q-43 32 -95 50q-54 17 -109 17h-260v152h260q50 0 99 17q49 18 82 43q33 24 55 62q20 35 20 74q0 51 -4 83q-5 37 -22 69q-19 33 -55 64q-37 30 -105 69l74 117 q53 -36 106 -78q50 -40 84 -85q37 -49 55 -103q19 -57 19 -134q0 -67 -22 -111q-22 -45 -56 -79q-33 -33 -69 -54q-37 -23 -66 -36q36 -18 77 -42q45 -26 83 -66q38 -39 67 -96q27 -55 27 -132q0 -156 -63 -252q-65 -97 -158 -150q-94 -52 -200 -72q-106 -18 -189 -18 q-151 0 -261 45q-110 46 -180 120q-72 76 -106 173q-35 100 -35 205z" />
<glyph unicode="&#x10aa;" horiz-adv-x="2525" d="M145 670v26q0 174 112 271q112 96 323 96q94 0 154 -19q62 -20 102 -54t66 -78q24 -44 42 -93q10 49 33 93t60 78t96 54q56 19 137 19q74 0 129 -18q56 -20 94 -49q40 -32 65 -69q26 -37 39 -75q13 38 39 75q26 38 67 69q41 29 105 49q62 18 154 18q217 0 328 -96 q110 -98 110 -256l-20 -600h-152l17 548q0 138 -70 208q-71 71 -244 71q-74 0 -123 -25q-48 -25 -79 -71q-30 -43 -44 -107q-14 -65 -14 -139l-2 -281h-151l2 277q0 81 -10 142q-10 63 -39 108q-28 44 -78 70q-49 24 -123 24q-72 0 -120 -24q-49 -26 -77 -70 q-30 -47 -40 -107q-11 -66 -11 -139v-281h-152v281q0 153 -62 248q-63 94 -198 94q-167 0 -243 -62q-76 -63 -76 -186v-24q0 -11 2 -23l55 -721q18 -172 191 -172l1597 -41v-129l-1597 39q-168 0 -248 83t-92 220l-52 721q-2 14 -2 27z" />
<glyph unicode="&#x10ab;" d="M123 489q0 154 50 259q50 102 131 164q79 60 182 86q101 24 202 24q167 0 285 -56q115 -56 190 -143v150q0 193 -114 306q-115 112 -326 112q-135 0 -213 -18q-81 -20 -119 -50q-42 -32 -56 -71q-17 -41 -24 -83h-139q5 45 22 103q16 57 73 114q56 55 162 92 q108 38 288 38q105 0 211 -21q109 -23 192 -77q85 -55 141 -151q54 -96 54 -243v-532q0 -162 -63 -263q-64 -102 -157 -160q-95 -59 -199 -81q-105 -21 -191 -21q-151 0 -261 42t-180 114q-72 74 -106 166q-35 96 -35 200zM274 489q0 -197 119 -296t320 -99q114 0 198 31 q83 31 142 84q57 53 86 125q28 69 28 155q0 101 -33 177q-34 76 -93 129q-61 52 -141 77q-79 25 -175 25q-98 0 -178 -19q-81 -19 -142 -68q-61 -48 -96 -126q-35 -79 -35 -195z" />
<glyph unicode="&#x10ac;" d="M164 471v655q0 144 35 223q34 78 97 112q59 33 151 38q79 4 192 4h545v-135h-551q-99 0 -160 -3q-65 -3 -98 -22q-35 -20 -47 -63q-13 -42 -13 -125l4 -332q78 83 201 141q122 58 271 58q100 0 202 -24q103 -26 182 -86q80 -62 131 -164q50 -105 50 -259q0 -104 -35 -200 q-34 -94 -105 -166q-70 -71 -181 -114q-111 -42 -261 -42q-86 0 -191 18q-108 20 -199 74q-92 54 -156 152q-64 97 -64 260zM311 489q0 -83 29 -155t86 -125t142 -84q84 -31 198 -31q202 0 320 100q118 99 118 295q0 118 -34 195t-95 126q-62 49 -144 68q-80 19 -177 19 q-96 0 -175 -25q-81 -25 -140 -77t-94 -129q-34 -75 -34 -177z" />
<glyph unicode="&#x10ad;" horiz-adv-x="2064" d="M125 694q0 81 26 150q26 68 79 117q51 48 136 76q84 26 197 26q79 0 156 -21q76 -22 140 -55q62 -32 109 -75q46 -41 64 -81q18 38 65 81q48 43 110 75q61 32 139 55q75 21 155 21q114 0 198 -26q85 -28 136 -76q54 -51 79 -117t25 -150l-20 -706h-152l21 655 q0 147 -75 221q-76 74 -243 74q-180 0 -271 -93q-91 -92 -91 -249v-260h-152v260q0 157 -91 249q-91 93 -271 93q-169 0 -243 -73q-75 -73 -75 -222l21 -655h-152z" />
<glyph unicode="&#x10ae;" horiz-adv-x="1435" d="M123 510h151q0 -100 34 -175q35 -77 96 -131q61 -53 145 -82q83 -28 184 -28q111 0 193 36t135 95q54 61 79 133t25 152q0 33 -12 75t-37 79q-26 36 -63 63q-38 27 -86 27l-322 2v129h322q48 0 80 17q31 17 48 44q17 28 23 62q6 35 6 71q0 63 -45 96q-46 34 -113 53 q-70 20 -148 33q-83 14 -147 41q-70 27 -114 76q-45 50 -45 138h180q0 -61 43 -89q42 -28 108 -43q60 -15 139 -28q79 -14 140 -44q62 -30 107 -92q43 -61 43 -169q0 -26 -8 -63q-9 -34 -27 -66q-17 -32 -47 -60q-26 -26 -68 -47q114 -67 152 -145q39 -80 39 -160 q0 -145 -50 -250q-51 -103 -131 -168q-82 -65 -186 -95q-107 -30 -217 -30q-151 0 -264 42t-189 115q-78 75 -115 172q-38 100 -38 214z" />
<glyph unicode="&#x10af;" horiz-adv-x="1437" d="M123 94h151q0 -198 117 -308q117 -108 322 -108q114 0 198 34t141 90q56 57 84 132q27 77 27 160l2 844l-575 -41q66 -50 100 -104q33 -55 33 -136q0 -82 -22 -148q-23 -69 -75 -120q-53 -52 -138 -80q-86 -30 -209 -30h-95v135h97q160 0 225 56t65 179q0 42 -13 87 q-14 47 -49 85q-36 39 -95 65q-59 25 -152 25l-78 -2v123h1131v-956q0 -162 -63 -264q-66 -103 -157 -160q-92 -57 -199 -80q-105 -21 -191 -21q-151 0 -261 45q-110 46 -180 120q-72 76 -106 173q-35 100 -35 205z" />
<glyph unicode="&#x10b0;" horiz-adv-x="2062" d="M123 735q5 196 57 329q53 134 143 221q89 87 208 134t254 69q131 20 280 25q145 3 287 3v-125q-73 0 -113 1q-41 1 -129 1q-127 0 -256 -13q-130 -13 -251 -59q-118 -45 -207 -134t-122 -239q51 57 125 86q75 29 162 29q79 0 156 -21q76 -22 140 -55q62 -32 109 -75 q46 -41 64 -81q18 38 65 81q48 43 110 75q61 32 139 55q75 21 155 21q114 0 198 -26q85 -28 136 -76q54 -51 79 -117t25 -150l-20 -706h-152l21 655q0 147 -75 221q-76 74 -243 74q-180 0 -271 -93q-91 -92 -91 -249v-260h-152v260q0 157 -91 249q-91 93 -271 93 q-169 0 -243 -73q-75 -73 -75 -222l21 -655h-152z" />
<glyph unicode="&#x10b1;" d="M123 492v1024h151v-1006q0 -85 28 -160q28 -76 84 -132q55 -55 140 -90q83 -34 199 -34q101 0 181 28q81 29 139 79q56 50 88 125q30 73 30 163q0 119 -31 194q-32 77 -75 123t-89 67q-49 21 -73 22q-79 6 -122 55q-44 50 -44 117v121h143v-90q0 -37 17 -57 q16 -21 67 -31q27 -7 89 -35q60 -27 120 -85t105 -156t45 -245q0 -96 -35 -192q-34 -93 -105 -167q-69 -72 -181 -118q-111 -45 -261 -45q-86 0 -191 21q-106 22 -199 81q-94 59 -156 160q-64 100 -64 263z" />
<glyph unicode="&#x10b2;" horiz-adv-x="1763" d="M123 307q0 141 45 272q45 130 133 233q87 102 214 170q125 67 290 79v223h143v-223q165 -12 294 -77q129 -67 217 -168q89 -104 135 -234q46 -129 46 -275q0 -148 -50 -286q-49 -136 -147 -241q-99 -105 -238 -167q-144 -62 -324 -62q-181 0 -323 62q-141 62 -238 167 q-98 105 -147 241q-50 138 -50 286zM264 313q0 -139 45 -254q44 -114 126 -201q81 -85 193 -133q112 -47 246 -47q136 0 250 47q113 48 195 133q83 86 127 201q45 116 45 254q0 130 -40 240q-41 112 -111 194q-72 83 -172 135q-99 52 -220 64v-778h-143v778 q-120 -12 -218 -64q-101 -52 -171 -135q-71 -81 -112 -194q-40 -110 -40 -240z" />
<glyph unicode="&#x10b3;" horiz-adv-x="1476" d="M123 94h151q0 -198 117 -308q117 -108 322 -108q114 0 198 34t141 90q56 57 84 132q27 77 27 160v641q0 47 -5 89q-5 39 -24 64q-18 24 -60 38q-40 12 -107 12q-45 0 -91 -11q-46 -12 -77 -36q-33 -26 -52 -62q-20 -38 -20 -90v-342h-152v342q0 104 -61 152 q-62 47 -178 47h-213v125h182q66 0 117 -6q52 -6 93 -25t75 -58q32 -36 61 -102q35 63 72 102q40 40 79 58q40 19 89 25q47 6 102 6q113 0 177 -34q64 -35 95 -90q31 -54 40 -131q8 -80 8 -157v-557q0 -162 -63 -266q-66 -106 -157 -166q-92 -60 -199 -86q-104 -25 -189 -25 q-151 0 -261 45q-110 46 -180 120q-72 76 -106 173q-35 100 -35 205z" />
<glyph unicode="&#x10b4;" horiz-adv-x="2134" d="M123 510q0 156 54 263t139 171q84 63 190 92q104 27 207 27q112 0 226 -34q115 -35 200 -114q101 91 192 119q93 29 185 29q74 0 161 -21q88 -23 161 -70q74 -47 124 -125q49 -76 49 -188q0 -65 -22 -119q-22 -55 -55 -101q-34 -45 -70 -75q-39 -33 -66 -47 q39 -19 68 -41q34 -26 63 -66q27 -40 45 -96q17 -59 17 -132q0 -105 -40 -176q-41 -73 -103 -120q-64 -48 -146 -76q-77 -27 -165 -41q-73 -12 -162 -17q-79 -3 -138 -3q-39 0 -157 2q-84 3 -186 17q-93 13 -194 44q-99 30 -180 85l82 108q64 -49 152 -73q86 -24 182 -37 q91 -12 176 -15q112 -2 133 -2q49 0 113 3q63 5 129 15q61 10 129 32q64 23 113 57q47 32 80 85q30 50 30 122q0 62 -10 109q-11 51 -35 84q-26 35 -66 54q-41 19 -104 19h-96v131h96q59 0 104 24q44 23 74 62q29 40 44 87q14 50 14 95q0 68 -26 122q-25 52 -72 88t-107 54 q-63 17 -133 17q-23 0 -69 -2q-32 -1 -68 -14q-37 -15 -74 -40q-42 -30 -84 -77q35 -60 53 -131q18 -72 18 -164q0 -108 -34 -204q-34 -99 -108 -174t-183 -120q-111 -45 -260 -45q-153 0 -262 45q-111 45 -183 120q-72 74 -109 173q-36 98 -36 205zM274 510 q0 -199 117 -307q116 -109 322 -109q205 0 320 109q114 108 114 307q0 115 -32 199q-31 82 -89 132t-137 74q-81 23 -176 23t-176 -23q-79 -24 -138 -74t-92 -132q-33 -83 -33 -199z" />
<glyph unicode="&#x10b5;" horiz-adv-x="1396" d="M123 94h151q0 -100 31 -175q32 -77 84 -131q52 -53 126 -82q72 -28 157 -28q99 0 174 34q76 34 129 90q53 57 81 132q27 77 27 160v467q0 194 -112 285q-113 92 -309 92q-118 0 -185 -32q-66 -31 -101 -78t-45 -98q-15 -64 -20 -95h-139q1 23 8 72q6 41 23 90 q17 48 48 95q31 48 85 86q53 38 131 62q80 23 188 23q117 0 230 -48q111 -48 198 -122v620h148l2 -1437q0 -108 -29 -189q-30 -78 -77 -138q-49 -59 -109 -96q-64 -39 -124 -61q-58 -21 -123 -32q-60 -9 -107 -9q-136 0 -236 45q-103 47 -170 120q-68 76 -101 173 q-34 98 -34 205z" />
<glyph unicode="&#x10b6;" horiz-adv-x="2084" d="M145 715q0 156 111 252t328 96q80 0 156 -21q76 -23 139 -55q62 -32 109 -75q45 -40 65 -81q18 40 64 81q48 43 110 75q61 32 139 55q76 21 156 21q217 0 328 -96q110 -98 110 -256l-21 -580h-151l20 533q0 274 -317 274q-179 0 -271 -93q-92 -94 -92 -249v-301h-151v301 q0 157 -91 249q-91 93 -272 93q-317 0 -317 -274v-21l51 -762q5 -75 47 -112q44 -38 103 -39l1167 -21v-129l-1161 21q-88 0 -145 21q-57 22 -92 60q-34 38 -49 92q-14 52 -19 117z" />
<glyph unicode="&#x10b7;" horiz-adv-x="1396" d="M123 -8h151q0 -99 31 -160t89 -95q55 -33 138 -47q80 -12 181 -12q114 0 185 34q72 35 112 90q41 58 56 132q15 76 15 160v156q-92 -80 -205 -119q-114 -39 -212 -39q-169 0 -273 52q-107 51 -165 136q-60 86 -81 195q-22 107 -22 225q0 92 3 175q3 79 17 178h154 q-17 -103 -18 -204q-3 -100 -3 -212q0 -199 96 -308q95 -110 300 -110q114 0 191 34q77 35 126 90q48 54 71 132q21 76 21 160v418h152v-977q0 -161 -50 -264q-50 -101 -128 -160q-76 -57 -171 -80q-93 -21 -179 -21q-301 0 -441 114q-141 114 -141 327z" />
<glyph unicode="&#x10b8;" horiz-adv-x="1531" d="M125 1126v39q0 60 2 148q1 63 28 110q25 45 84 69t171 24q37 0 80 -6q41 -7 88 -27q43 -20 88 -59q40 -36 79 -101q44 64 91 102q47 40 92 59q41 18 85 26q41 6 68 6q113 0 172 -27t84 -76t27 -117q2 -92 2 -151v-670q0 -162 -63 -261q-64 -99 -157 -154 q-93 -56 -198 -75q-106 -18 -190 -18q-152 0 -261 42t-180 114q-72 74 -106 166q-35 96 -35 200q0 154 50 259q50 102 131 164q79 60 182 86q100 24 202 24q100 0 170 -14q67 -15 119 -41q50 -26 93 -65q68 -61 94 -83v273q0 55 -2 129q-3 53 -17 92q-13 37 -46 57 q-31 19 -91 19q-44 0 -90 -8q-41 -9 -76 -29q-33 -21 -51 -55q-19 -34 -19 -87h-161q0 102 -59 141q-61 38 -175 38q-52 0 -84 -6q-31 -7 -46 -24q-14 -17 -19 -47q-5 -33 -5 -75v-111h-151zM328 489q0 -197 119 -296t319 -99q227 0 339 106q112 105 112 273q0 102 -34 180 q-36 82 -92 134q-60 54 -139 82q-78 28 -174 28q-98 0 -178 -19q-81 -19 -142 -68q-60 -47 -95 -126t-35 -195z" />
<glyph unicode="&#x10b9;" horiz-adv-x="1398" d="M164 -12v1036q0 129 32 225q32 95 90 153q57 58 143 86q84 28 189 28q134 0 213 -38q78 -38 119 -92q40 -56 54 -114q11 -55 16 -103h-139q-5 29 -19 83q-12 39 -39 71q-28 31 -77 50q-50 18 -134 18q-104 0 -163 -35q-61 -35 -89 -93q-29 -57 -37 -134q-8 -82 -8 -156 v-150q13 14 36.5 39t34.5 36q35 36 80 64q49 28 113 44t171 16q104 0 198 -24q95 -26 167 -86t116 -164q43 -102 43 -259v-79q0 -46 -1 -72q-2 -63 -4 -89q-6 -104 -7 -114q-2 -23 -5.5 -72.5t-5.5 -74.5h-149q11 138 16 249q4 84 4 164v88q0 117 -27 195q-29 78 -81 126 q-53 49 -129 68q-75 19 -172 19q-192 0 -295 -101q-103 -102 -103 -307v-501h-151z" />
<glyph unicode="&#x10ba;" horiz-adv-x="1683" d="M123 307q0 76 3 163q3 91 19 186q16 101 49 206q33 107 95 223l133 -71q-61 -135 -91 -235q-34 -113 -46 -190q-16 -89 -17 -152q-2 -90 -2 -124q0 -139 45 -254q44 -114 126 -201q81 -85 193 -133q112 -47 247 -47q119 0 218 24t169 76q70 53 108 134q39 83 39 197 q0 73 -30 134q-31 61 -84 108q-54 47 -126 72q-75 26 -155 26h-254v116h254q50 0 105 5q50 5 88 26q39 20 61 60t22 112q0 40 -19 71q-18 29 -67 53q-45 20 -126 34q-80 12 -195 12v123q119 0 221 -15q103 -17 178 -49q76 -34 118 -88q42 -56 42 -133q0 -195 -184 -270 q158 -59 230 -167q71 -109 71 -237q0 -274 -172 -413q-173 -138 -506 -138q-183 0 -323 67q-141 67 -239 174q-99 110 -148 243q-50 136 -50 272z" />
<glyph unicode="&#x10bb;" d="M123 510q0 155 50 263q49 106 131 171q79 63 182 92q100 27 202 27q92 0 169 -21q80 -24 138 -56q59 -34 103 -75q40 -37 65 -82v687h152v-1024q0 -162 -63 -263q-64 -102 -157 -160q-95 -59 -199 -81q-105 -21 -191 -21q-151 0 -261 45t-180 120q-72 76 -106 173 q-35 99 -35 205zM274 510q0 -199 117 -307q116 -109 322 -109q114 0 198 34q83 34 142 90q58 56 86 132q28 75 28 160q0 100 -33 180q-35 81 -93 136q-60 56 -141 84q-80 28 -175 28q-94 0 -178 -23q-81 -24 -142 -74q-61 -49 -96 -132q-35 -84 -35 -199z" />
<glyph unicode="&#x10bc;" horiz-adv-x="1572" d="M166 475v670q0 59 2 151q1 65 28 117q25 49 84 76q58 27 171 27q29 0 69 -6q43 -8 84 -26q45 -19 92 -59q46 -39 90 -102q39 66 80 101q45 39 88 59q45 20 88 27q43 6 80 6q113 0 172 -24q58 -24 84 -69q25 -45 27 -110q2 -88 2 -148v-39h-152v111q0 48 -4 75 q-5 30 -19 47q-15 17 -46 24q-32 6 -84 6q-115 0 -174 -38q-60 -37 -60 -141h-161q0 52 -19 86t-52 56q-33 20 -75 29q-46 8 -90 8q-60 0 -91 -19q-33 -20 -46 -57q-16 -39 -17 -92q-2 -74 -2 -129v-273q5 4 41 36t53 47q43 39 93 65q52 26 119 41q70 14 170 14t202 -24 q103 -26 182 -86q80 -62 131 -164q50 -105 50 -259q0 -104 -35 -200q-34 -94 -105 -166q-70 -71 -181 -114q-111 -42 -261 -42q-84 0 -189 18q-106 19 -199 75q-94 56 -156 154q-64 98 -64 261zM315 473q0 -168 112 -273q112 -106 339 -106q202 0 320 100q118 99 118 295 q0 118 -34 195t-95 126q-62 49 -144 68q-80 19 -177 19q-96 0 -174 -28t-138 -82q-58 -54 -93 -134q-34 -78 -34 -180z" />
<glyph unicode="&#x10bd;" horiz-adv-x="1439" d="M123 94h151q0 -198 117 -308q117 -108 322 -108q114 0 198 31t141 84q55 52 84 125q27 72 27 156q0 57 -20 120q-21 61 -61 108t-99 79q-58 31 -137 31h-172v444h-144q-81 0 -136 -11q-51 -10 -80 -30q-28 -19 -39 -49t-11 -64q0 -48 17 -80q17 -33 42 -49q24 -17 57 -25 q31 -7 64 -9v-133q-57 1 -118 19q-57 16 -103 53q-45 36 -72 93q-28 55 -28 136q0 131 108 203q107 71 299 71h144v535h149v-535h357v-125h-357v-309h23q69 0 150 -31q83 -32 152 -91q72 -61 119 -151q48 -92 48 -211q0 -157 -64 -255t-159 -157q-93 -56 -200 -79 q-106 -21 -187 -21q-151 0 -261 45q-110 46 -180 120q-72 76 -106 173q-35 100 -35 205z" />
<glyph unicode="&#x10be;" d="M164 492v1024h151v-652q11 9 44 37.5t50 42.5q42 38 93 63q47 23 119 41q67 15 170 15q100 0 202 -27q103 -29 182 -92q80 -65 131 -171q50 -108 50 -263q0 -105 -35 -204t-105 -174q-70 -74 -181 -120q-111 -45 -261 -45q-86 0 -191 21q-106 22 -199 81q-94 59 -156 160 q-64 100 -64 263zM315 510q0 -85 28 -160q29 -76 84 -132q55 -55 140 -90q83 -34 199 -34q206 0 322 109q116 108 116 307q0 118 -34 199q-34 82 -95 132q-62 50 -144 74q-84 23 -177 23q-96 0 -174 -28q-80 -28 -138 -84q-58 -55 -93 -136q-34 -78 -34 -180z" />
<glyph unicode="&#x10bf;" horiz-adv-x="1439" d="M123 94h151q0 -198 117 -308q117 -108 322 -108q114 0 198 31t141 84q55 52 84 125q27 72 27 156q0 58 -27 120q-29 62 -77 108q-49 48 -119 79q-69 31 -156 31h-172v399l-419 43v129l419 -43v289h150v-303l461 -45v-129l-461 45v-250h22q85 0 178 -31q93 -32 172 -91 q78 -60 130 -151q51 -91 51 -211q0 -157 -64 -255t-159 -157q-93 -56 -200 -79q-106 -21 -187 -21q-151 0 -261 45q-110 46 -180 120q-72 76 -106 173q-35 100 -35 205z" />
<glyph unicode="&#x10c0;" horiz-adv-x="1437" d="M123 510h151q0 -100 34 -175q35 -77 96 -131q61 -53 145 -82q83 -28 184 -28q223 0 328 51q104 50 104 172q0 33 -12 73q-12 42 -37 75q-26 35 -63 60q-37 24 -86 24l-322 2v129h322q87 0 143 30q55 28 55 117q0 44 -14 72q-13 27 -40 41q-28 15 -62 19q-33 4 -82 4h-322 v129h322q47 0 80 4q39 5 63 17q28 14 41 40q14 28 14 74q0 77 -54 118q-54 39 -146 39h-547v132h506q76 0 144 -13q67 -13 124 -47q54 -32 89 -88q34 -55 34 -141q0 -29 -9 -59q-11 -34 -32 -60q-24 -30 -59 -52q-38 -24 -95 -36q59 -12 95 -37q38 -26 60 -52q20 -27 31 -54 q9 -27 9 -46q0 -29 -9 -59q-11 -33 -31 -60q-24 -32 -58 -56q-37 -27 -95 -46q113 -66 153 -142t40 -157t-29 -139q-28 -56 -76 -96q-46 -39 -107 -60q-61 -22 -126 -33q-62 -10 -130 -13q-65 -3 -118 -3q-151 0 -264 42t-189 115q-78 75 -115 172q-38 100 -38 214z" />
<glyph unicode="&#x10d0;" horiz-adv-x="1372" d="M123 592v149h151v-147q0 -112 28 -202q28 -91 81 -157q51 -66 134 -104q80 -37 190 -37t184 31q74 32 120 88t67 140q20 85 20 190q0 136 -44 229q-43 90 -109 161q-69 71 -144 124q-82 58 -143 118q-66 61 -110 142q-44 80 -44 199h170q0 -103 43 -170q45 -69 107 -123 q66 -58 138 -110q74 -54 138 -129q62 -73 106 -182q43 -107 43 -270q0 -118 -27 -222q-28 -102 -90 -179q-63 -76 -167 -120q-106 -44 -258 -44q-153 0 -264 47t-182 131q-71 85 -104 198q-34 112 -34 249z" />
<glyph unicode="&#x10d1;" horiz-adv-x="1421" d="M123 510q0 145 48 250q49 105 132 172q84 67 197 99q114 32 243 32q2 14 2 27v24q0 68 -23 109q-24 41 -59 68q-35 25 -77 45q-45 20 -77 40q-37 21 -59 54q-24 32 -24 86h172q0 -39 22 -61q23 -25 52 -40q21 -12 68 -37q35 -18 69 -52q29 -29 53 -82q21 -50 21 -132 q0 -21 -1 -32q-2 -16 -3 -36q69 -14 142 -48q71 -33 136 -97q61 -63 102 -158q39 -96 39 -231q0 -108 -34 -204q-34 -99 -108 -174t-183 -120t-260 -45q-153 0 -262 45q-111 45 -183 120q-72 74 -109 173q-36 98 -36 205zM274 510q0 -199 117 -307q116 -109 322 -109 q205 0 320 109q114 108 114 307q0 115 -32 199q-31 82 -89 132t-137 74q-81 23 -176 23t-176 -23q-79 -24 -138 -74t-92 -132q-33 -83 -33 -199z" />
<glyph unicode="&#x10d2;" horiz-adv-x="1454" d="M123 532q0 112 37 214q38 104 112 179q73 76 188 123q111 46 267 46q69 0 160 -17q26 113 24 187q0 63 -60 96t-159 33q-104 0 -162 -34q-59 -35 -59 -104h-158q0 69 31 118q33 52 82 82q51 31 117 48q65 15 135 15q172 0 275 -70q102 -70 102 -180q0 -111 -31 -234 q156 -72 232 -208q75 -136 75 -294q0 -112 -37 -213t-111 -181q-73 -78 -188 -125q-113 -46 -268 -46q-156 0 -267 46q-116 47 -188 125q-74 79 -112 181q-37 101 -37 213zM274 532q0 -98 31 -176q32 -81 89 -138q57 -58 141 -90t192 -32q105 0 192 32q85 31 142 90 q56 58 88 138q31 78 31 176t-31 176q-32 80 -88 138q-58 58 -142 89q-87 32 -192 32q-108 0 -192 -32q-83 -31 -141 -89q-57 -57 -89 -138q-31 -78 -31 -176z" />
<glyph unicode="&#x10d3;" horiz-adv-x="2105" d="M145 1145q0 81 26 150q25 65 80 116q53 49 136 76q84 26 197 26q123 0 213 -44q88 -43 153 -119q88 90 209 127q121 36 238 36q100 0 205 -30q104 -31 189 -99q86 -69 138 -178q53 -111 53 -266q0 -108 -34 -207q-34 -101 -108 -181q-73 -79 -183 -127q-109 -48 -260 -48 q-153 0 -262 48q-112 48 -183 127q-73 79 -109 181q-36 101 -36 207q0 84 17 163q17 81 44 134q-38 57 -105 105q-70 47 -155 47q-162 0 -236 -74q-75 -73 -75 -221l55 -809q5 -42 14 -67q9 -29 31 -45q23 -18 56 -25q35 -9 90 -9l1044 -20v-129l-1038 20q-102 0 -166 16 q-67 15 -105 49q-39 33 -59 87t-26 131zM958 940q0 -99 31 -179q32 -83 89 -137q56 -56 138 -88t181 -32t180 32q82 32 136 88q55 55 87 137q31 80 31 179q0 115 -32 202q-31 84 -89 139q-57 54 -137 81q-79 27 -176 27t-176 -27t-138 -81q-60 -55 -92 -139 q-33 -86 -33 -202z" />
<glyph unicode="&#x10d4;" horiz-adv-x="1355" d="M123 549h151q0 -218 106 -336q105 -119 292 -119q105 0 182 34q79 35 128 90q50 56 75 132q24 76 24 160v508q0 193 -100 284t-299 91q-128 0 -197 -31q-72 -32 -107 -77q-37 -48 -47 -98q-15 -64 -20 -95h-139q1 23 8 72q6 43 24 89q16 44 49 95q33 48 87 85 q55 37 137 61q83 24 199 24q98 0 198 -21q101 -23 179 -76q81 -57 130 -150q50 -95 50 -243v-536q0 -162 -59 -263q-60 -102 -148 -160q-88 -59 -186 -81q-99 -21 -176 -21q-142 0 -246 48t-168 129q-66 81 -96 186q-31 102 -31 219z" />
<glyph unicode="&#x10d5;" horiz-adv-x="1437" d="M123 508h151q0 -199 117 -307q116 -109 322 -109q226 0 339 104q111 103 111 271q0 60 -25 114q-26 54 -68 95q-43 41 -95 65q-54 23 -109 23h-260v151h260q50 0 99 20q50 21 82 50q34 31 55 70q20 40 20 78q0 141 -107 200q-107 58 -313 58q-136 0 -210 -28 q-76 -28 -115 -69q-40 -41 -50 -90q-11 -47 -16 -92h-139q0 25 5 70q5 41 24 86q19 46 52 90q36 47 92 80q62 36 144 58q84 22 207 22q93 0 201 -11q103 -12 186 -52q85 -41 138 -115q53 -77 53 -205q0 -67 -22 -115q-21 -46 -56 -86q-32 -36 -69 -61t-66 -39q36 -18 77 -49 q44 -33 83 -80q37 -46 67 -110q27 -63 27 -138q0 -156 -63 -252q-66 -98 -158 -149q-93 -53 -200 -73q-106 -18 -189 -18q-151 0 -261 45t-180 120q-72 76 -106 173q-35 99 -35 205z" />
<glyph unicode="&#x10d6;" horiz-adv-x="1585" d="M61 1112q0 114 40 191q41 77 102 125q63 47 138 68q78 20 151 20q72 0 150 -20q75 -21 137 -68q60 -47 100 -125q39 -78 39 -191v-25q0 -17 -3 -24q99 -5 196 -36q95 -31 175 -97q78 -66 127 -169q49 -102 49 -251q0 -108 -34 -204q-34 -99 -108 -174t-183 -120 q-111 -45 -260 -45q-153 0 -262 45q-110 45 -184 120q-73 75 -108 173q-36 98 -36 205q0 123 41 231q-68 20 -118 59q-51 38 -83 87q-33 49 -49 107q-17 59 -17 118zM211 1106q0 -137 73 -200q71 -64 201 -64q131 0 207 64q76 63 76 200q0 79 -20 134q-21 55 -58 87 q-38 33 -89 48q-54 14 -116 14q-60 0 -111 -14q-50 -15 -87 -48q-36 -32 -56 -87t-20 -134zM438 510q0 -199 117 -307q116 -109 322 -109q205 0 320 109q114 108 114 307q0 116 -32 198q-31 78 -88 132q-55 51 -136 75q-81 23 -174 23q-46 -99 -142 -158q-97 -61 -264 -61 q-37 -84 -37 -209z" />
<glyph unicode="&#x10d7;" horiz-adv-x="2123" d="M123 733q0 170 25 291q24 125 67 210q43 86 102 142q60 56 124 86q63 31 135 43q72 11 137 11q57 0 119 -9q61 -10 121 -33q60 -25 114 -64q55 -40 98 -101q66 92 169 150q102 57 227 57q112 0 202 -44q89 -45 150 -121q60 -75 94 -178q33 -102 33 -219l-82 -958h-152 l82 885v45q0 108 -26 195q-26 84 -75 146q-48 60 -113 92q-67 32 -144 32q-55 0 -103 -20q-47 -21 -82 -53q-33 -29 -64 -73q-28 -39 -48 -80q66 -175 65 -432q0 -182 -34 -322q-35 -144 -108 -241q-74 -98 -183 -150q-107 -53 -260 -53q-155 0 -262 53q-111 52 -183 150 q-72 96 -109 241q-36 143 -36 322zM274 733q0 -172 31 -290q32 -123 89 -199q56 -77 138 -115q80 -37 181 -37q203 0 319 158q115 157 115 483q0 179 -32 305q-31 123 -89 204q-57 79 -137 114q-81 35 -176 35t-176 -32q-79 -31 -138 -108t-92 -203t-33 -315z" />
<glyph unicode="&#x10d8;" horiz-adv-x="1339" d="M123 686v125q0 221 48 360q48 138 125 215q75 75 175 103q97 27 201 27q100 0 199 -27q100 -28 175 -103t124 -215q47 -141 47 -360q0 -77 -1 -126q-1 -73 -6 -172q-4 -97 -12 -229q-5 -85 -22 -296h-152q17 216 23 300q9 150 11 227q1 48 4 169q1 48 1 125 q0 168 -25 278q-26 112 -75 179q-49 68 -123 96q-75 29 -168 29q-102 0 -177 -30q-74 -30 -124 -101q-49 -71 -73 -191q-24 -119 -24 -297q0 -77 1 -125q2 -73 6 -167q5 -99 12 -217q5 -85 22 -275h-151q-25 253 -33 421q-8 178 -8 277z" />
<glyph unicode="&#x10d9;" horiz-adv-x="1437" d="M123 551h151q0 -226 119 -342q118 -115 320 -115q226 0 339 104q111 103 111 271q0 60 -25 114q-26 54 -68 95q-43 41 -95 65q-54 23 -109 23h-260v152h260q52 0 99 16q49 18 82 43q34 26 55 63q20 35 20 74q0 53 -4 88q-4 38 -18 73q-15 35 -43 64q-28 28 -80 60l74 117 q55 -38 100 -78q43 -39 70 -85q27 -50 40 -103q13 -56 13 -134q0 -67 -22 -112q-22 -46 -56 -78q-33 -33 -69 -54q-37 -22 -66 -36q36 -18 77 -49q44 -33 83 -80q37 -46 67 -110q27 -61 27 -138q0 -156 -63 -252q-66 -98 -158 -149q-93 -53 -200 -73q-106 -18 -189 -18 q-153 0 -261 46q-111 47 -180 125q-72 81 -106 186q-35 108 -35 227z" />
<glyph unicode="&#x10da;" horiz-adv-x="2525" d="M145 1120v27q0 174 112 270t323 96q94 0 154 -19q63 -20 102 -53q40 -35 66 -78q24 -43 42 -93q10 50 33 93t60 78q36 33 96 53q56 19 137 19q74 0 129 -18q56 -18 94 -49q40 -32 65 -69t39 -74q13 37 39 75q25 36 67 68q41 31 105 49q62 18 154 18q217 0 328 -96 q110 -96 110 -256l-20 -641h-152l17 590q0 138 -70 208q-71 71 -244 71q-74 0 -124 -26t-80 -71q-31 -44 -43 -107q-13 -61 -13 -138l-2 -322h-151l2 317q0 81 -10 142q-10 63 -39 108q-28 44 -78 70q-49 24 -123 24q-72 0 -120 -24q-49 -26 -77 -70q-30 -47 -40 -107 q-11 -66 -11 -138v-322h-152v322q0 153 -62 248q-63 94 -198 94q-167 0 -243 -62q-76 -63 -76 -186v-25q0 -12 2 -22l55 -762q18 -172 191 -172l1597 -41v-129l-1597 39q-168 0 -248 83t-92 220l-52 762q-2 14 -2 26z" />
<glyph unicode="&#x10db;" d="M123 489q0 154 50 259q50 102 131 164q79 60 182 86q101 24 202 24q167 0 285 -56q115 -56 190 -143v150q0 193 -114 306q-115 112 -326 112q-135 0 -213 -18q-81 -20 -119 -50q-42 -32 -56 -71q-17 -41 -24 -83h-139q5 45 22 103q16 57 73 114q56 55 162 92 q108 38 288 38q105 0 211 -21q109 -23 192 -77q85 -55 141 -151q54 -96 54 -243v-532q0 -162 -63 -263q-64 -102 -157 -160q-95 -59 -199 -81q-105 -21 -191 -21q-151 0 -261 42t-180 114q-72 74 -106 166q-35 96 -35 200zM274 489q0 -197 119 -296t320 -99q114 0 198 31 q83 31 142 84q57 53 86 125q28 69 28 155q0 101 -33 177q-34 76 -93 129q-61 52 -141 77q-79 25 -175 25q-98 0 -178 -19q-81 -19 -142 -68q-61 -48 -96 -126q-35 -79 -35 -195z" />
<glyph unicode="&#x10dc;" d="M164 471v655q0 144 35 223q34 78 97 112q59 33 151 38q79 4 192 4h545v-135h-551q-99 0 -160 -3q-65 -3 -98 -22q-35 -20 -47 -63q-13 -42 -13 -125l4 -332q78 83 201 141q122 58 271 58q100 0 202 -24q103 -26 182 -86q80 -62 131 -164q50 -105 50 -259q0 -104 -35 -200 q-34 -94 -105 -166q-70 -71 -181 -114q-111 -42 -261 -42q-86 0 -191 18q-108 20 -199 74q-92 54 -156 152q-64 97 -64 260zM311 489q0 -83 29 -155t86 -125t142 -84q84 -31 198 -31q202 0 320 100q118 99 118 295q0 118 -34 195t-95 126q-62 49 -144 68q-80 19 -177 19 q-96 0 -175 -25q-81 -25 -140 -77t-94 -129q-34 -75 -34 -177z" />
<glyph unicode="&#x10dd;" horiz-adv-x="2064" d="M123 1032q0 236 105 360q103 124 333 124q81 0 156 -31q74 -31 140 -78q62 -46 109 -105q45 -57 64 -116q19 56 67 116t110 105q64 47 139 78q74 31 155 31q229 0 334 -124q104 -125 104 -360l-20 -1044h-152l21 995q0 199 -78 304q-78 104 -240 104q-88 0 -155 -43 q-69 -44 -114 -116q-47 -74 -69 -171q-24 -97 -24 -209v-369h-154v369q0 109 -23 209q-24 99 -70 171q-46 73 -113 116t-156 43q-162 0 -240 -104q-78 -105 -78 -304l21 -995h-152z" />
<glyph unicode="&#x10de;" horiz-adv-x="1435" d="M123 510h151q0 -100 34 -175q35 -77 96 -131q61 -53 145 -82q83 -28 184 -28q111 0 193 36t135 95q54 61 79 133t25 152q0 33 -12 75t-37 79q-26 36 -63 63q-38 27 -86 27l-322 2v129h322q48 0 80 17q31 17 48 44q17 28 23 62q6 35 6 71q0 63 -45 96q-46 34 -113 53 q-70 20 -148 33q-83 14 -147 41q-70 27 -114 76q-45 50 -45 138h180q0 -61 43 -89q42 -28 108 -43q60 -15 139 -28q79 -14 140 -44q62 -30 107 -92q43 -61 43 -169q0 -26 -8 -63q-9 -34 -27 -66q-17 -32 -47 -60q-26 -26 -68 -47q114 -67 152 -145q39 -80 39 -160 q0 -145 -50 -250q-51 -103 -131 -168q-82 -65 -186 -95q-107 -30 -217 -30q-151 0 -264 42t-189 115q-78 75 -115 172q-38 100 -38 214z" />
<glyph unicode="&#x10df;" horiz-adv-x="1437" d="M123 551h151q0 -226 119 -342q118 -115 320 -115q114 0 198 34t141 90q56 56 84 132q27 76 27 160l2 885l-575 -41q66 -50 100 -104q33 -56 33 -136q0 -82 -22 -148q-23 -69 -75 -120t-138 -81t-209 -30h-95v135h97q161 0 225 57q65 56 65 179q0 42 -13 87q-14 47 -49 85 q-36 39 -95 65q-59 25 -152 25l-78 -2v123h1131v-997q0 -162 -63 -263q-64 -102 -157 -160q-95 -59 -199 -81q-105 -21 -191 -21q-153 0 -261 46q-111 47 -180 125q-72 81 -106 186q-35 108 -35 227z" />
<glyph unicode="&#x10e0;" horiz-adv-x="2062" d="M123 735q5 196 57 329q53 134 143 221q89 87 208 134t254 69q131 20 280 25q145 3 287 3v-125q-73 0 -113 1q-41 1 -129 1q-127 0 -256 -13q-130 -13 -251 -59q-118 -45 -207 -134t-122 -239q51 57 125 86q75 29 162 29q79 0 156 -21q76 -22 140 -55q62 -32 109 -75 q46 -41 64 -81q18 38 65 81q48 43 110 75q61 32 139 55q75 21 155 21q114 0 198 -26q85 -28 136 -76q54 -51 79 -117t25 -150l-20 -706h-152l21 655q0 147 -75 221q-76 74 -243 74q-180 0 -271 -93q-91 -92 -91 -249v-260h-152v260q0 157 -91 249q-91 93 -271 93 q-169 0 -243 -73q-75 -73 -75 -222l21 -655h-152z" />
<glyph unicode="&#x10e1;" d="M123 492v1024h151v-1006q0 -85 28 -160q28 -76 84 -132q55 -55 140 -90q83 -34 199 -34q101 0 181 28q81 29 139 79q56 50 88 125q30 73 30 163q0 119 -31 194q-32 77 -75 123t-89 67q-49 21 -73 22q-79 6 -122 55q-44 50 -44 117v121h143v-90q0 -37 17 -57 q16 -21 67 -31q27 -7 89 -35q60 -27 120 -85t105 -156t45 -245q0 -96 -35 -192q-34 -93 -105 -167q-69 -72 -181 -118q-111 -45 -261 -45q-86 0 -191 21q-106 22 -199 81q-94 59 -156 160q-64 100 -64 263z" />
<glyph unicode="&#x10e2;" horiz-adv-x="1763" d="M123 743q0 141 45 274t133 237q90 105 214 173q127 68 290 80v31h143v-31q166 -12 294 -78q129 -68 217 -171q89 -105 135 -238q46 -132 46 -277q0 -148 -50 -289q-49 -139 -147 -247q-98 -110 -238 -174q-143 -66 -324 -66q-182 0 -323 66q-142 64 -238 174 q-98 108 -147 247q-50 141 -50 289zM264 750q0 -140 45 -258q46 -120 126 -208q83 -91 193 -139q111 -51 246 -51q138 0 250 51q111 49 195 139q81 87 127 208q45 118 45 258q0 130 -40 241q-40 110 -111 196q-72 85 -172 139q-99 53 -220 67v-779h-143v779 q-118 -12 -218 -65q-101 -54 -171 -139q-72 -85 -112 -197q-40 -111 -40 -242z" />
<glyph unicode="&#x10e3;" horiz-adv-x="1476" d="M123 545h151q0 -226 119 -339q118 -112 320 -112q114 0 198 34t141 90q56 56 84 132q27 76 27 160v676q0 47 -5 89q-5 39 -24 64q-18 24 -60 38q-40 12 -107 12q-45 0 -91 -11q-46 -12 -77 -36q-32 -25 -52 -63t-20 -89v-342h-152v342q0 104 -61 152q-62 47 -178 47h-213 v124h182q66 0 117 -6q52 -6 93 -25t75 -58q32 -36 61 -101q35 64 72 101q40 40 79 58q40 19 89 25q47 6 102 6q113 0 177 -33q64 -35 95 -90q31 -56 40 -131q8 -80 8 -157v-592q0 -162 -63 -266q-64 -105 -157 -166q-95 -62 -199 -87q-106 -24 -189 -24q-151 0 -261 45 t-180 123q-72 80 -106 184q-35 107 -35 226z" />
<glyph unicode="&#x10e4;" horiz-adv-x="2134" d="M123 948q0 156 54 265q55 109 139 176q85 67 190 97q104 30 207 30q112 0 226 -34q115 -35 200 -114q101 91 192 119q93 29 185 29q74 0 161 -24q86 -24 161 -75t124 -130t49 -189q0 -64 -22 -123q-21 -56 -55 -108q-33 -48 -70 -82q-39 -36 -66 -50q39 -19 68 -41 q34 -26 63 -66q27 -40 45 -96q17 -59 17 -133q0 -105 -40 -175q-41 -73 -103 -120q-64 -49 -146 -76q-82 -28 -165 -42q-79 -13 -162 -16q-79 -3 -138 -3q-39 0 -157 2q-80 1 -186 16q-96 15 -194 45q-95 28 -180 85l82 108q62 -47 152 -72q93 -26 182 -38q91 -13 176 -15 q112 -2 133 -2q49 0 113 3q63 3 129 15q65 10 129 33q63 21 113 56q47 32 80 85q30 49 30 122q0 61 -10 108q-11 51 -35 84q-27 36 -66 55q-41 19 -104 19h-96v131h96q60 0 104 28t74 69q30 44 44 94q14 53 14 98q0 68 -26 125q-26 55 -72 93q-49 40 -107 58q-60 19 -133 19 q-23 0 -69 -2q-33 -3 -68 -15q-36 -12 -74 -39q-39 -29 -84 -78q72 -122 71 -309q0 -108 -34 -207q-34 -101 -108 -181q-73 -79 -183 -127q-111 -48 -260 -48q-153 0 -262 48q-112 48 -183 127q-73 79 -109 181q-36 101 -36 207zM274 948q0 -99 31 -179q32 -83 89 -137 q56 -56 138 -88t181 -32t180 32q82 32 136 88q55 55 87 137q31 80 31 179q0 116 -32 201q-32 84 -89 137q-58 54 -137 79q-81 26 -176 26t-176 -26q-78 -25 -138 -79q-59 -53 -92 -137t-33 -201z" />
<glyph unicode="&#x10e5;" horiz-adv-x="1396" d="M123 510h151q0 -100 31 -175q32 -77 84 -131q52 -53 126 -82q72 -28 157 -28q99 0 174 34q76 34 129 90t81 132q27 76 27 160v377q0 194 -112 285q-113 92 -309 92q-118 0 -185 -32q-66 -31 -101 -78t-45 -98q-15 -64 -20 -95h-139q1 23 8 72q6 40 23 89q17 46 48 96 q31 48 85 86q51 36 131 61q78 24 188 24q117 0 230 -48q115 -51 198 -122v294h148l2 -1021q0 -108 -29 -189q-30 -78 -77 -138q-49 -59 -109 -96t-124 -60q-56 -21 -123 -33q-60 -9 -107 -9q-136 0 -236 45q-103 45 -170 120q-68 76 -101 173q-34 96 -34 205z" />
<glyph unicode="&#x10e6;" horiz-adv-x="2084" d="M145 1165q0 156 111 252t328 96q80 0 156 -21q74 -22 139 -54q62 -32 109 -75q45 -40 65 -81q18 40 64 81q48 43 110 75q64 32 139 54q76 21 156 21q217 0 328 -96q110 -96 110 -256l-21 -620h-151l20 573q0 273 -317 275q-179 0 -271 -93q-92 -95 -92 -249v-302h-151 v302q0 157 -91 249q-91 93 -272 93q-317 0 -317 -275v-20l51 -803q5 -75 47 -112q45 -39 103 -40l1167 -20v-129l-1161 20q-87 0 -143 22q-59 21 -93 60q-35 40 -50 93q-14 50 -19 116z" />
<glyph unicode="&#x10e7;" horiz-adv-x="1396" d="M123 410h151q0 -99 31 -160q32 -63 89 -95q56 -34 138 -46q77 -13 181 -13q114 0 185 34q72 35 112 90q41 56 56 132t15 160v156q-92 -80 -205 -119q-114 -39 -212 -39q-167 0 -273 56q-107 56 -165 144q-60 88 -81 203q-22 110 -22 228q0 93 3 184q3 87 17 186h154 q-16 -103 -18 -214q-3 -111 -3 -222q0 -100 25 -179q26 -83 74 -138q48 -57 123 -89t174 -32q114 0 191 37q77 38 126 97q48 58 71 139q21 80 21 163v438h152v-1017q0 -161 -50 -263q-49 -101 -128 -160q-78 -59 -171 -81q-93 -21 -179 -21q-301 0 -441 114 q-141 114 -141 327z" />
<glyph unicode="&#x10e8;" horiz-adv-x="1531" d="M125 1126v39q0 60 2 148q1 63 28 110q25 45 84 69t171 24q37 0 80 -6q41 -7 88 -27q43 -20 88 -59q40 -36 79 -101q44 64 91 102q47 40 92 59q41 18 85 26q41 6 68 6q113 0 172 -27t84 -76t27 -117q2 -92 2 -151v-670q0 -162 -63 -261q-64 -99 -157 -154 q-93 -56 -198 -75q-106 -18 -190 -18q-152 0 -261 42t-180 114q-72 74 -106 166q-35 96 -35 200q0 154 50 259q50 102 131 164q79 60 182 86q100 24 202 24q100 0 170 -14q67 -15 119 -41q50 -26 93 -65q68 -61 94 -83v273q0 55 -2 129q-3 53 -17 92q-13 37 -46 57 q-31 19 -91 19q-44 0 -90 -8q-41 -9 -76 -29q-33 -21 -51 -55q-19 -34 -19 -87h-161q0 102 -59 141q-61 38 -175 38q-52 0 -84 -6q-31 -7 -46 -24q-14 -17 -19 -47q-5 -33 -5 -75v-111h-151zM328 489q0 -197 119 -296t319 -99q227 0 339 106q112 105 112 273q0 102 -34 180 q-36 82 -92 134q-60 54 -139 82q-78 28 -174 28q-98 0 -178 -19q-81 -19 -142 -68q-60 -47 -95 -126t-35 -195z" />
<glyph unicode="&#x10e9;" horiz-adv-x="1398" d="M164 -12v1036q0 129 32 225q32 95 90 153q57 58 143 86q84 28 189 28q134 0 213 -38q78 -38 119 -92q40 -56 54 -114q11 -55 16 -103h-139q-5 29 -19 83q-12 39 -39 71q-28 31 -77 50q-50 18 -134 18q-104 0 -163 -35q-61 -35 -89 -93q-29 -57 -37 -134q-8 -82 -8 -156 v-150q13 14 36.5 39t34.5 36q35 36 80 64q49 28 113 44t171 16q104 0 198 -24q95 -26 167 -86t116 -164q43 -102 43 -259v-79q0 -46 -1 -72q-2 -63 -4 -89q-6 -104 -7 -114q-2 -23 -5.5 -72.5t-5.5 -74.5h-149q11 138 16 249q4 84 4 164v88q0 117 -27 195q-29 78 -81 126 q-53 49 -129 68q-75 19 -172 19q-192 0 -295 -101q-103 -102 -103 -307v-501h-151z" />
<glyph unicode="&#x10ea;" horiz-adv-x="1683" d="M123 756q0 76 3 163q3 91 19 185q16 101 49 206t95 224l133 -72q-61 -135 -91 -235q-34 -113 -46 -190q-16 -89 -17 -152q-2 -90 -2 -123q0 -138 45 -260q45 -121 126 -211t193 -142q112 -53 247 -53q119 0 218 24q96 22 169 76q70 53 108 134q39 82 39 196q0 72 -30 140 q-31 66 -84 119q-53 50 -126 82q-73 30 -155 30h-254v117h254q50 0 105 5q50 5 88 26q39 20 61 60t22 112q0 40 -19 71q-18 29 -67 53q-46 21 -126 33t-195 12v123q119 0 221 -15q103 -15 178 -49q76 -34 118 -88t42 -132q0 -195 -184 -271q82 -33 136 -79q56 -48 93 -105 q37 -56 55 -121q17 -66 17 -129q0 -274 -172 -412q-172 -139 -506 -139q-182 0 -323 72q-140 71 -239 185t-148 252q-50 141 -50 278z" />
<glyph unicode="&#x10eb;" d="M123 510q0 155 50 263q49 106 131 171q79 63 182 92q100 27 202 27q92 0 169 -21q80 -24 138 -56q59 -34 103 -75q40 -37 65 -82v687h152v-1024q0 -162 -63 -263q-64 -102 -157 -160q-95 -59 -199 -81q-105 -21 -191 -21q-151 0 -261 45t-180 120q-72 76 -106 173 q-35 99 -35 205zM274 510q0 -199 117 -307q116 -109 322 -109q114 0 198 34q83 34 142 90q58 56 86 132q28 75 28 160q0 100 -33 180q-35 81 -93 136q-60 56 -141 84q-80 28 -175 28q-94 0 -178 -23q-81 -24 -142 -74q-61 -49 -96 -132q-35 -84 -35 -199z" />
<glyph unicode="&#x10ec;" horiz-adv-x="1572" d="M166 475v670q0 59 2 151q1 65 28 117q25 49 84 76q58 27 171 27q29 0 69 -6q43 -8 84 -26q45 -19 92 -59q46 -39 90 -102q39 66 80 101q45 39 88 59q45 20 88 27q43 6 80 6q113 0 172 -24q58 -24 84 -69q25 -45 27 -110q2 -88 2 -148v-39h-152v111q0 48 -4 75 q-5 30 -19 47q-15 17 -46 24q-32 6 -84 6q-115 0 -174 -38q-60 -37 -60 -141h-161q0 52 -19 86t-52 56q-33 20 -75 29q-46 8 -90 8q-60 0 -91 -19q-33 -20 -46 -57q-16 -39 -17 -92q-2 -74 -2 -129v-273q5 4 41 36t53 47q43 39 93 65q52 26 119 41q70 14 170 14t202 -24 q103 -26 182 -86q80 -62 131 -164q50 -105 50 -259q0 -104 -35 -200q-34 -94 -105 -166q-70 -71 -181 -114q-111 -42 -261 -42q-84 0 -189 18q-106 19 -199 75q-94 56 -156 154q-64 98 -64 261zM315 473q0 -168 112 -273q112 -106 339 -106q202 0 320 100q118 99 118 295 q0 118 -34 195t-95 126q-62 49 -144 68q-80 19 -177 19q-96 0 -174 -28t-138 -82q-58 -54 -93 -134q-34 -78 -34 -180z" />
<glyph unicode="&#x10ed;" horiz-adv-x="1439" d="M123 510h151q0 -199 117 -307q116 -109 322 -109q114 0 198 31t141 84q55 52 84 125q27 72 27 155q0 57 -20 120q-21 62 -61 109t-99 79q-59 30 -137 30h-172v445h-144q-81 0 -136 -11q-52 -12 -80 -31q-28 -20 -39 -48q-11 -30 -11 -64q0 -48 17 -80q17 -33 42 -49 q24 -17 57 -25q36 -9 64 -10v-133q-59 1 -118 20q-57 16 -103 53q-45 36 -72 92q-28 55 -28 136q0 131 108 203q107 72 299 72h144v119h149v-119h357v-125h-357v-309h23q69 0 150 -31q83 -32 152 -91q72 -63 119 -152q48 -91 48 -210q0 -157 -64 -255q-65 -99 -159 -156 q-92 -57 -200 -80q-106 -21 -187 -21q-151 0 -261 45t-180 120q-72 76 -106 173q-35 99 -35 205z" />
<glyph unicode="&#x10ee;" d="M164 492v1024h151v-652q11 9 44 37.5t50 42.5q42 38 93 63q47 23 119 41q67 15 170 15q100 0 202 -27q103 -29 182 -92q80 -65 131 -171q50 -108 50 -263q0 -105 -35 -204t-105 -174q-70 -74 -181 -120q-111 -45 -261 -45q-86 0 -191 21q-106 22 -199 81q-94 59 -156 160 q-64 100 -64 263zM315 510q0 -85 28 -160q29 -76 84 -132q55 -55 140 -90q83 -34 199 -34q206 0 322 109q116 108 116 307q0 118 -34 199q-34 82 -95 132q-62 50 -144 74q-84 23 -177 23q-96 0 -174 -28q-80 -28 -138 -84q-58 -55 -93 -136q-34 -78 -34 -180z" />
<glyph unicode="&#x10ef;" horiz-adv-x="1439" d="M123 510h151q0 -199 117 -307q116 -109 322 -109q114 0 198 31t141 84q55 52 84 125q27 72 27 155q0 59 -27 120q-29 62 -77 109q-49 48 -119 79q-70 30 -156 30h-172v400l-419 43v129l419 -43v157h150v-172l461 -45v-129l-461 45v-249h22q85 0 178 -31q93 -32 172 -91 q78 -62 130 -152q51 -91 51 -210q0 -157 -64 -255q-65 -99 -159 -156q-92 -57 -200 -80q-106 -21 -187 -21q-151 0 -261 45t-180 120q-72 76 -106 173q-35 99 -35 205z" />
<glyph unicode="&#x10f0;" horiz-adv-x="1437" d="M123 510h151q0 -100 34 -175q35 -77 96 -131q61 -53 145 -82q83 -28 184 -28q223 0 328 51q104 50 104 172q0 33 -12 73q-12 42 -37 75q-26 35 -63 60q-37 24 -86 24l-322 2v129h322q87 0 143 30q55 28 55 117q0 44 -14 72q-13 27 -40 41q-28 15 -62 19q-33 4 -82 4h-322 v129h322q47 0 80 4q39 5 63 17q28 14 41 40q14 28 14 74q0 77 -54 118q-54 39 -146 39h-547v132h506q76 0 144 -13q67 -13 124 -47q54 -32 89 -88q34 -55 34 -141q0 -29 -9 -59q-11 -34 -32 -60q-24 -30 -59 -52q-38 -24 -95 -36q59 -12 95 -37q38 -26 60 -52q20 -27 31 -54 q9 -27 9 -46q0 -29 -9 -59q-11 -33 -31 -60q-24 -32 -58 -56q-37 -27 -95 -46q113 -66 153 -142t40 -157t-29 -139q-28 -56 -76 -96q-46 -39 -107 -60q-61 -22 -126 -33q-62 -10 -130 -13q-65 -3 -118 -3q-151 0 -264 42t-189 115q-78 75 -115 172q-38 100 -38 214z" />
<glyph unicode="&#x1c90;" horiz-adv-x="1372" d="M123 592v149h151v-147q0 -112 28 -202q28 -91 81 -157q51 -66 134 -104q80 -37 190 -37t184 31q74 32 120 88t67 140q20 85 20 190q0 136 -44 229q-43 90 -109 161q-69 71 -144 124q-82 58 -143 118q-66 61 -110 142q-44 80 -44 199h170q0 -103 43 -170q45 -69 107 -123 q66 -58 138 -110q74 -54 138 -129q62 -73 106 -182q43 -107 43 -270q0 -118 -27 -222q-28 -102 -90 -179q-63 -76 -167 -120q-106 -44 -258 -44q-153 0 -264 47t-182 131q-71 85 -104 198q-34 112 -34 249z" />
<glyph unicode="&#x1c91;" horiz-adv-x="1421" d="M123 510q0 145 48 250q49 105 132 172q84 67 197 99q114 32 243 32q2 14 2 27v24q0 68 -23 109q-24 41 -59 68q-35 25 -77 45q-45 20 -77 40q-37 21 -59 54q-24 32 -24 86h172q0 -39 22 -61q23 -25 52 -40q21 -12 68 -37q35 -18 69 -52q29 -29 53 -82q21 -50 21 -132 q0 -21 -1 -32q-2 -16 -3 -36q69 -14 142 -48q71 -33 136 -97q61 -63 102 -158q39 -96 39 -231q0 -108 -34 -204q-34 -99 -108 -174t-183 -120t-260 -45q-153 0 -262 45q-111 45 -183 120q-72 74 -109 173q-36 98 -36 205zM274 510q0 -199 117 -307q116 -109 322 -109 q205 0 320 109q114 108 114 307q0 115 -32 199q-31 82 -89 132t-137 74q-81 23 -176 23t-176 -23q-79 -24 -138 -74t-92 -132q-33 -83 -33 -199z" />
<glyph unicode="&#x1c92;" horiz-adv-x="1454" d="M123 532q0 112 37 214q38 104 112 179q73 76 188 123q111 46 267 46q69 0 160 -17q26 113 24 187q0 63 -60 96t-159 33q-104 0 -162 -34q-59 -35 -59 -104h-158q0 69 31 118q33 52 82 82q51 31 117 48q65 15 135 15q172 0 275 -70q102 -70 102 -180q0 -111 -31 -234 q156 -72 232 -208q75 -136 75 -294q0 -112 -37 -213t-111 -181q-73 -78 -188 -125q-113 -46 -268 -46q-156 0 -267 46q-116 47 -188 125q-74 79 -112 181q-37 101 -37 213zM274 532q0 -98 31 -176q32 -81 89 -138q57 -58 141 -90t192 -32q105 0 192 32q85 31 142 90 q56 58 88 138q31 78 31 176t-31 176q-32 80 -88 138q-58 58 -142 89q-87 32 -192 32q-108 0 -192 -32q-83 -31 -141 -89q-57 -57 -89 -138q-31 -78 -31 -176z" />
<glyph unicode="&#x1c93;" horiz-adv-x="2105" d="M145 1145q0 81 26 150q25 65 80 116q53 49 136 76q84 26 197 26q123 0 213 -44q88 -43 153 -119q88 90 209 127q121 36 238 36q100 0 205 -30q104 -31 189 -99q86 -69 138 -178q53 -111 53 -266q0 -108 -34 -207q-34 -101 -108 -181q-73 -79 -183 -127q-109 -48 -260 -48 q-153 0 -262 48q-112 48 -183 127q-73 79 -109 181q-36 101 -36 207q0 84 17 163q17 81 44 134q-38 57 -105 105q-70 47 -155 47q-162 0 -236 -74q-75 -73 -75 -221l55 -809q5 -42 14 -67q9 -29 31 -45q23 -18 56 -25q35 -9 90 -9l1044 -20v-129l-1038 20q-102 0 -166 16 q-67 15 -105 49q-39 33 -59 87t-26 131zM958 940q0 -99 31 -179q32 -83 89 -137q56 -56 138 -88t181 -32t180 32q82 32 136 88q55 55 87 137q31 80 31 179q0 115 -32 202q-31 84 -89 139q-57 54 -137 81q-79 27 -176 27t-176 -27t-138 -81q-60 -55 -92 -139 q-33 -86 -33 -202z" />
<glyph unicode="&#x1c94;" horiz-adv-x="1355" d="M123 549h151q0 -218 106 -336q105 -119 292 -119q105 0 182 34q79 35 128 90q50 56 75 132q24 76 24 160v508q0 193 -100 284t-299 91q-128 0 -197 -31q-72 -32 -107 -77q-37 -48 -47 -98q-15 -64 -20 -95h-139q1 23 8 72q6 43 24 89q16 44 49 95q33 48 87 85 q55 37 137 61q83 24 199 24q98 0 198 -21q101 -23 179 -76q81 -57 130 -150q50 -95 50 -243v-536q0 -162 -59 -263q-60 -102 -148 -160q-88 -59 -186 -81q-99 -21 -176 -21q-142 0 -246 48t-168 129q-66 81 -96 186q-31 102 -31 219z" />
<glyph unicode="&#x1c95;" horiz-adv-x="1437" d="M123 508h151q0 -199 117 -307q116 -109 322 -109q226 0 339 104q111 103 111 271q0 60 -25 114q-26 54 -68 95q-43 41 -95 65q-54 23 -109 23h-260v151h260q50 0 99 20q50 21 82 50q34 31 55 70q20 40 20 78q0 141 -107 200q-107 58 -313 58q-136 0 -210 -28 q-76 -28 -115 -69q-40 -41 -50 -90q-11 -47 -16 -92h-139q0 25 5 70q5 41 24 86q19 46 52 90q36 47 92 80q62 36 144 58q84 22 207 22q93 0 201 -11q103 -12 186 -52q85 -41 138 -115q53 -77 53 -205q0 -67 -22 -115q-21 -46 -56 -86q-32 -36 -69 -61t-66 -39q36 -18 77 -49 q44 -33 83 -80q37 -46 67 -110q27 -63 27 -138q0 -156 -63 -252q-66 -98 -158 -149q-93 -53 -200 -73q-106 -18 -189 -18q-151 0 -261 45t-180 120q-72 76 -106 173q-35 99 -35 205z" />
<glyph unicode="&#x1c96;" horiz-adv-x="1585" d="M61 1112q0 114 40 191q41 77 102 125q63 47 138 68q78 20 151 20q72 0 150 -20q75 -21 137 -68q60 -47 100 -125q39 -78 39 -191v-25q0 -17 -3 -24q99 -5 196 -36q95 -31 175 -97q78 -66 127 -169q49 -102 49 -251q0 -108 -34 -204q-34 -99 -108 -174t-183 -120 q-111 -45 -260 -45q-153 0 -262 45q-110 45 -184 120q-73 75 -108 173q-36 98 -36 205q0 123 41 231q-68 20 -118 59q-51 38 -83 87q-33 49 -49 107q-17 59 -17 118zM211 1106q0 -137 73 -200q71 -64 201 -64q131 0 207 64q76 63 76 200q0 79 -20 134q-21 55 -58 87 q-38 33 -89 48q-54 14 -116 14q-60 0 -111 -14q-50 -15 -87 -48q-36 -32 -56 -87t-20 -134zM438 510q0 -199 117 -307q116 -109 322 -109q205 0 320 109q114 108 114 307q0 116 -32 198q-31 78 -88 132q-55 51 -136 75q-81 23 -174 23q-46 -99 -142 -158q-97 -61 -264 -61 q-37 -84 -37 -209z" />
<glyph unicode="&#x1c97;" horiz-adv-x="2123" d="M123 733q0 170 25 291q24 125 67 210q43 86 102 142q60 56 124 86q63 31 135 43q72 11 137 11q57 0 119 -9q61 -10 121 -33q60 -25 114 -64q55 -40 98 -101q66 92 169 150q102 57 227 57q112 0 202 -44q89 -45 150 -121q60 -75 94 -178q33 -102 33 -219l-82 -958h-152 l82 885v45q0 108 -26 195q-26 84 -75 146q-48 60 -113 92q-67 32 -144 32q-55 0 -103 -20q-47 -21 -82 -53q-33 -29 -64 -73q-28 -39 -48 -80q66 -175 65 -432q0 -182 -34 -322q-35 -144 -108 -241q-74 -98 -183 -150q-107 -53 -260 -53q-155 0 -262 53q-111 52 -183 150 q-72 96 -109 241q-36 143 -36 322zM274 733q0 -172 31 -290q32 -123 89 -199q56 -77 138 -115q80 -37 181 -37q203 0 319 158q115 157 115 483q0 179 -32 305q-31 123 -89 204q-57 79 -137 114q-81 35 -176 35t-176 -32q-79 -31 -138 -108t-92 -203t-33 -315z" />
<glyph unicode="&#x1c98;" horiz-adv-x="1339" d="M123 686v125q0 221 48 360q48 138 125 215q75 75 175 103q97 27 201 27q100 0 199 -27q100 -28 175 -103t124 -215q47 -141 47 -360q0 -77 -1 -126q-1 -73 -6 -172q-4 -97 -12 -229q-5 -85 -22 -296h-152q17 216 23 300q9 150 11 227q1 48 4 169q1 48 1 125 q0 168 -25 278q-26 112 -75 179q-49 68 -123 96q-75 29 -168 29q-102 0 -177 -30q-74 -30 -124 -101q-49 -71 -73 -191q-24 -119 -24 -297q0 -77 1 -125q2 -73 6 -167q5 -99 12 -217q5 -85 22 -275h-151q-25 253 -33 421q-8 178 -8 277z" />
<glyph unicode="&#x1c99;" horiz-adv-x="1437" d="M123 551h151q0 -226 119 -342q118 -115 320 -115q226 0 339 104q111 103 111 271q0 60 -25 114q-26 54 -68 95q-43 41 -95 65q-54 23 -109 23h-260v152h260q52 0 99 16q49 18 82 43q34 26 55 63q20 35 20 74q0 53 -4 88q-4 38 -18 73q-15 35 -43 64q-28 28 -80 60l74 117 q55 -38 100 -78q43 -39 70 -85q27 -50 40 -103q13 -56 13 -134q0 -67 -22 -112q-22 -46 -56 -78q-33 -33 -69 -54q-37 -22 -66 -36q36 -18 77 -49q44 -33 83 -80q37 -46 67 -110q27 -61 27 -138q0 -156 -63 -252q-66 -98 -158 -149q-93 -53 -200 -73q-106 -18 -189 -18 q-153 0 -261 46q-111 47 -180 125q-72 81 -106 186q-35 108 -35 227z" />
<glyph unicode="&#x1c9a;" horiz-adv-x="2525" d="M145 1120v27q0 174 112 270t323 96q94 0 154 -19q63 -20 102 -53q40 -35 66 -78q24 -43 42 -93q10 50 33 93t60 78q36 33 96 53q56 19 137 19q74 0 129 -18q56 -18 94 -49q40 -32 65 -69t39 -74q13 37 39 75q25 36 67 68q41 31 105 49q62 18 154 18q217 0 328 -96 q110 -96 110 -256l-20 -641h-152l17 590q0 138 -70 208q-71 71 -244 71q-74 0 -124 -26t-80 -71q-31 -44 -43 -107q-13 -61 -13 -138l-2 -322h-151l2 317q0 81 -10 142q-10 63 -39 108q-28 44 -78 70q-49 24 -123 24q-72 0 -120 -24q-49 -26 -77 -70q-30 -47 -40 -107 q-11 -66 -11 -138v-322h-152v322q0 153 -62 248q-63 94 -198 94q-167 0 -243 -62q-76 -63 -76 -186v-25q0 -12 2 -22l55 -762q18 -172 191 -172l1597 -41v-129l-1597 39q-168 0 -248 83t-92 220l-52 762q-2 14 -2 26z" />
<glyph unicode="&#x1c9b;" d="M123 489q0 154 50 259q50 102 131 164q79 60 182 86q101 24 202 24q167 0 285 -56q115 -56 190 -143v150q0 193 -114 306q-115 112 -326 112q-135 0 -213 -18q-81 -20 -119 -50q-42 -32 -56 -71q-17 -41 -24 -83h-139q5 45 22 103q16 57 73 114q56 55 162 92 q108 38 288 38q105 0 211 -21q109 -23 192 -77q85 -55 141 -151q54 -96 54 -243v-532q0 -162 -63 -263q-64 -102 -157 -160q-95 -59 -199 -81q-105 -21 -191 -21q-151 0 -261 42t-180 114q-72 74 -106 166q-35 96 -35 200zM274 489q0 -197 119 -296t320 -99q114 0 198 31 q83 31 142 84q57 53 86 125q28 69 28 155q0 101 -33 177q-34 76 -93 129q-61 52 -141 77q-79 25 -175 25q-98 0 -178 -19q-81 -19 -142 -68q-61 -48 -96 -126q-35 -79 -35 -195z" />
<glyph unicode="&#x1c9c;" d="M164 471v655q0 144 35 223q34 78 97 112q59 33 151 38q79 4 192 4h545v-135h-551q-99 0 -160 -3q-65 -3 -98 -22q-35 -20 -47 -63q-13 -42 -13 -125l4 -332q78 83 201 141q122 58 271 58q100 0 202 -24q103 -26 182 -86q80 -62 131 -164q50 -105 50 -259q0 -104 -35 -200 q-34 -94 -105 -166q-70 -71 -181 -114q-111 -42 -261 -42q-86 0 -191 18q-108 20 -199 74q-92 54 -156 152q-64 97 -64 260zM311 489q0 -83 29 -155t86 -125t142 -84q84 -31 198 -31q202 0 320 100q118 99 118 295q0 118 -34 195t-95 126q-62 49 -144 68q-80 19 -177 19 q-96 0 -175 -25q-81 -25 -140 -77t-94 -129q-34 -75 -34 -177z" />
<glyph unicode="&#x1c9d;" horiz-adv-x="2064" d="M123 1032q0 236 105 360q103 124 333 124q81 0 156 -31q74 -31 140 -78q62 -46 109 -105q45 -57 64 -116q19 56 67 116t110 105q64 47 139 78q74 31 155 31q229 0 334 -124q104 -125 104 -360l-20 -1044h-152l21 995q0 199 -78 304q-78 104 -240 104q-88 0 -155 -43 q-69 -44 -114 -116q-47 -74 -69 -171q-24 -97 -24 -209v-369h-154v369q0 109 -23 209q-24 99 -70 171q-46 73 -113 116t-156 43q-162 0 -240 -104q-78 -105 -78 -304l21 -995h-152z" />
<glyph unicode="&#x1c9e;" horiz-adv-x="1435" d="M123 510h151q0 -100 34 -175q35 -77 96 -131q61 -53 145 -82q83 -28 184 -28q111 0 193 36t135 95q54 61 79 133t25 152q0 33 -12 75t-37 79q-26 36 -63 63q-38 27 -86 27l-322 2v129h322q48 0 80 17q31 17 48 44q17 28 23 62q6 35 6 71q0 63 -45 96q-46 34 -113 53 q-70 20 -148 33q-83 14 -147 41q-70 27 -114 76q-45 50 -45 138h180q0 -61 43 -89q42 -28 108 -43q60 -15 139 -28q79 -14 140 -44q62 -30 107 -92q43 -61 43 -169q0 -26 -8 -63q-9 -34 -27 -66q-17 -32 -47 -60q-26 -26 -68 -47q114 -67 152 -145q39 -80 39 -160 q0 -145 -50 -250q-51 -103 -131 -168q-82 -65 -186 -95q-107 -30 -217 -30q-151 0 -264 42t-189 115q-78 75 -115 172q-38 100 -38 214z" />
<glyph unicode="&#x1c9f;" horiz-adv-x="1437" d="M123 551h151q0 -226 119 -342q118 -115 320 -115q114 0 198 34t141 90q56 56 84 132q27 76 27 160l2 885l-575 -41q66 -50 100 -104q33 -56 33 -136q0 -82 -22 -148q-23 -69 -75 -120t-138 -81t-209 -30h-95v135h97q161 0 225 57q65 56 65 179q0 42 -13 87q-14 47 -49 85 q-36 39 -95 65q-59 25 -152 25l-78 -2v123h1131v-997q0 -162 -63 -263q-64 -102 -157 -160q-95 -59 -199 -81q-105 -21 -191 -21q-153 0 -261 46q-111 47 -180 125q-72 81 -106 186q-35 108 -35 227z" />
<glyph unicode="&#x1ca0;" horiz-adv-x="2062" d="M123 735q5 196 57 329q53 134 143 221q89 87 208 134t254 69q131 20 280 25q145 3 287 3v-125q-73 0 -113 1q-41 1 -129 1q-127 0 -256 -13q-130 -13 -251 -59q-118 -45 -207 -134t-122 -239q51 57 125 86q75 29 162 29q79 0 156 -21q76 -22 140 -55q62 -32 109 -75 q46 -41 64 -81q18 38 65 81q48 43 110 75q61 32 139 55q75 21 155 21q114 0 198 -26q85 -28 136 -76q54 -51 79 -117t25 -150l-20 -706h-152l21 655q0 147 -75 221q-76 74 -243 74q-180 0 -271 -93q-91 -92 -91 -249v-260h-152v260q0 157 -91 249q-91 93 -271 93 q-169 0 -243 -73q-75 -73 -75 -222l21 -655h-152z" />
<glyph unicode="&#x1ca1;" d="M123 492v1024h151v-1006q0 -85 28 -160q28 -76 84 -132q55 -55 140 -90q83 -34 199 -34q101 0 181 28q81 29 139 79q56 50 88 125q30 73 30 163q0 119 -31 194q-32 77 -75 123t-89 67q-49 21 -73 22q-79 6 -122 55q-44 50 -44 117v121h143v-90q0 -37 17 -57 q16 -21 67 -31q27 -7 89 -35q60 -27 120 -85t105 -156t45 -245q0 -96 -35 -192q-34 -93 -105 -167q-69 -72 -181 -118q-111 -45 -261 -45q-86 0 -191 21q-106 22 -199 81q-94 59 -156 160q-64 100 -64 263z" />
<glyph unicode="&#x1ca2;" horiz-adv-x="1763" d="M123 743q0 141 45 274t133 237q90 105 214 173q127 68 290 80v31h143v-31q166 -12 294 -78q129 -68 217 -171q89 -105 135 -238q46 -132 46 -277q0 -148 -50 -289q-49 -139 -147 -247q-98 -110 -238 -174q-143 -66 -324 -66q-182 0 -323 66q-142 64 -238 174 q-98 108 -147 247q-50 141 -50 289zM264 750q0 -140 45 -258q46 -120 126 -208q83 -91 193 -139q111 -51 246 -51q138 0 250 51q111 49 195 139q81 87 127 208q45 118 45 258q0 130 -40 241q-40 110 -111 196q-72 85 -172 139q-99 53 -220 67v-779h-143v779 q-118 -12 -218 -65q-101 -54 -171 -139q-72 -85 -112 -197q-40 -111 -40 -242z" />
<glyph unicode="&#x1ca3;" horiz-adv-x="1476" d="M123 545h151q0 -226 119 -339q118 -112 320 -112q114 0 198 34t141 90q56 56 84 132q27 76 27 160v676q0 47 -5 89q-5 39 -24 64q-18 24 -60 38q-40 12 -107 12q-45 0 -91 -11q-46 -12 -77 -36q-32 -25 -52 -63t-20 -89v-342h-152v342q0 104 -61 152q-62 47 -178 47h-213 v124h182q66 0 117 -6q52 -6 93 -25t75 -58q32 -36 61 -101q35 64 72 101q40 40 79 58q40 19 89 25q47 6 102 6q113 0 177 -33q64 -35 95 -90q31 -56 40 -131q8 -80 8 -157v-592q0 -162 -63 -266q-64 -105 -157 -166q-95 -62 -199 -87q-106 -24 -189 -24q-151 0 -261 45 t-180 123q-72 80 -106 184q-35 107 -35 226z" />
<glyph unicode="&#x1ca4;" horiz-adv-x="2134" d="M123 948q0 156 54 265q55 109 139 176q85 67 190 97q104 30 207 30q112 0 226 -34q115 -35 200 -114q101 91 192 119q93 29 185 29q74 0 161 -24q86 -24 161 -75t124 -130t49 -189q0 -64 -22 -123q-21 -56 -55 -108q-33 -48 -70 -82q-39 -36 -66 -50q39 -19 68 -41 q34 -26 63 -66q27 -40 45 -96q17 -59 17 -133q0 -105 -40 -175q-41 -73 -103 -120q-64 -49 -146 -76q-82 -28 -165 -42q-79 -13 -162 -16q-79 -3 -138 -3q-39 0 -157 2q-80 1 -186 16q-96 15 -194 45q-95 28 -180 85l82 108q62 -47 152 -72q93 -26 182 -38q91 -13 176 -15 q112 -2 133 -2q49 0 113 3q63 3 129 15q65 10 129 33q63 21 113 56q47 32 80 85q30 49 30 122q0 61 -10 108q-11 51 -35 84q-27 36 -66 55q-41 19 -104 19h-96v131h96q60 0 104 28t74 69q30 44 44 94q14 53 14 98q0 68 -26 125q-26 55 -72 93q-49 40 -107 58q-60 19 -133 19 q-23 0 -69 -2q-33 -3 -68 -15q-36 -12 -74 -39q-39 -29 -84 -78q72 -122 71 -309q0 -108 -34 -207q-34 -101 -108 -181q-73 -79 -183 -127q-111 -48 -260 -48q-153 0 -262 48q-112 48 -183 127q-73 79 -109 181q-36 101 -36 207zM274 948q0 -99 31 -179q32 -83 89 -137 q56 -56 138 -88t181 -32t180 32q82 32 136 88q55 55 87 137q31 80 31 179q0 116 -32 201q-32 84 -89 137q-58 54 -137 79q-81 26 -176 26t-176 -26q-78 -25 -138 -79q-59 -53 -92 -137t-33 -201z" />
<glyph unicode="&#x1ca5;" horiz-adv-x="1396" d="M123 510h151q0 -100 31 -175q32 -77 84 -131q52 -53 126 -82q72 -28 157 -28q99 0 174 34q76 34 129 90t81 132q27 76 27 160v377q0 194 -112 285q-113 92 -309 92q-118 0 -185 -32q-66 -31 -101 -78t-45 -98q-15 -64 -20 -95h-139q1 23 8 72q6 40 23 89q17 46 48 96 q31 48 85 86q51 36 131 61q78 24 188 24q117 0 230 -48q115 -51 198 -122v294h148l2 -1021q0 -108 -29 -189q-30 -78 -77 -138q-49 -59 -109 -96t-124 -60q-56 -21 -123 -33q-60 -9 -107 -9q-136 0 -236 45q-103 45 -170 120q-68 76 -101 173q-34 96 -34 205z" />
<glyph unicode="&#x1ca6;" horiz-adv-x="2084" d="M145 1165q0 156 111 252t328 96q80 0 156 -21q74 -22 139 -54q62 -32 109 -75q45 -40 65 -81q18 40 64 81q48 43 110 75q64 32 139 54q76 21 156 21q217 0 328 -96q110 -96 110 -256l-21 -620h-151l20 573q0 273 -317 275q-179 0 -271 -93q-92 -95 -92 -249v-302h-151 v302q0 157 -91 249q-91 93 -272 93q-317 0 -317 -275v-20l51 -803q5 -75 47 -112q45 -39 103 -40l1167 -20v-129l-1161 20q-87 0 -143 22q-59 21 -93 60q-35 40 -50 93q-14 50 -19 116z" />
<glyph unicode="&#x1ca7;" horiz-adv-x="1396" d="M123 410h151q0 -99 31 -160q32 -63 89 -95q56 -34 138 -46q77 -13 181 -13q114 0 185 34q72 35 112 90q41 56 56 132t15 160v156q-92 -80 -205 -119q-114 -39 -212 -39q-167 0 -273 56q-107 56 -165 144q-60 88 -81 203q-22 110 -22 228q0 93 3 184q3 87 17 186h154 q-16 -103 -18 -214q-3 -111 -3 -222q0 -100 25 -179q26 -83 74 -138q48 -57 123 -89t174 -32q114 0 191 37q77 38 126 97q48 58 71 139q21 80 21 163v438h152v-1017q0 -161 -50 -263q-49 -101 -128 -160q-78 -59 -171 -81q-93 -21 -179 -21q-301 0 -441 114 q-141 114 -141 327z" />
<glyph unicode="&#x1ca8;" horiz-adv-x="1531" d="M125 1126v39q0 60 2 148q1 63 28 110q25 45 84 69t171 24q37 0 80 -6q41 -7 88 -27q43 -20 88 -59q40 -36 79 -101q44 64 91 102q47 40 92 59q41 18 85 26q41 6 68 6q113 0 172 -27t84 -76t27 -117q2 -92 2 -151v-670q0 -162 -63 -261q-64 -99 -157 -154 q-93 -56 -198 -75q-106 -18 -190 -18q-152 0 -261 42t-180 114q-72 74 -106 166q-35 96 -35 200q0 154 50 259q50 102 131 164q79 60 182 86q100 24 202 24q100 0 170 -14q67 -15 119 -41q50 -26 93 -65q68 -61 94 -83v273q0 55 -2 129q-3 53 -17 92q-13 37 -46 57 q-31 19 -91 19q-44 0 -90 -8q-41 -9 -76 -29q-33 -21 -51 -55q-19 -34 -19 -87h-161q0 102 -59 141q-61 38 -175 38q-52 0 -84 -6q-31 -7 -46 -24q-14 -17 -19 -47q-5 -33 -5 -75v-111h-151zM328 489q0 -197 119 -296t319 -99q227 0 339 106q112 105 112 273q0 102 -34 180 q-36 82 -92 134q-60 54 -139 82q-78 28 -174 28q-98 0 -178 -19q-81 -19 -142 -68q-60 -47 -95 -126t-35 -195z" />
<glyph unicode="&#x1ca9;" horiz-adv-x="1398" d="M164 -12v1036q0 129 32 225q32 95 90 153q57 58 143 86q84 28 189 28q134 0 213 -38q78 -38 119 -92q40 -56 54 -114q11 -55 16 -103h-139q-5 29 -19 83q-12 39 -39 71q-28 31 -77 50q-50 18 -134 18q-104 0 -163 -35q-61 -35 -89 -93q-29 -57 -37 -134q-8 -82 -8 -156 v-150q13 14 36.5 39t34.5 36q35 36 80 64q49 28 113 44t171 16q104 0 198 -24q95 -26 167 -86t116 -164q43 -102 43 -259v-79q0 -46 -1 -72q-2 -63 -4 -89q-6 -104 -7 -114q-2 -23 -5.5 -72.5t-5.5 -74.5h-149q11 138 16 249q4 84 4 164v88q0 117 -27 195q-29 78 -81 126 q-53 49 -129 68q-75 19 -172 19q-192 0 -295 -101q-103 -102 -103 -307v-501h-151z" />
<glyph unicode="&#x1caa;" horiz-adv-x="1683" d="M123 756q0 76 3 163q3 91 19 185q16 101 49 206t95 224l133 -72q-61 -135 -91 -235q-34 -113 -46 -190q-16 -89 -17 -152q-2 -90 -2 -123q0 -138 45 -260q45 -121 126 -211t193 -142q112 -53 247 -53q119 0 218 24q96 22 169 76q70 53 108 134q39 82 39 196q0 72 -30 140 q-31 66 -84 119q-53 50 -126 82q-73 30 -155 30h-254v117h254q50 0 105 5q50 5 88 26q39 20 61 60t22 112q0 40 -19 71q-18 29 -67 53q-46 21 -126 33t-195 12v123q119 0 221 -15q103 -15 178 -49q76 -34 118 -88t42 -132q0 -195 -184 -271q82 -33 136 -79q56 -48 93 -105 q37 -56 55 -121q17 -66 17 -129q0 -274 -172 -412q-172 -139 -506 -139q-182 0 -323 72q-140 71 -239 185t-148 252q-50 141 -50 278z" />
<glyph unicode="&#x1cab;" d="M123 510q0 155 50 263q49 106 131 171q79 63 182 92q100 27 202 27q92 0 169 -21q80 -24 138 -56q59 -34 103 -75q40 -37 65 -82v687h152v-1024q0 -162 -63 -263q-64 -102 -157 -160q-95 -59 -199 -81q-105 -21 -191 -21q-151 0 -261 45t-180 120q-72 76 -106 173 q-35 99 -35 205zM274 510q0 -199 117 -307q116 -109 322 -109q114 0 198 34q83 34 142 90q58 56 86 132q28 75 28 160q0 100 -33 180q-35 81 -93 136q-60 56 -141 84q-80 28 -175 28q-94 0 -178 -23q-81 -24 -142 -74q-61 -49 -96 -132q-35 -84 -35 -199z" />
<glyph unicode="&#x1cac;" horiz-adv-x="1572" d="M166 475v670q0 59 2 151q1 65 28 117q25 49 84 76q58 27 171 27q29 0 69 -6q43 -8 84 -26q45 -19 92 -59q46 -39 90 -102q39 66 80 101q45 39 88 59q45 20 88 27q43 6 80 6q113 0 172 -24q58 -24 84 -69q25 -45 27 -110q2 -88 2 -148v-39h-152v111q0 48 -4 75 q-5 30 -19 47q-15 17 -46 24q-32 6 -84 6q-115 0 -174 -38q-60 -37 -60 -141h-161q0 52 -19 86t-52 56q-33 20 -75 29q-46 8 -90 8q-60 0 -91 -19q-33 -20 -46 -57q-16 -39 -17 -92q-2 -74 -2 -129v-273q5 4 41 36t53 47q43 39 93 65q52 26 119 41q70 14 170 14t202 -24 q103 -26 182 -86q80 -62 131 -164q50 -105 50 -259q0 -104 -35 -200q-34 -94 -105 -166q-70 -71 -181 -114q-111 -42 -261 -42q-84 0 -189 18q-106 19 -199 75q-94 56 -156 154q-64 98 -64 261zM315 473q0 -168 112 -273q112 -106 339 -106q202 0 320 100q118 99 118 295 q0 118 -34 195t-95 126q-62 49 -144 68q-80 19 -177 19q-96 0 -174 -28t-138 -82q-58 -54 -93 -134q-34 -78 -34 -180z" />
<glyph unicode="&#x1cad;" horiz-adv-x="1439" d="M123 510h151q0 -199 117 -307q116 -109 322 -109q114 0 198 31t141 84q55 52 84 125q27 72 27 155q0 57 -20 120q-21 62 -61 109t-99 79q-59 30 -137 30h-172v445h-144q-81 0 -136 -11q-52 -12 -80 -31q-28 -20 -39 -48q-11 -30 -11 -64q0 -48 17 -80q17 -33 42 -49 q24 -17 57 -25q36 -9 64 -10v-133q-59 1 -118 20q-57 16 -103 53q-45 36 -72 92q-28 55 -28 136q0 131 108 203q107 72 299 72h144v119h149v-119h357v-125h-357v-309h23q69 0 150 -31q83 -32 152 -91q72 -63 119 -152q48 -91 48 -210q0 -157 -64 -255q-65 -99 -159 -156 q-92 -57 -200 -80q-106 -21 -187 -21q-151 0 -261 45t-180 120q-72 76 -106 173q-35 99 -35 205z" />
<glyph unicode="&#x1cae;" d="M164 492v1024h151v-652q11 9 44 37.5t50 42.5q42 38 93 63q47 23 119 41q67 15 170 15q100 0 202 -27q103 -29 182 -92q80 -65 131 -171q50 -108 50 -263q0 -105 -35 -204t-105 -174q-70 -74 -181 -120q-111 -45 -261 -45q-86 0 -191 21q-106 22 -199 81q-94 59 -156 160 q-64 100 -64 263zM315 510q0 -85 28 -160q29 -76 84 -132q55 -55 140 -90q83 -34 199 -34q206 0 322 109q116 108 116 307q0 118 -34 199q-34 82 -95 132q-62 50 -144 74q-84 23 -177 23q-96 0 -174 -28q-80 -28 -138 -84q-58 -55 -93 -136q-34 -78 -34 -180z" />
<glyph unicode="&#x1caf;" horiz-adv-x="1439" d="M123 510h151q0 -199 117 -307q116 -109 322 -109q114 0 198 31t141 84q55 52 84 125q27 72 27 155q0 59 -27 120q-29 62 -77 109q-49 48 -119 79q-70 30 -156 30h-172v400l-419 43v129l419 -43v157h150v-172l461 -45v-129l-461 45v-249h22q85 0 178 -31q93 -32 172 -91 q78 -62 130 -152q51 -91 51 -210q0 -157 -64 -255q-65 -99 -159 -156q-92 -57 -200 -80q-106 -21 -187 -21q-151 0 -261 45t-180 120q-72 76 -106 173q-35 99 -35 205z" />
<glyph unicode="&#x1cb0;" horiz-adv-x="1437" d="M123 510h151q0 -100 34 -175q35 -77 96 -131q61 -53 145 -82q83 -28 184 -28q223 0 328 51q104 50 104 172q0 33 -12 73q-12 42 -37 75q-26 35 -63 60q-37 24 -86 24l-322 2v129h322q87 0 143 30q55 28 55 117q0 44 -14 72q-13 27 -40 41q-28 15 -62 19q-33 4 -82 4h-322 v129h322q47 0 80 4q39 5 63 17q28 14 41 40q14 28 14 74q0 77 -54 118q-54 39 -146 39h-547v132h506q76 0 144 -13q67 -13 124 -47q54 -32 89 -88q34 -55 34 -141q0 -29 -9 -59q-11 -34 -32 -60q-24 -30 -59 -52q-38 -24 -95 -36q59 -12 95 -37q38 -26 60 -52q20 -27 31 -54 q9 -27 9 -46q0 -29 -9 -59q-11 -33 -31 -60q-24 -32 -58 -56q-37 -27 -95 -46q113 -66 153 -142t40 -157t-29 -139q-28 -56 -76 -96q-46 -39 -107 -60q-61 -22 -126 -33q-62 -10 -130 -13q-65 -3 -118 -3q-151 0 -264 42t-189 115q-78 75 -115 172q-38 100 -38 214z" />
<glyph unicode="&#x2000;" horiz-adv-x="787" />
<glyph unicode="&#x2001;" horiz-adv-x="1575" />
<glyph unicode="&#x2002;" horiz-adv-x="787" />
<glyph unicode="&#x2003;" horiz-adv-x="1575" />
<glyph unicode="&#x2004;" horiz-adv-x="525" />
<glyph unicode="&#x2005;" horiz-adv-x="393" />
<glyph unicode="&#x2006;" horiz-adv-x="262" />
<glyph unicode="&#x2007;" horiz-adv-x="262" />
<glyph unicode="&#x2008;" horiz-adv-x="196" />
<glyph unicode="&#x2009;" horiz-adv-x="315" />
<glyph unicode="&#x200a;" horiz-adv-x="87" />
<glyph unicode="&#x2010;" horiz-adv-x="909" d="M143 485v152h623v-152h-623z" />
<glyph unicode="&#x2011;" horiz-adv-x="909" d="M143 485v152h623v-152h-623z" />
<glyph unicode="&#x2012;" horiz-adv-x="909" d="M143 485v152h623v-152h-623z" />
<glyph unicode="&#x2013;" horiz-adv-x="1024" d="M0 498v127h1024v-127h-1024z" />
<glyph unicode="&#x2014;" horiz-adv-x="2048" d="M0 498v127h2048v-127h-2048z" />
<glyph unicode="&#x2018;" horiz-adv-x="569" d="M197 950v230q0 127 55 194q55 66 139 88v-78q-61 -28 -76 -80q-16 -49 -16 -128h74v-226h-176z" />
<glyph unicode="&#x2019;" horiz-adv-x="569" d="M178 950v78q60 28 77 80q15 51 15 129h-73v225h176v-229q0 -128 -55 -193q-55 -67 -140 -90z" />
<glyph unicode="&#x201a;" horiz-adv-x="569" d="M178 -209q60 28 77 80q15 51 15 129h-73v225h176v-229q0 -127 -55 -194q-56 -66 -140 -89v78z" />
<glyph unicode="&#x201c;" horiz-adv-x="833" d="M145 950v230q0 126 56 194q55 66 139 88v-78q-61 -28 -76 -80q-16 -49 -16 -128h74v-226h-177zM512 950v230q0 126 56 194q55 66 139 88v-78q-60 -28 -77 -80q-16 -49 -16 -128h74v-226h-176z" />
<glyph unicode="&#x201d;" horiz-adv-x="833" d="M127 950v78q60 28 77 80q15 51 15 129h-74v225h177v-229q0 -128 -55 -193q-55 -67 -140 -90zM494 950v78q60 28 77 80q15 51 15 129h-74v225h176v-229q0 -128 -55 -193q-56 -68 -139 -90z" />
<glyph unicode="&#x201e;" horiz-adv-x="833" d="M127 -209q60 28 77 80q15 51 15 129h-74v225h177v-229q0 -127 -55 -194q-56 -66 -140 -89v78zM494 -209q60 28 77 80q15 51 15 129h-74v225h176v-229q0 -127 -55 -194q-56 -67 -139 -89v78z" />
<glyph unicode="&#x2020;" horiz-adv-x="1368" d="M115 870v127h493v465h152v-465h493v-127h-493v-1189h-152v1189h-493z" />
<glyph unicode="&#x2021;" horiz-adv-x="1368" d="M115 125v127h493v649h-493v127h493v434h152v-434h493v-127h-493v-649h493v-127h-493v-444h-152v444h-493z" />
<glyph unicode="&#x2022;" horiz-adv-x="1026" d="M147 731q0 74 29 143q29 67 78 116q52 52 116 79q67 29 142 29q74 0 143 -29q65 -28 116 -79t79 -116q29 -69 29 -143q0 -75 -29 -142q-27 -64 -79 -116q-47 -47 -116 -77q-69 -29 -143 -29q-75 0 -142 29q-67 28 -116 77q-50 50 -78 116q-29 67 -29 142z" />
<glyph unicode="&#x2026;" horiz-adv-x="2048" d="M254 0v225h176v-225h-176zM936 0v225h176v-225h-176zM1618 0v225h176v-225h-176z" />
<glyph unicode="&#x202f;" horiz-adv-x="315" />
<glyph unicode="&#x2030;" horiz-adv-x="2390" d="M12 1053q0 99 28 173q29 75 75 124t113 75q63 25 143 25q77 0 143 -25q67 -26 113 -75t75 -124q27 -75 27 -173t-27 -173q-28 -74 -75 -124q-46 -49 -113 -75q-69 -26 -143 -26q-77 0 -143 26q-67 26 -113 75q-47 50 -75 124q-28 72 -28 173zM139 1053q0 -142 61 -218 q60 -77 171 -77t171 77t60 218t-60 218q-62 77 -171 77q-111 0 -171 -77q-61 -76 -61 -218zM858 365q0 99 28 173q28 75 75 124q46 49 113 75q63 25 143 25q77 0 142 -25q66 -25 114 -75q46 -49 75 -124q27 -75 27 -173t-27 -173q-28 -74 -75 -124q-47 -49 -114 -76 q-65 -25 -142 -25q-80 0 -143 25q-68 28 -113 76q-48 50 -75 124q-28 72 -28 173zM985 365q0 -142 61 -218q60 -77 171 -77t171 77q60 76 60 218q0 141 -60 218q-61 76 -171 76q-111 0 -171 -76q-61 -76 -61 -218zM1661 365q0 99 28 173q27 74 74 124q46 49 113 75 q65 25 143 25q77 0 143 -25q67 -26 113 -75t75 -124q28 -74 28 -173t-28 -173t-75 -124q-45 -48 -113 -76q-66 -25 -143 -25q-80 0 -143 25q-68 28 -113 76q-48 51 -74 124q-28 72 -28 173zM1788 365q0 -141 60 -218t171 -77q110 0 172 77q60 77 60 218t-60 218 q-61 76 -172 76t-171 -76q-60 -77 -60 -218zM246 -33l975 1483h120l-974 -1483h-121z" />
<glyph unicode="&#x2039;" horiz-adv-x="645" d="M150 487v148l321 276v-157l-231 -193l231 -192v-158z" />
<glyph unicode="&#x203a;" horiz-adv-x="645" d="M174 211v158l232 192l-232 193v157l322 -276v-148z" />
<glyph unicode="&#x2044;" horiz-adv-x="342" d="M-328 -33l871 1483h127l-871 -1483h-127z" />
<glyph unicode="&#x205f;" horiz-adv-x="393" />
<glyph unicode="&#x20ac;" horiz-adv-x="1368" d="M20 510l58 102h137l-3 27q-1 8 -1 27v110q0 19 1 28l3 27h-195l58 103h151q13 86 54 177q38 90 102 161q56 62 118 96q61 34 126 54q65 19 123 23q65 5 108 5q62 0 153 -11q86 -12 173 -53q57 -28 98 -64q39 -36 64 -67l-78 -122q-20 35 -55 73q-32 32 -93 64 q-72 35 -138 44q-69 9 -128 9q-47 0 -124 -11q-72 -12 -143 -51q-71 -41 -129 -118q-60 -80 -79 -209h780l-57 -103h-737l-3 -27q-2 -18 -2 -28v-110q0 -10 2 -26q2 -18 3 -28h624l-57 -102h-557q18 -134 70 -214q51 -82 118 -126q66 -45 139 -60q70 -16 134 -16 q133 0 262 53q128 53 219 168v-176q-91 -88 -222 -130t-268 -42q-80 0 -176 21q-97 23 -184 83q-87 59 -155 166q-68 106 -89 273h-205z" />
<glyph unicode="&#x2122;" horiz-adv-x="2027" d="M86 1372v90h655v-90h-276v-754h-103v754h-276zM893 618v844h176l270 -684l263 684h176v-844h-103v754h-4l-305 -754h-61l-306 754h-4v-754h-102z" />
<glyph unicode="&#x2212;" horiz-adv-x="1228" d="M96 467v102h1037v-102h-1037z" />
<glyph unicode="&#x2215;" horiz-adv-x="342" d="M-328 -33l871 1483h127l-871 -1483h-127z" />
<glyph unicode="&#x2219;" horiz-adv-x="569" d="M150 639q0 55 40 95q39 40 95 40q55 0 95 -40t40 -95t-40 -95t-95 -40t-95 40t-40 95z" />
<glyph unicode="&#x25fc;" horiz-adv-x="1065" d="M0 1065h1065v-1065h-1065v1065z" />
<glyph horiz-adv-x="1000" />
</font>
</defs>
</svg>
