<?xml version="1.0" standalone="no"?>
<!DOCTYPE svg PUBLIC "-//W3C//DTD SVG 1.1//EN" "http://www.w3.org/Graphics/SVG/1.1/DTD/svg11.dtd" >
<svg xmlns="http://www.w3.org/2000/svg" xmlns:xlink="http://www.w3.org/1999/xlink" version="1.1">
<metadata></metadata>
<defs>
<font id="alk_sanetregular" horiz-adv-x="1139" >
<font-face units-per-em="2048" ascent="1638" descent="-410" />
<missing-glyph horiz-adv-x="846" />
<glyph unicode=" "  horiz-adv-x="846" />
<glyph unicode="&#x09;" horiz-adv-x="846" />
<glyph unicode="&#xa0;" horiz-adv-x="846" />
<glyph unicode="&#x10d0;" d="M932 987q24 -35 34 -74q12 -47 13 -74q1 -22 1 -101v-432q0 -134 -95 -229t-229 -95h-173q-134 0 -229 95t-95 229v332h179v-346q0 -60 43 -103q42 -43 102 -43h173q61 0 104 43q42 43 42 103v446q0 66 -2 104q-3 29 -14 43q-30 40 -200 150l-3 2q-7 4 -25 16.5t-28 18.5 l-49 32q-21 12 -39 25q-29 20 -35 25q-9 6 -27 23q-11 9 -26 24q-9 9 -19 24q-24 35 -34 75q-11 42 -12 73q-2 42 -2 100h178q0 -73 3 -102t14 -43q26 -38 195 -149l4 -3q157 -99 196 -132q33 -27 55 -57z" />
<glyph unicode="&#x10d1;" d="M678 1259v-377q127 -10 214 -102t87 -221v-254q0 -135 -94 -229q-95 -95 -229 -95h-174q-133 0 -228 95t-95 229v254q0 134 95 229q94 94 228 94h18v239h-43q-115 0 -196 82q-82 81 -82 196v73h175v-86q0 -42 31 -72q30 -30 72 -30h196q11 0 18 -7t7 -18zM801 291v282 q0 61 -42 104q-43 42 -103 42h-174q-60 0 -102 -42q-43 -43 -43 -104v-282q0 -60 43 -103q42 -43 102 -43h174q59 0 102 43t43 103z" />
<glyph unicode="&#x10d2;" d="M806 847q78 -41 126 -117q47 -79 47 -170v-254q0 -134 -95 -229t-229 -95h-173q-134 0 -229 95t-95 229v254q0 134 95 229q94 94 229 94h98q40 4 67 33q27 28 27 70v240q0 43 -30 73t-72 30h-47q-43 0 -72 -30q-30 -30 -30 -73v-144h-177v132q0 115 82 197q82 81 197 81 h47q114 0 197 -81q81 -83 81 -197v-216q0 -83 -44 -151zM801 292v282q0 60 -42 104q-43 42 -104 42h-173q-60 0 -102 -42q-43 -43 -43 -104v-282q0 -60 43 -103q42 -43 102 -43h173q61 0 104 43q42 43 42 103z" />
<glyph unicode="&#x10d3;" horiz-adv-x="1608" d="M1037 1491h87q134 0 229 -95t95 -229v-387q0 -134 -95 -229t-229 -95h-87q-134 0 -229 95t-95 229l1 401q0 61 -43 104q-44 42 -103 42h-86q-60 0 -103 -42q-43 -43 -43 -104v-634q0 -98 71 -167t169 -69h397q115 0 197 -81q82 -82 82 -197v-33h-179v45q0 41 -30 73 q-30 30 -73 30h-394q-174 0 -295 123q-123 121 -123 295v601q0 134 95 229t229 95h86q139 0 234 -101q96 101 235 101zM1269 766v415q0 61 -42 104q-43 42 -103 42h-87q-60 0 -102 -42q-43 -43 -43 -104l-1 -415q0 -61 43 -103q43 -43 103 -43h87q60 0 103 43q42 42 42 103z " />
<glyph unicode="&#x10d4;" d="M502 1492h153q134 0 229 -95t95 -229v-862q0 -134 -95 -229t-229 -95h-173q-134 0 -229 95t-95 229v168h178v-182q0 -60 43 -103q42 -43 103 -43h173q60 0 103 43t43 103v890q0 61 -43 104q-44 42 -103 42h-153q-60 0 -102 -42q-43 -43 -43 -104v-180h-178v166 q0 134 95 229t228 95z" />
<glyph unicode="&#x10d5;" d="M857 808q41 -16 81 -90t40 -158v-254q0 -135 -94 -229q-95 -95 -229 -95h-174q-133 0 -228 95t-95 229v168h178v-182q0 -60 43 -103t102 -43h174q60 0 103 43q42 43 42 103v282q0 60 -42 104q-44 42 -103 42l-142 3v164l121 -4q61 0 104 43q42 44 42 103v153 q0 60 -42 104q-43 42 -104 42h-132q-60 0 -102 -42q-43 -43 -43 -104v-182h-179v168q0 134 95 229t229 95h132q134 0 229 -95t95 -229v-125q0 -140 -101 -235z" />
<glyph unicode="&#x10d6;" horiz-adv-x="1411" d="M837 883h110q135 0 229 -94q95 -95 95 -229v-254q0 -134 -95 -229t-229 -95h-174q-133 0 -228 95t-95 229v254q0 90 43 160h-57q-114 0 -195 82q-82 81 -82 195v218q0 114 82 196q81 81 195 81h149q113 0 196 -81q81 -83 81 -196v-218q0 -61 -25 -114zM337 1228v-243 q0 -40 29 -69q29 -30 70 -30h149q41 0 70 30q29 29 29 69v243q0 39 -29 70q-29 29 -70 29h-149q-41 0 -70 -29q-29 -31 -29 -70zM1093 292v282q0 61 -43 104q-44 42 -103 42h-174q-60 0 -102 -42q-43 -43 -43 -104v-282q0 -60 43 -103q42 -43 102 -43h174q60 0 103 43 t43 103z" />
<glyph unicode="&#x10d7;" horiz-adv-x="1606" d="M1037 1492h86q134 0 229 -95q94 -94 94 -229v-1167h-178v1181q0 60 -42 104q-44 42 -103 42h-86q-61 0 -103 -42q-43 -43 -43 -104v-14v-862q0 -135 -94 -229q-95 -95 -229 -95h-87q-134 0 -229 95t-95 229v862q0 134 95 229t229 95h87q138 0 234 -101q96 101 235 101z M713 292v876v14q0 60 -42 104q-44 42 -103 42h-87q-60 0 -102 -42q-43 -43 -43 -104v-890q0 -60 43 -103q42 -43 102 -43h87q60 0 103 43q42 43 42 103z" />
<glyph unicode="&#x10d8;" d="M482 1491h174q134 0 229 -95q94 -94 94 -229v-1167h-178v1181q0 61 -42 104q-43 42 -103 42h-174q-60 0 -102 -42q-43 -43 -43 -104v-1181h-178v1167q0 134 95 229t228 95z" />
<glyph unicode="&#x10d9;" d="M858 808q40 -16 81 -90q40 -74 40 -158v-254q0 -135 -94 -229q-95 -95 -229 -95h-174q-133 0 -228 95t-95 229v168h178v-182q0 -60 43 -103q42 -43 102 -43h174q60 0 103 43q42 43 42 103v282q0 60 -42 104q-43 42 -103 42l-142 3v164l121 -4q60 0 103 43q42 44 42 103 v153q0 60 -42 104q-43 42 -103 42h-66v164h66q134 0 229 -95t95 -229v-125q0 -139 -101 -235z" />
<glyph unicode="&#x10da;" horiz-adv-x="2015" d="M1500 1491h42q134 0 229 -95q94 -94 94 -229v-694h-178v708q0 61 -42 104q-43 42 -103 42h-42q-60 0 -102 -42q-43 -43 -43 -104v-480h-179v480q0 61 -42 104q-44 42 -103 42h-41q-60 0 -102 -42q-43 -43 -43 -104v-480h-179v480q0 61 -42 104q-43 42 -103 42h-40 q-59 0 -102 -42q-43 -43 -43 -104v-634q0 -103 50 -170q50 -66 143 -66h862q115 0 197 -81q81 -83 81 -197v-33h-178v45q0 41 -30 73q-30 30 -72 30h-860q-111 0 -197 57q-86 56 -130 151q-44 96 -44 210v601q0 134 95 229t228 95h40q139 0 235 -101q96 101 234 101h41 q138 0 234 -101q96 101 235 101z" />
<glyph unicode="&#x10db;" d="M503 1492h153q134 0 229 -95t95 -229v-608v-254q0 -134 -95 -229t-229 -95h-173q-134 0 -229 95t-95 229v254q0 134 95 229q94 94 229 94h173q40 0 83 -17q43 -18 62 -45v361q0 60 -42 104q-43 42 -103 42h-153q-60 0 -102 -42q-43 -43 -43 -104v-100h-178v86 q0 134 95 229t228 95zM801 292v282q0 60 -42 104q-43 42 -103 42h-173q-61 0 -103 -42q-43 -43 -43 -104v-282q0 -60 43 -103q42 -43 103 -43h173q60 0 103 43q42 43 42 103z" />
<glyph unicode="&#x10dc;" d="M483 883h173q135 0 229 -94q95 -95 95 -229v-254q0 -134 -95 -229t-229 -95h-173q-134 0 -229 95t-95 229v254v608q0 134 95 229t229 95q70 0 128 -16q62 -17 112 -17q72 0 159 16q43 8 77 17v-164q-30 -9 -75 -17q-87 -16 -161 -16q-60 0 -134 17q-70 16 -106 16 q-59 0 -103 -42q-43 -43 -43 -104v-357q52 58 146 58zM802 292v282q0 61 -43 104q-43 42 -103 42h-173q-61 0 -103 -42q-43 -43 -43 -104v-282q0 -60 43 -103q42 -43 103 -43h173q60 0 103 43t43 103z" />
<glyph unicode="&#x10dd;" horiz-adv-x="1607" d="M1037 1492h87q134 0 229 -95q94 -94 94 -229v-1167h-178v1181q0 60 -42 104q-43 42 -103 42h-87q-60 0 -102 -42q-43 -43 -43 -104v-673h-179v673q0 60 -42 104q-44 42 -103 42h-87q-60 0 -102 -42q-43 -43 -43 -104v-1181h-178v1167q0 134 95 229t228 95h87 q139 0 235 -101q95 101 234 101z" />
<glyph unicode="&#x10de;" d="M857 808q41 -16 82 -90q40 -73 40 -158v-254q0 -134 -95 -229t-229 -95h-173q-134 0 -229 95t-95 229v168h179v-182q0 -60 43 -103q42 -43 102 -43h173q61 0 104 43q42 43 42 103v282q0 60 -42 104q-43 42 -104 42l-142 3v164l122 -4q60 0 103 43q42 44 42 103 q0 46 -7 71q-8 28 -35 48q-31 23 -46 29q-10 4 -79 28q-12 4 -22 8q-119 42 -154 60q-41 20 -68 62q-41 58 -41 138h181q0 -35 6 -43q13 -20 45 -33t123 -45l63 -21q126 -43 170 -107q42 -63 42 -199q-7 -129 -101 -217z" />
<glyph unicode="&#x10df;" d="M800 1473h178v-1167q0 -135 -94 -229q-95 -95 -229 -95h-174q-134 0 -229 95t-95 229v168h178v-182q0 -60 43 -103t103 -43h174q60 0 103 43q42 43 42 103v1011l-229 -80q60 -78 60 -173q0 -114 -81 -197q-82 -82 -197 -82t-197 82q-82 81 -82 197h176v-12q0 -43 30 -73 t73 -30q42 0 72 30t30 73v24q0 43 -30 73t-72 30v163z" />
<glyph unicode="&#x10e0;" horiz-adv-x="1607" d="M1038 887h86q135 0 229 -94t94 -229v-564h-178v578q0 60 -42 103q-43 42 -103 42h-86q-61 0 -103 -42q-43 -43 -43 -103v-307h-178v307q0 60 -43 103q-43 42 -102 42h-87q-61 0 -103 -42q-43 -43 -43 -103v-578h-178v907q0 173 123 296q122 122 295 122h395q42 0 72 30 t30 72v45h178v-32q0 -116 -81 -197q-82 -81 -197 -81h-397q-98 0 -169 -69q-71 -71 -71 -168v-72q67 34 146 34h87q140 0 234 -100q94 100 235 100z" />
<glyph unicode="&#x10e1;" d="M656 -18h-174q-133 0 -228 95t-95 229v1167h178v-1181q0 -60 43 -103q42 -43 102 -43h174q58 0 102 44q43 43 43 102q0 60 -42 176t-42 192q0 98 15 167q6 33 15 56h178q-9 -35 -15 -72q-14 -89 -14 -151q0 -36 13 -75q16 -47 29 -75q14 -33 28 -89q13 -53 13 -115 q0 -135 -94 -229q-95 -95 -229 -95z" />
<glyph unicode="&#x10e2;" horiz-adv-x="1232" d="M704 1328h44q134 0 229 -95t95 -229v-698q0 -134 -95 -229t-229 -95h-266q-134 0 -229 95t-95 229v698q0 134 95 229t229 95h44v145h178v-145zM894 292v727q0 59 -42 103q-43 42 -104 42h-44v-462h-178v462h-44q-60 0 -102 -42q-43 -43 -43 -103v-727q0 -60 43 -103 q42 -43 102 -43h266q61 0 104 43q42 43 42 103z" />
<glyph unicode="&#x10e3;" d="M613 1492h42q134 0 229 -95t95 -229v-862q0 -134 -95 -229t-229 -95h-173q-134 0 -229 95t-95 229v168h178v-182q0 -60 43 -103q42 -43 103 -43h173q61 0 104 43q42 43 42 103v890q0 60 -42 104q-43 42 -104 42h-42q-59 0 -102 -43t-43 -103v-299h-178v299q0 60 -42 104 q-43 42 -104 42h-125v164h125q139 0 235 -101q96 101 234 101z" />
<glyph unicode="&#x10e4;" horiz-adv-x="1586" d="M1305 806q41 -16 81 -90t40 -158v-254q0 -135 -94 -229q-95 -95 -229 -95h-351q-133 0 -228 95t-95 229v168h178v-182q0 -60 43 -103t102 -43h351q60 0 103 43q42 44 42 103v282q0 60 -42 104q-44 42 -103 42l-143 3v160h122q61 0 104 43q42 44 42 103v153q0 61 -42 104 q-43 42 -104 42h-86q-60 0 -103 -42q-43 -43 -43 -104l1 -157q0 -133 -95 -228t-229 -95h-86q-134 0 -229 95t-95 228v143q0 134 95 229t229 95h86q138 0 234 -101q96 101 235 101h86q134 0 229 -95t95 -229v-125q0 -139 -101 -235zM441 864h86q60 0 103 43q43 42 43 102 l-1 171q0 61 -42 104q-44 42 -103 42h-86q-61 0 -103 -42q-43 -43 -43 -104v-171q0 -60 43 -102q42 -43 103 -43z" />
<glyph unicode="&#x10e5;" d="M800 1473h179v-1167q0 -134 -95 -229t-229 -95h-173q-134 0 -229 95t-95 229v168h178v-182q0 -60 43 -103q42 -43 103 -43h173q60 0 103 43q42 43 42 103v652q0 60 -42 104q-44 42 -103 42h-104q-60 0 -102 -42q-43 -43 -43 -104v-61h-178v47q0 134 95 229q94 94 228 94 h104q93 0 145 -76v296z" />
<glyph unicode="&#x10e6;" horiz-adv-x="1606" d="M575 311h398q113 0 196 -81q81 -83 81 -197v-33h-178v45q0 41 -30 73q-30 30 -72 30h-395q-173 0 -295 123q-123 121 -123 295v601q0 134 95 229t229 95h87q138 0 234 -101q96 101 235 101h86q134 0 229 -95q94 -94 94 -229v-694h-178v708q0 61 -42 104q-44 42 -103 42 h-86q-61 0 -103 -42q-43 -43 -43 -104v-480h-179l1 480q0 61 -42 104q-44 42 -103 42h-87q-60 0 -102 -42q-43 -43 -43 -104v-634q0 -98 70 -167t169 -69z" />
<glyph unicode="&#x10e7;" d="M801 1473h178v-1167q0 -135 -94 -229q-95 -95 -229 -95h-174q-134 0 -229 95t-95 229v168h178v-182q0 -60 43 -103t103 -43h174q60 0 103 43q42 43 42 103v471q-34 -28 -77 -44q-45 -17 -83 -17h-159q-134 0 -229 95t-95 228v448h178v-462q0 -60 43 -102q43 -43 103 -43 h174q60 0 103 43q42 42 42 102v462z" />
<glyph unicode="&#x10e8;" d="M655 1492q134 0 229 -95t95 -229v-862q0 -134 -95 -229t-229 -95h-174q-133 0 -228 95t-95 229v254q0 134 95 229q94 94 228 94h174q95 0 146 -58v357q0 61 -43 104q-44 42 -103 42t-103 -42q-43 -43 -43 -104v-100h-178v100q0 60 -42 104q-43 42 -103 42h-114v164h114 q139 0 235 -101q95 101 234 101zM801 291v283q0 60 -43 103q-44 42 -103 42h-174q-59 0 -102 -42q-43 -43 -43 -103v-283q0 -59 43 -102t102 -43h174q60 0 103 43t43 102z" />
<glyph unicode="&#x10e9;" d="M495 714h160q135 0 229 -94q95 -95 95 -229v-391h-178v405q0 61 -43 104q-44 42 -103 42h-174q-60 0 -102 -42q-43 -43 -43 -104v-405h-178v1167q0 134 95 229t228 95h133q134 0 229 -95t95 -229t-95 -229t-229 -95h-90h-188v-189q34 28 77 44q42 16 82 16zM336 1181 v-174h188h90q60 0 103 43t43 103v28q0 61 -43 104q-43 42 -103 42h-133q-60 0 -102 -42q-43 -43 -43 -104z" />
<glyph unicode="&#x10ea;" horiz-adv-x="1232" d="M950 808q42 -17 82 -90q40 -74 40 -158v-254q0 -134 -95 -229t-229 -95h-267q-133 0 -228 95t-95 229v1167h178v-1181q0 -60 43 -103t102 -43h267q60 0 103 43t43 103v282q0 61 -43 104q-44 42 -103 42l-142 3v164l122 -4q60 0 103 43q42 44 42 103q0 33 -3 55 q-3 23 -13 40q-12 21 -19 29q-12 12 -34 23q-27 13 -44 20q-20 8 -60 21q-105 36 -134 54q-32 18 -63 64q-42 59 -42 138h181q0 -35 7 -43q17 -25 48 -38q30 -14 158 -57q50 -17 87 -38q31 -19 56 -44q21 -23 34 -59q10 -34 15 -73q4 -33 4 -96q-8 -128 -101 -217z" />
<glyph unicode="&#x10eb;" d="M158 305v254q0 134 95 229q94 94 228 94h174q94 0 145 -58v648h178v-1167q0 -135 -94 -229q-95 -95 -229 -95h-174q-133 0 -228 95t-95 229zM336 573v-282q0 -60 43 -103q42 -43 102 -43h174q60 0 103 43q42 44 42 103v282q0 61 -42 104q-44 42 -103 42h-174 q-60 0 -102 -42q-43 -43 -43 -104z" />
<glyph unicode="&#x10ec;" d="M158 306v862q0 134 95 229t229 95q138 0 234 -101q96 101 235 101h114v-164h-114q-59 0 -103 -42q-43 -43 -43 -104l1 -100h-178l-1 100q0 60 -42 104q-43 42 -103 42t-103 -42q-43 -43 -43 -104v-357q51 58 146 58h173q135 0 229 -94q95 -95 95 -229v-254 q0 -134 -95 -229t-229 -95h-173q-134 0 -229 95t-95 229zM336 574v-283q0 -59 43 -102t103 -43h173q60 0 103 43q42 43 42 102v283q0 60 -42 103q-44 42 -103 42h-173q-60 0 -103 -42q-43 -43 -43 -103z" />
<glyph unicode="&#x10ed;" horiz-adv-x="1263" d="M1150 1287v-151l-192 -119l192 -119v-151l-172 106v-547q0 -134 -95 -229t-229 -95h-173q-134 0 -229 95t-95 229v168h179v-183q0 -59 43 -102q42 -43 102 -43h173q60 0 103 43t43 102v591q-156 -176 -340 -176q-74 0 -133 48q-60 49 -88 118q-30 70 -30 145t30 145 q28 69 88 118q59 48 133 48q105 0 187 -47q79 -48 153 -129v321h178h2v-292zM536 878q52 0 119 56q66 57 79 83q-14 26 -78 83q-67 56 -120 56q-153 0 -153 -139t153 -139z" />
<glyph unicode="&#x10ee;" d="M482 883h173q135 0 229 -94q95 -95 95 -229v-254q0 -134 -95 -229t-229 -95h-173q-134 0 -229 95t-95 229v254v913h178v-648q51 58 146 58zM800 292v282q0 60 -42 104q-44 42 -103 42h-173q-61 0 -103 -42q-43 -43 -43 -104v-282q0 -60 43 -103q42 -43 103 -43h173 q60 0 103 43q42 43 42 103z" />
<glyph unicode="&#x10ef;" d="M741 819q140 -96 189 -190t49 -248v-73q0 -135 -94 -229q-95 -95 -229 -95h-174q-134 0 -229 95t-95 229v168h178v-183q0 -59 43 -102t103 -43h174q60 0 103 43q42 43 42 102v88q0 117 -31 178q-30 59 -124 119q-63 39 -134 96q-66 51 -96 94q-30 42 -39 91q-9 48 -9 125 h-210v164h210v227h178v-227h251v-164h-251q0 -93 16 -113q25 -36 105 -98q46 -36 74 -54z" />
<glyph unicode="&#x10f0;" d="M857 506q36 -23 60 -56q61 -73 61 -169q0 -113 -100 -206t-223 -93h-174q-133 0 -228 95t-95 229v16h178v-31q0 -59 43 -102q42 -43 102 -43h174q57 0 99 39q41 38 46 96q-4 56 -45 97q-42 39 -100 39l-142 3v164l114 -3q63 0 107 34q44 33 44 87q0 52 -40 80 q-40 27 -91 27l-134 3v163l121 -2q50 0 90 31q39 30 51 78q-1 11 -6 22q-7 16 -8 18q-6 10 -12 16q-2 2 -5 4.5t-5 4.5t-3 4q-4 4 -17 12q-14 6 -19 10q-8 3 -23 10q-4 2 -9.5 3.5t-9.5 3t-6 2.5q-4 1 -30 10q-28 10 -32 11q-119 42 -154 60q-40 21 -67 62q-42 59 -42 138 h181q0 -35 6 -43q13 -20 45 -34q31 -14 133 -48q30 -9 53 -18q109 -36 161 -94t52 -154q0 -77 -51 -140q-25 -28 -50 -44q31 -10 57 -36q57 -57 57 -160t-57 -160q-26 -26 -57 -36z" />
<glyph unicode="&#x1c90;" d="M932 987q24 -35 34 -74q12 -47 13 -74q1 -22 1 -101v-432q0 -134 -95 -229t-229 -95h-173q-134 0 -229 95t-95 229v332h179v-346q0 -60 43 -103q42 -43 102 -43h173q61 0 104 43q42 43 42 103v446q0 66 -2 104q-3 29 -14 43q-30 40 -200 150l-3 2q-7 4 -25 16.5t-28 18.5 l-49 32q-21 12 -39 25q-29 20 -35 25q-9 6 -27 23q-11 9 -26 24q-9 9 -19 24q-24 35 -34 75q-11 42 -12 73q-2 42 -2 100h178q0 -73 3 -102t14 -43q26 -38 195 -149l4 -3q157 -99 196 -132q33 -27 55 -57z" />
<glyph unicode="&#x1c91;" d="M678 1259v-377q127 -10 214 -102t87 -221v-254q0 -135 -94 -229q-95 -95 -229 -95h-174q-133 0 -228 95t-95 229v254q0 134 95 229q94 94 228 94h18v239h-43q-115 0 -196 82q-82 81 -82 196v73h175v-86q0 -42 31 -72q30 -30 72 -30h196q11 0 18 -7t7 -18zM801 291v282 q0 61 -42 104q-43 42 -103 42h-174q-60 0 -102 -42q-43 -43 -43 -104v-282q0 -60 43 -103q42 -43 102 -43h174q59 0 102 43t43 103z" />
<glyph unicode="&#x1c92;" d="M806 847q78 -41 126 -117q47 -79 47 -170v-254q0 -134 -95 -229t-229 -95h-173q-134 0 -229 95t-95 229v254q0 134 95 229q94 94 229 94h98q40 4 67 33q27 28 27 70v240q0 43 -30 73t-72 30h-47q-43 0 -72 -30q-30 -30 -30 -73v-144h-177v132q0 115 82 197q82 81 197 81 h47q114 0 197 -81q81 -83 81 -197v-216q0 -83 -44 -151zM801 292v282q0 60 -42 104q-43 42 -104 42h-173q-60 0 -102 -42q-43 -43 -43 -104v-282q0 -60 43 -103q42 -43 102 -43h173q61 0 104 43q42 43 42 103z" />
<glyph unicode="&#x1c93;" horiz-adv-x="1608" d="M1037 1491h87q134 0 229 -95t95 -229v-387q0 -134 -95 -229t-229 -95h-87q-134 0 -229 95t-95 229l1 401q0 61 -43 104q-44 42 -103 42h-86q-60 0 -103 -42q-43 -43 -43 -104v-634q0 -98 71 -167t169 -69h397q115 0 197 -81q82 -82 82 -197v-33h-179v45q0 41 -30 73 q-30 30 -73 30h-394q-174 0 -295 123q-123 121 -123 295v601q0 134 95 229t229 95h86q139 0 234 -101q96 101 235 101zM1269 766v415q0 61 -42 104q-43 42 -103 42h-87q-60 0 -102 -42q-43 -43 -43 -104l-1 -415q0 -61 43 -103q43 -43 103 -43h87q60 0 103 43q42 42 42 103z " />
<glyph unicode="&#x1c94;" d="M502 1492h153q134 0 229 -95t95 -229v-862q0 -134 -95 -229t-229 -95h-173q-134 0 -229 95t-95 229v168h178v-182q0 -60 43 -103q42 -43 103 -43h173q60 0 103 43t43 103v890q0 61 -43 104q-44 42 -103 42h-153q-60 0 -102 -42q-43 -43 -43 -104v-180h-178v166 q0 134 95 229t228 95z" />
<glyph unicode="&#x1c95;" d="M857 808q41 -16 81 -90t40 -158v-254q0 -135 -94 -229q-95 -95 -229 -95h-174q-133 0 -228 95t-95 229v168h178v-182q0 -60 43 -103t102 -43h174q60 0 103 43q42 43 42 103v282q0 60 -42 104q-44 42 -103 42l-142 3v164l121 -4q61 0 104 43q42 44 42 103v153 q0 60 -42 104q-43 42 -104 42h-132q-60 0 -102 -42q-43 -43 -43 -104v-182h-179v168q0 134 95 229t229 95h132q134 0 229 -95t95 -229v-125q0 -140 -101 -235z" />
<glyph unicode="&#x1c96;" horiz-adv-x="1411" d="M837 883h110q135 0 229 -94q95 -95 95 -229v-254q0 -134 -95 -229t-229 -95h-174q-133 0 -228 95t-95 229v254q0 90 43 160h-57q-114 0 -195 82q-82 81 -82 195v218q0 114 82 196q81 81 195 81h149q113 0 196 -81q81 -83 81 -196v-218q0 -61 -25 -114zM337 1228v-243 q0 -40 29 -69q29 -30 70 -30h149q41 0 70 30q29 29 29 69v243q0 39 -29 70q-29 29 -70 29h-149q-41 0 -70 -29q-29 -31 -29 -70zM1093 292v282q0 61 -43 104q-44 42 -103 42h-174q-60 0 -102 -42q-43 -43 -43 -104v-282q0 -60 43 -103q42 -43 102 -43h174q60 0 103 43 t43 103z" />
<glyph unicode="&#x1c97;" horiz-adv-x="1606" d="M1037 1492h86q134 0 229 -95q94 -94 94 -229v-1167h-178v1181q0 60 -42 104q-44 42 -103 42h-86q-61 0 -103 -42q-43 -43 -43 -104v-14v-862q0 -135 -94 -229q-95 -95 -229 -95h-87q-134 0 -229 95t-95 229v862q0 134 95 229t229 95h87q138 0 234 -101q96 101 235 101z M713 292v876v14q0 60 -42 104q-44 42 -103 42h-87q-60 0 -102 -42q-43 -43 -43 -104v-890q0 -60 43 -103q42 -43 102 -43h87q60 0 103 43q42 43 42 103z" />
<glyph unicode="&#x1c98;" d="M482 1491h174q134 0 229 -95q94 -94 94 -229v-1167h-178v1181q0 61 -42 104q-43 42 -103 42h-174q-60 0 -102 -42q-43 -43 -43 -104v-1181h-178v1167q0 134 95 229t228 95z" />
<glyph unicode="&#x1c99;" d="M858 808q40 -16 81 -90q40 -74 40 -158v-254q0 -135 -94 -229q-95 -95 -229 -95h-174q-133 0 -228 95t-95 229v168h178v-182q0 -60 43 -103q42 -43 102 -43h174q60 0 103 43q42 43 42 103v282q0 60 -42 104q-43 42 -103 42l-142 3v164l121 -4q60 0 103 43q42 44 42 103 v153q0 60 -42 104q-43 42 -103 42h-66v164h66q134 0 229 -95t95 -229v-125q0 -139 -101 -235z" />
<glyph unicode="&#x1c9a;" horiz-adv-x="2015" d="M1500 1491h42q134 0 229 -95q94 -94 94 -229v-694h-178v708q0 61 -42 104q-43 42 -103 42h-42q-60 0 -102 -42q-43 -43 -43 -104v-480h-179v480q0 61 -42 104q-44 42 -103 42h-41q-60 0 -102 -42q-43 -43 -43 -104v-480h-179v480q0 61 -42 104q-43 42 -103 42h-40 q-59 0 -102 -42q-43 -43 -43 -104v-634q0 -103 50 -170q50 -66 143 -66h862q115 0 197 -81q81 -83 81 -197v-33h-178v45q0 41 -30 73q-30 30 -72 30h-860q-111 0 -197 57q-86 56 -130 151q-44 96 -44 210v601q0 134 95 229t228 95h40q139 0 235 -101q96 101 234 101h41 q138 0 234 -101q96 101 235 101z" />
<glyph unicode="&#x1c9b;" d="M503 1492h153q134 0 229 -95t95 -229v-608v-254q0 -134 -95 -229t-229 -95h-173q-134 0 -229 95t-95 229v254q0 134 95 229q94 94 229 94h173q40 0 83 -17q43 -18 62 -45v361q0 60 -42 104q-43 42 -103 42h-153q-60 0 -102 -42q-43 -43 -43 -104v-100h-178v86 q0 134 95 229t228 95zM801 292v282q0 60 -42 104q-43 42 -103 42h-173q-61 0 -103 -42q-43 -43 -43 -104v-282q0 -60 43 -103q42 -43 103 -43h173q60 0 103 43q42 43 42 103z" />
<glyph unicode="&#x1c9c;" d="M483 883h173q135 0 229 -94q95 -95 95 -229v-254q0 -134 -95 -229t-229 -95h-173q-134 0 -229 95t-95 229v254v608q0 134 95 229t229 95q70 0 128 -16q62 -17 112 -17q72 0 159 16q43 8 77 17v-164q-30 -9 -75 -17q-87 -16 -161 -16q-60 0 -134 17q-70 16 -106 16 q-59 0 -103 -42q-43 -43 -43 -104v-357q52 58 146 58zM802 292v282q0 61 -43 104q-43 42 -103 42h-173q-61 0 -103 -42q-43 -43 -43 -104v-282q0 -60 43 -103q42 -43 103 -43h173q60 0 103 43t43 103z" />
<glyph unicode="&#x1c9d;" horiz-adv-x="1607" d="M1037 1492h87q134 0 229 -95q94 -94 94 -229v-1167h-178v1181q0 60 -42 104q-43 42 -103 42h-87q-60 0 -102 -42q-43 -43 -43 -104v-673h-179v673q0 60 -42 104q-44 42 -103 42h-87q-60 0 -102 -42q-43 -43 -43 -104v-1181h-178v1167q0 134 95 229t228 95h87 q139 0 235 -101q95 101 234 101z" />
<glyph unicode="&#x1c9e;" d="M857 808q41 -16 82 -90q40 -73 40 -158v-254q0 -134 -95 -229t-229 -95h-173q-134 0 -229 95t-95 229v168h179v-182q0 -60 43 -103q42 -43 102 -43h173q61 0 104 43q42 43 42 103v282q0 60 -42 104q-43 42 -104 42l-142 3v164l122 -4q60 0 103 43q42 44 42 103 q0 46 -7 71q-8 28 -35 48q-31 23 -46 29q-10 4 -79 28q-12 4 -22 8q-119 42 -154 60q-41 20 -68 62q-41 58 -41 138h181q0 -35 6 -43q13 -20 45 -33t123 -45l63 -21q126 -43 170 -107q42 -63 42 -199q-7 -129 -101 -217z" />
<glyph unicode="&#x1c9f;" d="M800 1473h178v-1167q0 -135 -94 -229q-95 -95 -229 -95h-174q-134 0 -229 95t-95 229v168h178v-182q0 -60 43 -103t103 -43h174q60 0 103 43q42 43 42 103v1011l-229 -80q60 -78 60 -173q0 -114 -81 -197q-82 -82 -197 -82t-197 82q-82 81 -82 197h176v-12q0 -43 30 -73 t73 -30q42 0 72 30t30 73v24q0 43 -30 73t-72 30v163z" />
<glyph unicode="&#x1ca0;" horiz-adv-x="1607" d="M1038 887h86q135 0 229 -94t94 -229v-564h-178v578q0 60 -42 103q-43 42 -103 42h-86q-61 0 -103 -42q-43 -43 -43 -103v-307h-178v307q0 60 -43 103q-43 42 -102 42h-87q-61 0 -103 -42q-43 -43 -43 -103v-578h-178v907q0 173 123 296q122 122 295 122h395q42 0 72 30 t30 72v45h178v-32q0 -116 -81 -197q-82 -81 -197 -81h-397q-98 0 -169 -69q-71 -71 -71 -168v-72q67 34 146 34h87q140 0 234 -100q94 100 235 100z" />
<glyph unicode="&#x1ca1;" d="M656 -18h-174q-133 0 -228 95t-95 229v1167h178v-1181q0 -60 43 -103q42 -43 102 -43h174q58 0 102 44q43 43 43 102q0 60 -42 176t-42 192q0 98 15 167q6 33 15 56h178q-9 -35 -15 -72q-14 -89 -14 -151q0 -36 13 -75q16 -47 29 -75q14 -33 28 -89q13 -53 13 -115 q0 -135 -94 -229q-95 -95 -229 -95z" />
<glyph unicode="&#x1ca2;" horiz-adv-x="1232" d="M704 1328h44q134 0 229 -95t95 -229v-698q0 -134 -95 -229t-229 -95h-266q-134 0 -229 95t-95 229v698q0 134 95 229t229 95h44v145h178v-145zM894 292v727q0 59 -42 103q-43 42 -104 42h-44v-462h-178v462h-44q-60 0 -102 -42q-43 -43 -43 -103v-727q0 -60 43 -103 q42 -43 102 -43h266q61 0 104 43q42 43 42 103z" />
<glyph unicode="&#x1ca3;" d="M613 1492h42q134 0 229 -95t95 -229v-862q0 -134 -95 -229t-229 -95h-173q-134 0 -229 95t-95 229v168h178v-182q0 -60 43 -103q42 -43 103 -43h173q61 0 104 43q42 43 42 103v890q0 60 -42 104q-43 42 -104 42h-42q-59 0 -102 -43t-43 -103v-299h-178v299q0 60 -42 104 q-43 42 -104 42h-125v164h125q139 0 235 -101q96 101 234 101z" />
<glyph unicode="&#x1ca4;" horiz-adv-x="1586" d="M1305 806q41 -16 81 -90t40 -158v-254q0 -135 -94 -229q-95 -95 -229 -95h-351q-133 0 -228 95t-95 229v168h178v-182q0 -60 43 -103t102 -43h351q60 0 103 43q42 44 42 103v282q0 60 -42 104q-44 42 -103 42l-143 3v160h122q61 0 104 43q42 44 42 103v153q0 61 -42 104 q-43 42 -104 42h-86q-60 0 -103 -42q-43 -43 -43 -104l1 -157q0 -133 -95 -228t-229 -95h-86q-134 0 -229 95t-95 228v143q0 134 95 229t229 95h86q138 0 234 -101q96 101 235 101h86q134 0 229 -95t95 -229v-125q0 -139 -101 -235zM441 864h86q60 0 103 43q43 42 43 102 l-1 171q0 61 -42 104q-44 42 -103 42h-86q-61 0 -103 -42q-43 -43 -43 -104v-171q0 -60 43 -102q42 -43 103 -43z" />
<glyph unicode="&#x1ca5;" d="M800 1473h179v-1167q0 -134 -95 -229t-229 -95h-173q-134 0 -229 95t-95 229v168h178v-182q0 -60 43 -103q42 -43 103 -43h173q60 0 103 43q42 43 42 103v652q0 60 -42 104q-44 42 -103 42h-104q-60 0 -102 -42q-43 -43 -43 -104v-61h-178v47q0 134 95 229q94 94 228 94 h104q93 0 145 -76v296z" />
<glyph unicode="&#x1ca6;" horiz-adv-x="1606" d="M575 311h398q113 0 196 -81q81 -83 81 -197v-33h-178v45q0 41 -30 73q-30 30 -72 30h-395q-173 0 -295 123q-123 121 -123 295v601q0 134 95 229t229 95h87q138 0 234 -101q96 101 235 101h86q134 0 229 -95q94 -94 94 -229v-694h-178v708q0 61 -42 104q-44 42 -103 42 h-86q-61 0 -103 -42q-43 -43 -43 -104v-480h-179l1 480q0 61 -42 104q-44 42 -103 42h-87q-60 0 -102 -42q-43 -43 -43 -104v-634q0 -98 70 -167t169 -69z" />
<glyph unicode="&#x1ca7;" d="M801 1473h178v-1167q0 -135 -94 -229q-95 -95 -229 -95h-174q-134 0 -229 95t-95 229v168h178v-182q0 -60 43 -103t103 -43h174q60 0 103 43q42 43 42 103v471q-34 -28 -77 -44q-45 -17 -83 -17h-159q-134 0 -229 95t-95 228v448h178v-462q0 -60 43 -102q43 -43 103 -43 h174q60 0 103 43q42 42 42 102v462z" />
<glyph unicode="&#x1ca8;" d="M655 1492q134 0 229 -95t95 -229v-862q0 -134 -95 -229t-229 -95h-174q-133 0 -228 95t-95 229v254q0 134 95 229q94 94 228 94h174q95 0 146 -58v357q0 61 -43 104q-44 42 -103 42t-103 -42q-43 -43 -43 -104v-100h-178v100q0 60 -42 104q-43 42 -103 42h-114v164h114 q139 0 235 -101q95 101 234 101zM801 291v283q0 60 -43 103q-44 42 -103 42h-174q-59 0 -102 -42q-43 -43 -43 -103v-283q0 -59 43 -102t102 -43h174q60 0 103 43t43 102z" />
<glyph unicode="&#x1ca9;" d="M495 714h160q135 0 229 -94q95 -95 95 -229v-391h-178v405q0 61 -43 104q-44 42 -103 42h-174q-60 0 -102 -42q-43 -43 -43 -104v-405h-178v1167q0 134 95 229t228 95h133q134 0 229 -95t95 -229t-95 -229t-229 -95h-90h-188v-189q34 28 77 44q42 16 82 16zM336 1181 v-174h188h90q60 0 103 43t43 103v28q0 61 -43 104q-43 42 -103 42h-133q-60 0 -102 -42q-43 -43 -43 -104z" />
<glyph unicode="&#x1caa;" horiz-adv-x="1232" d="M950 808q42 -17 82 -90q40 -74 40 -158v-254q0 -134 -95 -229t-229 -95h-267q-133 0 -228 95t-95 229v1167h178v-1181q0 -60 43 -103t102 -43h267q60 0 103 43t43 103v282q0 61 -43 104q-44 42 -103 42l-142 3v164l122 -4q60 0 103 43q42 44 42 103q0 33 -3 55 q-3 23 -13 40q-12 21 -19 29q-12 12 -34 23q-27 13 -44 20q-20 8 -60 21q-105 36 -134 54q-32 18 -63 64q-42 59 -42 138h181q0 -35 7 -43q17 -25 48 -38q30 -14 158 -57q50 -17 87 -38q31 -19 56 -44q21 -23 34 -59q10 -34 15 -73q4 -33 4 -96q-8 -128 -101 -217z" />
<glyph unicode="&#x1cab;" d="M158 305v254q0 134 95 229q94 94 228 94h174q94 0 145 -58v648h178v-1167q0 -135 -94 -229q-95 -95 -229 -95h-174q-133 0 -228 95t-95 229zM336 573v-282q0 -60 43 -103q42 -43 102 -43h174q60 0 103 43q42 44 42 103v282q0 61 -42 104q-44 42 -103 42h-174 q-60 0 -102 -42q-43 -43 -43 -104z" />
<glyph unicode="&#x1cac;" d="M158 306v862q0 134 95 229t229 95q138 0 234 -101q96 101 235 101h114v-164h-114q-59 0 -103 -42q-43 -43 -43 -104l1 -100h-178l-1 100q0 60 -42 104q-43 42 -103 42t-103 -42q-43 -43 -43 -104v-357q51 58 146 58h173q135 0 229 -94q95 -95 95 -229v-254 q0 -134 -95 -229t-229 -95h-173q-134 0 -229 95t-95 229zM336 574v-283q0 -59 43 -102t103 -43h173q60 0 103 43q42 43 42 102v283q0 60 -42 103q-44 42 -103 42h-173q-60 0 -103 -42q-43 -43 -43 -103z" />
<glyph unicode="&#x1cad;" horiz-adv-x="1263" d="M1150 1287v-151l-192 -119l192 -119v-151l-172 106v-547q0 -134 -95 -229t-229 -95h-173q-134 0 -229 95t-95 229v168h179v-183q0 -59 43 -102q42 -43 102 -43h173q60 0 103 43t43 102v591q-156 -176 -340 -176q-74 0 -133 48q-60 49 -88 118q-30 70 -30 145t30 145 q28 69 88 118q59 48 133 48q105 0 187 -47q79 -48 153 -129v321h178h2v-292zM536 878q52 0 119 56q66 57 79 83q-14 26 -78 83q-67 56 -120 56q-153 0 -153 -139t153 -139z" />
<glyph unicode="&#x1cae;" d="M482 883h173q135 0 229 -94q95 -95 95 -229v-254q0 -134 -95 -229t-229 -95h-173q-134 0 -229 95t-95 229v254v913h178v-648q51 58 146 58zM800 292v282q0 60 -42 104q-44 42 -103 42h-173q-61 0 -103 -42q-43 -43 -43 -104v-282q0 -60 43 -103q42 -43 103 -43h173 q60 0 103 43q42 43 42 103z" />
<glyph unicode="&#x1caf;" d="M741 819q140 -96 189 -190t49 -248v-73q0 -135 -94 -229q-95 -95 -229 -95h-174q-134 0 -229 95t-95 229v168h178v-183q0 -59 43 -102t103 -43h174q60 0 103 43q42 43 42 102v88q0 117 -31 178q-30 59 -124 119q-63 39 -134 96q-66 51 -96 94q-30 42 -39 91q-9 48 -9 125 h-210v164h210v227h178v-227h251v-164h-251q0 -93 16 -113q25 -36 105 -98q46 -36 74 -54z" />
<glyph unicode="&#x1cb0;" d="M857 506q36 -23 60 -56q61 -73 61 -169q0 -113 -100 -206t-223 -93h-174q-133 0 -228 95t-95 229v16h178v-31q0 -59 43 -102q42 -43 102 -43h174q57 0 99 39q41 38 46 96q-4 56 -45 97q-42 39 -100 39l-142 3v164l114 -3q63 0 107 34q44 33 44 87q0 52 -40 80 q-40 27 -91 27l-134 3v163l121 -2q50 0 90 31q39 30 51 78q-1 11 -6 22q-7 16 -8 18q-6 10 -12 16q-2 2 -5 4.5t-5 4.5t-3 4q-4 4 -17 12q-14 6 -19 10q-8 3 -23 10q-4 2 -9.5 3.5t-9.5 3t-6 2.5q-4 1 -30 10q-28 10 -32 11q-119 42 -154 60q-40 21 -67 62q-42 59 -42 138 h181q0 -35 6 -43q13 -20 45 -34q31 -14 133 -48q30 -9 53 -18q109 -36 161 -94t52 -154q0 -77 -51 -140q-25 -28 -50 -44q31 -10 57 -36q57 -57 57 -160t-57 -160q-26 -26 -57 -36z" />
<glyph unicode="&#x2000;" horiz-adv-x="746" />
<glyph unicode="&#x2001;" horiz-adv-x="1492" />
<glyph unicode="&#x2002;" horiz-adv-x="746" />
<glyph unicode="&#x2003;" horiz-adv-x="1492" />
<glyph unicode="&#x2004;" horiz-adv-x="497" />
<glyph unicode="&#x2005;" horiz-adv-x="373" />
<glyph unicode="&#x2006;" horiz-adv-x="248" />
<glyph unicode="&#x2007;" horiz-adv-x="248" />
<glyph unicode="&#x2008;" horiz-adv-x="186" />
<glyph unicode="&#x2009;" horiz-adv-x="298" />
<glyph unicode="&#x200a;" horiz-adv-x="82" />
<glyph unicode="&#x202f;" horiz-adv-x="298" />
<glyph unicode="&#x205f;" horiz-adv-x="373" />
<glyph unicode="&#x25fc;" horiz-adv-x="500" d="M0 0z" />
<glyph horiz-adv-x="682" />
</font>
</defs>
</svg>
